<svg width="14" height="14" viewBox="0 0 14 14" fill="none" xmlns="http://www.w3.org/2000/svg">
<path id="Union" d="M12.1842 0.517348C12.5421 0.159557 13.1222 0.159607 13.4801 0.517348C13.838 0.875264 13.838 1.45529 13.4801 1.81325L8.29361 6.99977L13.4792 12.1853C13.8369 12.5432 13.8369 13.1233 13.4792 13.4812C13.1212 13.8391 12.5412 13.8391 12.1833 13.4812L6.99771 8.29567L1.81412 13.4802C1.45626 13.8379 0.876134 13.8378 0.518218 13.4802C0.160269 13.1223 0.160269 12.5413 0.518218 12.1834L5.70084 6.99977L0.516265 1.8152C0.158594 1.45734 0.158687 0.877218 0.516265 0.519301C0.874214 0.161352 1.45519 0.161352 1.81314 0.519301L6.99771 5.70387L12.1842 0.517348Z" fill="#C6C6C6"/>
</svg>
