<svg width="18" height="18" viewBox="0 0 18 18" fill="none" xmlns="http://www.w3.org/2000/svg">
<path d="M15.3368 1.0786C15.7742 0.641111 16.4832 0.641126 16.9207 1.0786C17.3582 1.51609 17.3582 2.22509 16.9207 2.66258L10.5838 8.99852L16.9227 15.3374C17.3601 15.7749 17.3601 16.4839 16.9227 16.9214C16.4852 17.3589 15.7762 17.3588 15.3387 16.9214L8.99984 10.5825L2.66194 16.9214C2.22443 17.3586 1.51535 17.3588 1.07796 16.9214C0.640588 16.484 0.640771 15.7749 1.07796 15.3374L7.41585 8.99852L1.07991 2.66258C0.642459 2.22509 0.642433 1.51608 1.07991 1.0786C1.5174 0.641153 2.22641 0.641153 2.6639 1.0786L8.99984 7.41453L15.3368 1.0786Z" fill="#717171"/>
</svg>
