<svg width="21" height="20" viewBox="0 0 21 20" fill="none" xmlns="http://www.w3.org/2000/svg">
<path d="M10.5 0.25C8.57164 0.25 6.68657 0.821828 5.08319 1.89317C3.47982 2.96451 2.23013 4.48726 1.49218 6.26884C0.754225 8.05042 0.561142 10.0108 0.937348 11.9021C1.31355 13.7934 2.24215 15.5307 3.60571 16.8943C4.96928 18.2579 6.70656 19.1865 8.59787 19.5627C10.4892 19.9389 12.4496 19.7458 14.2312 19.0078C16.0127 18.2699 17.5355 17.0202 18.6068 15.4168C19.6782 13.8134 20.25 11.9284 20.25 10C20.245 7.41566 19.2162 4.93859 17.3888 3.11118C15.5614 1.28378 13.0843 0.254956 10.5 0.25ZM14.0344 12.4656C14.1752 12.6078 14.2542 12.7999 14.2542 13C14.2542 13.2001 14.1752 13.3922 14.0344 13.5344C13.891 13.673 13.6994 13.7505 13.5 13.7505C13.3006 13.7505 13.109 13.673 12.9656 13.5344L10.5 11.0594L8.03438 13.5344C7.89102 13.673 7.69942 13.7505 7.5 13.7505C7.30059 13.7505 7.10898 13.673 6.96563 13.5344C6.82479 13.3922 6.74578 13.2001 6.74578 13C6.74578 12.7999 6.82479 12.6078 6.96563 12.4656L9.44063 10L6.96563 7.53437C6.84603 7.38865 6.78491 7.20366 6.79416 7.01537C6.80341 6.82708 6.88236 6.64896 7.01566 6.51566C7.14896 6.38236 7.32708 6.3034 7.51537 6.29416C7.70366 6.28491 7.88866 6.34603 8.03438 6.46563L10.5 8.94062L12.9656 6.46563C13.1114 6.34603 13.2963 6.28491 13.4846 6.29416C13.6729 6.3034 13.851 6.38236 13.9843 6.51566C14.1176 6.64896 14.1966 6.82708 14.2058 7.01537C14.2151 7.20366 14.154 7.38865 14.0344 7.53437L11.5594 10L14.0344 12.4656Z" fill="#D8D8D8"/>
</svg>
