<svg xmlns="http://www.w3.org/2000/svg" width="20" height="21" fill="none"><path fill="#2D2D2D" fill-rule="evenodd" d="M1.957 2.664c0-.06.048-.109.108-.109h15.87c.06 0 .108.049.108.109V14.59c0 .06-.048.109-.108.109H8.552l-.29.439a.163.163 0 0 1-.018.023L5.15 18.407c-.027.028-.044.032-.054.034a.12.12 0 0 1-.065-.008.12.12 0 0 1-.053-.04c-.005-.007-.015-.022-.015-.061v-3.633H2.065a.109.109 0 0 1-.108-.109V2.664ZM2.065.599C.925.599 0 1.523 0 2.664V14.59c0 1.14.925 2.066 2.065 2.066h.942v1.676c0 1.864 2.275 2.774 3.56 1.424l2.955-3.1h8.413c1.14 0 2.065-.925 2.065-2.066V2.664c0-1.14-.925-2.065-2.065-2.065H2.065Zm3.272 9.11c-.607 0-1.099-.482-1.099-1.077 0-.594.492-1.076 1.1-1.076.606 0 1.098.482 1.098 1.076 0 .595-.492 1.077-1.099 1.077Zm4.554 0c-.607 0-1.1-.482-1.1-1.077 0-.594.493-1.076 1.1-1.076.607 0 1.099.482 1.099 1.076 0 .595-.492 1.077-1.1 1.077Zm4.553 0c-.607 0-1.1-.482-1.1-1.077 0-.594.493-1.076 1.1-1.076.607 0 1.099.482 1.099 1.076 0 .595-.492 1.077-1.1 1.077Z" clip-rule="evenodd"/></svg>