<svg width="16" height="16" viewBox="0 0 16 16" fill="none" xmlns="http://www.w3.org/2000/svg">
<path id="Union" d="M12.083 0.5C12.5431 0.5 12.9168 0.87292 12.917 1.33301V3.08398H14.667C15.127 3.08422 15.5 3.45788 15.5 3.91797V14.668C15.4998 15.1279 15.1269 15.5007 14.667 15.501H3.91699C3.45689 15.501 3.08323 15.128 3.08301 14.668V12.917H1.33301C0.87292 12.9168 0.5 12.5431 0.5 12.083V1.33301C0.500176 0.873029 0.873029 0.500176 1.33301 0.5H12.083ZM2 11.417H11.417V2H2V11.417ZM4.58301 14.001H14V4.58398H12.917V12.083C12.917 12.5432 12.5432 12.917 12.083 12.917H4.58301V14.001Z" fill="#2D2D2D"/>
</svg>
