<svg xmlns="http://www.w3.org/2000/svg" width="20" height="20" fill="none"><path fill="#2D2D2D" fill-rule="evenodd" d="M9.003 2.042C5.04 2.585 1.99 5.94 1.99 10c0 4.438 3.646 8.035 8.143 8.035a8.156 8.156 0 0 0 7.285-4.44c-.356.047-.719.072-1.087.072-4.512 0-8.17-3.61-8.17-8.062 0-1.278.303-2.489.84-3.563ZM0 10C0 4.477 4.537 0 10.134 0c.276 0 .55.01.82.032.372.03.697.263.84.604a.972.972 0 0 1-.163 1.013 6.021 6.021 0 0 0-1.477 3.956c0 3.367 2.766 6.097 6.178 6.097.816 0 1.591-.155 2.302-.437a1.005 1.005 0 0 1 1.024.17c.282.243.403.62.313.978C18.876 16.77 14.889 20 10.134 20 4.537 20 0 15.523 0 10Z" clip-rule="evenodd"/></svg>