<svg xmlns="http://www.w3.org/2000/svg" width="20" height="21" fill="none"><path fill="#F44336" fill-rule="evenodd" d="M6.222 4.278V2.5h7.556v1.778H6.222Zm-2 0V1.61C4.222.997 4.72.5 5.333.5h9.334c.613 0 1.11.497 1.11 1.111v2.667H19a1 1 0 1 1 0 2h-1.222v13.11c0 .615-.498 1.112-1.111 1.112H3.333a1.111 1.111 0 0 1-1.11-1.111V6.278H1a1 1 0 0 1 0-2H4.223Zm10.445 2H4.223V18.5h11.555V6.278h-1.111ZM7.889 9.056a1 1 0 0 1 1 1v4.666a1 1 0 1 1-2 0v-4.666a1 1 0 0 1 1-1Zm5.222 1a1 1 0 1 0-2 0v4.666a1 1 0 1 0 2 0v-4.666Z" clip-rule="evenodd"/></svg>