<svg width="16" height="16" viewBox="0 0 16 16" fill="none" xmlns="http://www.w3.org/2000/svg">
<path fill-rule="evenodd" clip-rule="evenodd" d="M5.16667 3.33333V2H10.8333V3.33333H5.16667ZM3.66667 3.33333V1.33333C3.66667 0.873088 4.03976 0.5 4.5 0.5H11.5C11.9602 0.5 12.3333 0.873088 12.3333 1.33333V3.33333H13H14.75C15.1642 3.33333 15.5 3.66913 15.5 4.08333C15.5 4.49754 15.1642 4.83333 14.75 4.83333H13.8333V14.6667C13.8333 15.1269 13.4602 15.5 13 15.5H3C2.53976 15.5 2.16667 15.1269 2.16667 14.6667V4.83333H1.25C0.835785 4.83333 0.5 4.49754 0.5 4.08333C0.5 3.66913 0.835785 3.33333 1.25 3.33333H3H3.66667ZM11.5 4.83333H4.5H3.66667V14H12.3333V4.83333H11.5ZM6.41667 6.91667C6.83088 6.91667 7.16667 7.25246 7.16667 7.66667V11.1667C7.16667 11.5809 6.83088 11.9167 6.41667 11.9167C6.00245 11.9167 5.66667 11.5809 5.66667 11.1667V7.66667C5.66667 7.25246 6.00245 6.91667 6.41667 6.91667ZM10.3333 7.66667C10.3333 7.25246 9.99755 6.91667 9.58333 6.91667C9.16912 6.91667 8.83333 7.25246 8.83333 7.66667V11.1667C8.83333 11.5809 9.16912 11.9167 9.58333 11.9167C9.99755 11.9167 10.3333 11.5809 10.3333 11.1667V7.66667Z" fill="#F44336"/>
</svg>
