<svg width="96" height="86" viewBox="0 0 96 86" fill="none" xmlns="http://www.w3.org/2000/svg">
<g id="Group">
<path id="Vector" fill-rule="evenodd" clip-rule="evenodd" d="M6.57534 0C2.94388 0 0 2.96181 0 6.61538V9.33331H38.4L34.818 3.67432C33.3694 1.38573 30.8594 0 28.1626 0H6.57534ZM89.4247 9.33331H0V32H96V15.9487C96 12.2952 93.0562 9.33331 89.4247 9.33331Z" fill="#FFBE78"/>
<path id="Vector_2" d="M89.4247 18.5938H6.57534C2.94388 18.5938 0 21.5587 0 25.2162V79.3767C0 83.0342 2.94388 85.9992 6.57534 85.9992H89.4247C93.0561 85.9992 96 83.0342 96 79.3767V25.2162C96 21.5587 93.0561 18.5938 89.4247 18.5938Z" fill="#FFF4E8"/>
</g>
</svg>
