<svg xmlns="http://www.w3.org/2000/svg" width="129" height="33" fill="none"><path fill="#FF8400" d="m27.92 19.469-3.109-6.652a9.232 9.232 0 0 0-2.79-3.46 9.415 9.415 0 0 0-6.37-1.902c-1.1.08-2.207.358-3.268.85A9.275 9.275 0 0 0 7.55 13.57a9.26 9.26 0 0 0 .313 7.132l.496 1.062a4.75 4.75 0 0 0 3.685-.802l-.846-1.81a5.61 5.61 0 0 1-.19-4.328 5.636 5.636 0 0 1 2.93-3.193 5.686 5.686 0 0 1 7.538 2.737l3.11 6.653a5.61 5.61 0 0 1 .19 4.327 5.632 5.632 0 0 1-2.934 3.193 5.68 5.68 0 0 1-7.447-2.556 10.152 10.152 0 0 1-3.485 1.241l.061.129c1.585 3.392 4.966 5.386 8.489 5.386a9.338 9.338 0 0 0 3.936-.872 9.285 9.285 0 0 0 4.837-5.267 9.26 9.26 0 0 0-.313-7.132Z"/><path fill="#FFA94C" fill-rule="evenodd" d="m6.545 8.148-2.519 6.908a5.666 5.666 0 0 0 3.392 7.264 5.678 5.678 0 0 0 7.273-3.387l2.519-6.909a5.666 5.666 0 0 0-3.392-7.263 5.678 5.678 0 0 0-7.273 3.387ZM3.085 6.89c1.769-4.847 7.138-7.35 11.993-5.583 4.854 1.765 7.36 7.127 5.591 11.975l-2.518 6.909c-1.768 4.846-7.138 7.349-11.993 5.583-4.853-1.766-7.36-7.127-5.59-11.976L3.085 6.89Z" clip-rule="evenodd"/><path fill="#2D2D2D" fill-rule="evenodd" d="M53.862 6.693a1.882 1.882 0 1 1 0 3.764 1.882 1.882 0 0 1 0-3.764Zm-13.81 2.904a1.626 1.626 0 0 0-3.252 0V24.365a2.28 2.28 0 0 0 2.28 2.281H48.609a1.626 1.626 0 1 0 0-3.253h-8.556V9.598Zm54.69 9.653c0-4.147 3.374-7.522 7.522-7.522s7.522 3.375 7.522 7.522c0 .568-.489.99-1.056.99H98.047a4.34 4.34 0 0 0 4.217 3.342 4.31 4.31 0 0 0 2.704-.951c.556-.446 1.274-.725 1.957-.522 1.042.31 1.506 1.523.731 2.286-1.417 1.396-3.374 2.378-5.392 2.378-4.148 0-7.522-3.375-7.522-7.523Zm7.521-4.33a4.336 4.336 0 0 0-3.992 2.65h7.983a4.335 4.335 0 0 0-3.991-2.65Zm23.543-1.7a1.52 1.52 0 1 1 2.946.753l-2.855 11.157a2.203 2.203 0 0 1-2.134 1.657h-.059a2.203 2.203 0 0 1-2.135-1.657l-1.77-6.92-1.742 6.81a2.35 2.35 0 0 1-2.277 1.767h-.059c-.94 0-1.76-.636-1.993-1.546l-2.882-11.268a1.52 1.52 0 1 1 2.946-.753l2.072 8.101 1.977-7.725a2.02 2.02 0 0 1 3.916 0l1.976 7.725 2.073-8.101Zm-44.385-.817c.302-.283.7-.44 1.114-.44 1.472 0 2.186 1.8 1.114 2.809l-4.492 4.225 4.36 5.095c.875 1.023.151 2.603-1.196 2.608a1.58 1.58 0 0 1-1.206-.553L76.85 21.17l-.419.393v3.485a1.626 1.626 0 1 1-3.252 0V9.597a1.626 1.626 0 1 1 3.252 0v7.5l4.99-4.694ZM55.49 25.047V13.588a1.626 1.626 0 1 0-3.253 0v11.46a1.626 1.626 0 1 0 3.253 0Zm9.992-13.085c-1.87 0-3.527.91-4.555 2.312v-.686a1.626 1.626 0 1 0-3.252 0v11.434a1.651 1.651 0 1 0 3.302 0v-6.446a3.421 3.421 0 1 1 6.843 0v6.444a1.654 1.654 0 0 0 3.307 0v-7.413a5.645 5.645 0 0 0-5.645-5.645Zm27.79-.08c.519.093.965.413 1.192.889a1.603 1.603 0 0 1 0 1.383 1.633 1.633 0 0 1-1.777.901c-.737-.026-1.484.15-2.083.576a3.021 3.021 0 0 0-1.262 2.442v6.997a1.694 1.694 0 1 1-3.39 0V13.49a1.664 1.664 0 1 1 3.328 0v.492c.599-.82 1.43-1.47 2.383-1.835.506-.192 1.064-.362 1.61-.264Z" clip-rule="evenodd"/></svg>