<svg xmlns="http://www.w3.org/2000/svg" width="25" height="24" fill="none"><path fill="#3D82F0" fill-rule="evenodd" d="M22.004 12.226c0-.702-.063-1.377-.18-2.025H12.5v3.829h5.328a4.558 4.558 0 0 1-1.975 2.989v2.483h3.199c1.872-1.723 2.952-4.261 2.952-7.276Z" clip-rule="evenodd"/><path fill="#31A752" fill-rule="evenodd" d="M12.5 21.9c2.673 0 4.913-.886 6.551-2.398l-3.199-2.485c-.886.594-2.02.945-3.352.945-2.579 0-4.761-1.741-5.54-4.08H3.652v2.565A9.898 9.898 0 0 0 12.5 21.9Z" clip-rule="evenodd"/><path fill="#F9BA00" fill-rule="evenodd" d="M6.96 13.881a5.952 5.952 0 0 1-.31-1.88c0-.653.112-1.288.31-1.882V7.554H3.652a9.906 9.906 0 0 0 0 8.893L6.96 13.88Z" clip-rule="evenodd"/><path fill="#E64234" fill-rule="evenodd" d="M12.5 6.038c1.453 0 2.758.5 3.784 1.48l2.84-2.838C17.409 3.08 15.168 2.1 12.5 2.1a9.897 9.897 0 0 0-8.848 5.455l3.308 2.564c.779-2.34 2.961-4.08 5.54-4.08Z" clip-rule="evenodd"/></svg>