<svg width="18" height="19" viewBox="0 0 18 19" fill="none" xmlns="http://www.w3.org/2000/svg">
<path fill-rule="evenodd" clip-rule="evenodd" d="M9.00017 3.15225C5.64505 3.15225 2.92519 5.87212 2.92519 9.22725C2.92519 12.5824 5.64505 15.3022 9.00017 15.3022C12.3553 15.3022 15.0751 12.5824 15.0751 9.22725C15.0751 5.87212 12.3553 3.15225 9.00017 3.15225ZM1.5752 9.22725C1.5752 5.12653 4.89947 1.80225 9.00017 1.80225C13.1009 1.80225 16.4251 5.12653 16.4251 9.22725C16.4251 13.328 13.1009 16.6522 9.00017 16.6522C4.89947 16.6522 1.5752 13.328 1.5752 9.22725Z" fill="#2D2D2D"/>
<path d="M9.75016 12.6022C9.75016 13.0165 9.41438 13.3522 9.00017 13.3522C8.58595 13.3522 8.25017 13.0165 8.25017 12.6022C8.25017 12.188 8.58595 11.8522 9.00017 11.8522C9.41438 11.8522 9.75016 12.188 9.75016 12.6022Z" fill="#2D2D2D"/>
<path fill-rule="evenodd" clip-rule="evenodd" d="M8.89866 5.17914C9.32797 5.16311 9.75665 5.24899 10.1439 5.43127C10.5313 5.61363 10.8677 5.88813 11.1155 6.23374C11.3636 6.57986 11.5134 6.98436 11.5442 7.40811C11.5751 7.832 11.4853 8.25352 11.2876 8.63037C11.0902 9.00666 10.7937 9.3226 10.4332 9.55239L10.4277 9.55592L10.422 9.55935C10.1829 9.70529 9.99045 9.89731 9.85578 10.1159C9.72411 10.3295 9.65029 10.5642 9.6361 10.8017V11.0085H8.28611V10.7669L8.28692 10.7503C8.31029 10.2751 8.45543 9.81506 8.70645 9.40767C8.95592 9.00281 9.30186 8.66283 9.71218 8.41104C9.8809 8.30242 10.0097 8.16036 10.0921 8.00321C10.175 7.84521 10.21 7.67437 10.1978 7.50605C10.1855 7.3376 10.1258 7.17019 10.0183 7.02036C9.91055 6.87002 9.75739 6.74141 9.56897 6.65273C9.38037 6.56395 9.1665 6.52008 8.94905 6.5282C8.73161 6.53632 8.52344 6.59594 8.34506 6.6975C8.1669 6.79894 8.02748 6.93688 7.93467 7.0926C7.84219 7.24776 7.79757 7.41751 7.80029 7.58607L6.45047 7.60788C6.44361 7.18298 6.55708 6.7671 6.77502 6.40144C6.99262 6.03634 7.30535 5.736 7.67709 5.52434C8.04861 5.31281 8.46935 5.19518 8.89866 5.17914Z" fill="#2D2D2D"/>
</svg>
