<svg xmlns="http://www.w3.org/2000/svg" width="678" height="282" fill="none"><g filter="url(#a)"><mask id="b" fill="#fff"><path d="M12.5 45.5c0-11.046 8.954-20 20-20h110c11.046 0 20 8.954 20 20v110c0 11.046-8.954 20-20 20h-110c-11.046 0-20-8.954-20-20v-110Z"/></mask><path fill="#fff" d="M12.5 45.5c0-11.046 8.954-20 20-20h110c11.046 0 20 8.954 20 20v110c0 11.046-8.954 20-20 20h-110c-11.046 0-20-8.954-20-20v-110Z"/><path fill="#FFBE19" d="M12.5 45.5c0-26.51 21.49-48 48-48h54c26.51 0 48 21.49 48 48v8h-150v-8Zm150 130h-150 150Zm-150 0v-150 150Zm150-150v150-150Z" mask="url(#b)"/></g><path fill="#D8D8D8" fill-rule="evenodd" d="M148 89.5H26.5v-2H148v2ZM148 115.5H26.5v-2H148v2ZM148 141.5H26.5v-2H148v2Z" clip-rule="evenodd"/><g filter="url(#c)"><path fill="#FF9320" d="M98.5 118.5c0-11.046 8.954-20 20-20h110c11.046 0 20 8.954 20 20v110c0 11.046-8.954 20-20 20h-110c-11.046 0-20-8.954-20-20v-110Z"/></g><path fill="#fff" fill-rule="evenodd" d="M173.5 210.5c29.271 0 53-16.789 53-37.5s-23.729-37.5-53-37.5-53 16.789-53 37.5c0 10.539 6.144 20.062 16.036 26.874l-5.338 10.56a3 3 0 0 0 .221 3.075l.116.166a3 3 0 0 0 4.179.735l12.21-8.558c7.583 2.962 16.301 4.648 25.576 4.648Z" clip-rule="evenodd"/><g filter="url(#d)"><path fill="#fff" fill-rule="evenodd" d="M626.5 8.5c5.523 0 10 4.477 10 10v65c0 5.523-4.477 10-10 10H329.234c-5.523 0-10-4.477-10-10V35.86a3.07 3.07 0 0 1-.694-.332l-12.663-8.142a3 3 0 0 1-1.377-2.524V24.5a3 3 0 0 1 3-3h11.734v-3c0-5.523 4.477-10 10-10H626.5Z" clip-rule="evenodd"/><path fill="#8E8E8E" d="m402.367 58.5-3.469-12.727h3.516l1.992 8.602h.117l2.086-8.602h3.446l2.109 8.555h.117l1.969-8.555h3.516L414.273 58.5h-3.656l-2.203-8.086h-.164l-2.203 8.086h-3.68Zm19.904 0-3.469-12.727h3.516l1.992 8.602h.117l2.086-8.602h3.446l2.109 8.555h.117l1.969-8.555h3.516L434.177 58.5h-3.656l-2.203-8.086h-.164l-2.203 8.086h-3.68Zm19.904 0-3.468-12.727h3.515l1.992 8.602h.118l2.085-8.602h3.446l2.109 8.555h.117l1.969-8.555h3.516L454.082 58.5h-3.657l-2.203-8.086h-.164l-2.203 8.086h-3.68Zm17.701.21c-1.101 0-1.992-.89-1.968-1.968-.024-1.078.867-1.945 1.968-1.945 1.032 0 1.946.867 1.946 1.945s-.914 1.969-1.946 1.969Zm8.443-17.179V58.5h-3.468V41.531h3.468Zm2.936 16.969V45.773h3.468V58.5h-3.468Zm1.734-14.39c-1.055 0-1.898-.797-1.898-1.758 0-.985.843-1.782 1.898-1.782 1.031 0 1.875.797 1.875 1.782 0 .96-.844 1.757-1.875 1.757Zm8.139 7.03v7.36h-3.469V45.773h3.304V48h.141c.586-1.477 1.945-2.39 3.82-2.39 2.649 0 4.407 1.804 4.383 4.78v8.11h-3.445V51c0-1.57-.867-2.508-2.297-2.508-1.453 0-2.437.961-2.437 2.649Zm11.115 7.36V41.531h3.468v9.117h.188l4.125-4.875h3.984l-4.734 5.508 4.992 7.219h-4.078l-3.492-5.18-.985 1.102V58.5h-3.468Zm15.661.21c-1.101 0-1.992-.89-1.968-1.968-.024-1.078.867-1.945 1.968-1.945 1.032 0 1.946.867 1.946 1.945s-.914 1.969-1.946 1.969Zm10.694.048c-3.891 0-6.235-2.696-6.235-6.586s2.367-6.563 6.235-6.563c3.281 0 5.507 1.922 5.648 4.828h-3.258c-.211-1.265-1.031-2.132-2.344-2.132-1.664 0-2.765 1.406-2.765 3.82 0 2.46 1.078 3.867 2.765 3.867 1.219 0 2.133-.75 2.344-2.11h3.258c-.164 2.884-2.273 4.876-5.648 4.876Zm13.763 0c-3.844 0-6.234-2.649-6.234-6.586 0-3.938 2.39-6.563 6.234-6.563s6.258 2.625 6.258 6.563c0 3.937-2.414 6.586-6.258 6.586Zm.023-2.696c1.782 0 2.696-1.664 2.696-3.89 0-2.25-.914-3.914-2.696-3.914-1.804 0-2.742 1.664-2.742 3.914 0 2.226.938 3.89 2.742 3.89Zm8.654 2.438V45.773h3.305V48h.141c.539-1.477 1.828-2.39 3.539-2.39 1.758 0 3.047.913 3.469 2.39h.117c.539-1.453 1.968-2.39 3.843-2.39 2.368 0 4.008 1.57 4.008 4.335V58.5h-3.468v-7.875c0-1.453-.844-2.156-1.993-2.156-1.312 0-2.062.914-2.062 2.25V58.5h-3.375v-7.969c0-1.265-.797-2.062-1.969-2.062-1.172 0-2.086.937-2.086 2.39V58.5h-3.469Zm28.67-17.766-5.484 20.32h-2.977l5.461-20.32h3Zm1.81 17.766V41.531h3.469v9.117h.188l4.125-4.875h3.984l-4.734 5.508 4.992 7.219h-4.078l-3.492-5.18-.985 1.102V58.5h-3.469Zm13.623 0V45.773h3.352v2.204h.14c.469-1.57 1.641-2.391 3.071-2.391.351 0 .797.047 1.101.117v3.094a6.473 6.473 0 0 0-1.476-.188c-1.571 0-2.719 1.102-2.719 2.649V58.5h-3.469Zm17.051-6.96c-.821 0-1.524-.68-1.5-1.524-.024-.82.679-1.5 1.5-1.5.82 0 1.5.68 1.5 1.5 0 .843-.68 1.523-1.5 1.523Zm6.093 0c-.82 0-1.523-.68-1.5-1.524-.023-.82.68-1.5 1.5-1.5.821 0 1.5.68 1.5 1.5 0 .843-.679 1.523-1.5 1.523Zm6.094 0c-.82 0-1.523-.68-1.5-1.524-.023-.82.68-1.5 1.5-1.5s1.5.68 1.5 1.5c0 .843-.68 1.523-1.5 1.523Z"/><path fill="#F8F8F8" d="M340.5 38.5c0-5.523 4.477-10 10-10h25c5.523 0 10 4.477 10 10v25c0 5.523-4.477 10-10 10h-25c-5.523 0-10-4.477-10-10v-25Z"/><path fill="#C6C6C6" d="m376.644 54.23-3.022-6.653a9.194 9.194 0 0 0-2.712-3.46 8.992 8.992 0 0 0-6.194-1.902 8.889 8.889 0 0 0-3.177.85c-2.2 1.053-3.869 2.922-4.7 5.264a9.501 9.501 0 0 0 .304 7.133l.483 1.061a4.516 4.516 0 0 0 3.582-.801l-.822-1.81a5.756 5.756 0 0 1-.185-4.329 5.578 5.578 0 0 1 2.849-3.193 5.34 5.34 0 0 1 2.45-.526 5.51 5.51 0 0 1 4.879 3.264l3.022 6.652a5.756 5.756 0 0 1 .185 4.328 5.577 5.577 0 0 1-2.852 3.193c-2.695 1.29-5.899.144-7.24-2.557a9.692 9.692 0 0 1-3.389 1.242l.06.128c1.541 3.392 4.828 5.386 8.253 5.386 1.284 0 2.59-.281 3.827-.871 2.202-1.056 3.871-2.924 4.703-5.267a9.507 9.507 0 0 0-.304-7.133Z"/><path fill="#E4E4E4" fill-rule="evenodd" d="m355.863 42.907-2.449 6.91c-1.042 2.938.435 6.191 3.298 7.263 2.861 1.07 6.028-.447 7.072-3.387l2.448-6.909c1.043-2.939-.434-6.192-3.297-7.263-2.861-1.07-6.029.446-7.072 3.386ZM352.5 41.65c1.719-4.847 6.939-7.35 11.66-5.584 4.718 1.766 7.155 7.127 5.435 11.976l-2.448 6.908c-1.719 4.847-6.939 7.35-11.66 5.584-4.718-1.766-7.155-7.127-5.436-11.976l2.449-6.908Z" clip-rule="evenodd"/></g><g opacity=".8"><path fill="#fff" fill-rule="evenodd" d="M355.5 105.5c-5.523 0-10 4.477-10 10v65c0 5.523 4.477 10 10 10h297.266c5.523 0 10-4.477 10-10v-47.639c.236-.079.469-.189.694-.333l12.663-8.142a3.001 3.001 0 0 0 1.377-2.524v-.362a3 3 0 0 0-3-3h-11.734v-3c0-5.523-4.477-10-10-10H355.5Z" clip-rule="evenodd"/><path fill="#8E8E8E" d="m427.367 155.5-3.469-12.727h3.516l1.992 8.602h.117l2.086-8.602h3.446l2.109 8.555h.117l1.969-8.555h3.516l-3.493 12.727h-3.656l-2.203-8.086h-.164l-2.203 8.086h-3.68Zm19.904 0-3.469-12.727h3.516l1.992 8.602h.117l2.086-8.602h3.446l2.109 8.555h.117l1.969-8.555h3.516l-3.493 12.727h-3.656l-2.203-8.086h-.164l-2.203 8.086h-3.68Zm19.904 0-3.468-12.727h3.515l1.992 8.602h.118l2.085-8.602h3.446l2.109 8.555h.117l1.969-8.555h3.516l-3.492 12.727h-3.657l-2.203-8.086h-.164l-2.203 8.086h-3.68Zm17.701.211c-1.101 0-1.992-.891-1.968-1.969-.024-1.078.867-1.945 1.968-1.945 1.032 0 1.946.867 1.946 1.945s-.914 1.969-1.946 1.969Zm8.443-17.18V155.5h-3.468v-16.969h3.468Zm2.936 16.969v-12.727h3.468V155.5h-3.468Zm1.734-14.391c-1.055 0-1.898-.797-1.898-1.757 0-.985.843-1.782 1.898-1.782 1.031 0 1.875.797 1.875 1.782 0 .96-.844 1.757-1.875 1.757Zm8.139 7.032v7.359h-3.469v-12.727h3.304V145h.141c.586-1.477 1.945-2.391 3.82-2.391 2.649 0 4.407 1.805 4.383 4.782v8.109h-3.445V148c0-1.57-.867-2.508-2.297-2.508-1.453 0-2.437.961-2.437 2.649Zm11.115 7.359v-16.969h3.468v9.117h.188l4.125-4.875h3.984l-4.734 5.508 4.992 7.219h-4.078l-3.492-5.18-.985 1.102v4.078h-3.468Zm15.661.211c-1.101 0-1.992-.891-1.968-1.969-.024-1.078.867-1.945 1.968-1.945 1.032 0 1.946.867 1.946 1.945s-.914 1.969-1.946 1.969Zm10.694.047c-3.891 0-6.235-2.696-6.235-6.586 0-3.891 2.367-6.563 6.235-6.563 3.281 0 5.507 1.922 5.648 4.829h-3.258c-.211-1.266-1.031-2.133-2.344-2.133-1.664 0-2.765 1.406-2.765 3.82 0 2.461 1.078 3.867 2.765 3.867 1.219 0 2.133-.75 2.344-2.109h3.258c-.164 2.883-2.273 4.875-5.648 4.875Zm13.763 0c-3.844 0-6.234-2.649-6.234-6.586 0-3.938 2.39-6.563 6.234-6.563s6.258 2.625 6.258 6.563c0 3.937-2.414 6.586-6.258 6.586Zm.023-2.696c1.782 0 2.696-1.664 2.696-3.89 0-2.25-.914-3.914-2.696-3.914-1.804 0-2.742 1.664-2.742 3.914 0 2.226.938 3.89 2.742 3.89Zm8.654 2.438v-12.727h3.305V145h.141c.539-1.477 1.828-2.391 3.539-2.391 1.758 0 3.047.914 3.469 2.391h.117c.539-1.453 1.968-2.391 3.843-2.391 2.368 0 4.008 1.571 4.008 4.336v8.555h-3.468v-7.875c0-1.453-.844-2.156-1.993-2.156-1.312 0-2.062.914-2.062 2.25v7.781h-3.375v-7.969c0-1.265-.797-2.062-1.969-2.062-1.172 0-2.086.937-2.086 2.39v7.641h-3.469Zm28.67-17.766-5.484 20.321h-2.977l5.461-20.321h3Zm1.81 17.766v-16.969h3.469v9.117h.188l4.125-4.875h3.984l-4.734 5.508 4.992 7.219h-4.078l-3.492-5.18-.985 1.102v4.078h-3.469Zm13.623 0v-12.727h3.352v2.204h.14c.469-1.571 1.641-2.391 3.071-2.391.351 0 .797.047 1.101.117v3.094a6.46 6.46 0 0 0-1.476-.188c-1.571 0-2.719 1.102-2.719 2.649v7.242h-3.469Zm17.051-6.961c-.821 0-1.524-.68-1.5-1.523-.024-.821.679-1.5 1.5-1.5.82 0 1.5.679 1.5 1.5 0 .843-.68 1.523-1.5 1.523Zm6.093 0c-.82 0-1.523-.68-1.5-1.523-.023-.821.68-1.5 1.5-1.5.821 0 1.5.679 1.5 1.5 0 .843-.679 1.523-1.5 1.523Zm6.094 0c-.82 0-1.523-.68-1.5-1.523-.023-.821.68-1.5 1.5-1.5s1.5.679 1.5 1.5c0 .843-.68 1.523-1.5 1.523Z"/><path fill="#F8F8F8" d="M365.5 135.5c0-5.523 4.477-10 10-10h25c5.523 0 10 4.477 10 10v25c0 5.523-4.477 10-10 10h-25c-5.523 0-10-4.477-10-10v-25Z"/><path fill="#C6C6C6" d="m401.644 151.229-3.022-6.652a9.195 9.195 0 0 0-2.712-3.459 8.99 8.99 0 0 0-6.194-1.903 8.89 8.89 0 0 0-3.177.851c-2.2 1.052-3.869 2.921-4.7 5.263a9.503 9.503 0 0 0 .304 7.133l.483 1.061a4.517 4.517 0 0 0 3.582-.801l-.822-1.811a5.756 5.756 0 0 1-.185-4.328 5.58 5.58 0 0 1 2.849-3.193 5.348 5.348 0 0 1 2.45-.526 5.511 5.511 0 0 1 4.879 3.264l3.022 6.652a5.757 5.757 0 0 1 .185 4.328 5.576 5.576 0 0 1-2.852 3.193c-2.695 1.291-5.899.144-7.24-2.557a9.694 9.694 0 0 1-3.389 1.242l.06.128c1.541 3.392 4.828 5.386 8.253 5.386 1.284 0 2.59-.281 3.827-.871 2.202-1.056 3.871-2.924 4.703-5.267a9.509 9.509 0 0 0-.304-7.133Z"/><path fill="#E4E4E4" fill-rule="evenodd" d="m380.863 139.908-2.449 6.908c-1.042 2.939.435 6.192 3.298 7.264 2.861 1.07 6.028-.447 7.072-3.387v-.001l2.448-6.908c1.043-2.939-.434-6.192-3.297-7.263-2.861-1.071-6.029.446-7.072 3.387Zm-3.363-1.259c1.719-4.846 6.939-7.349 11.66-5.583 4.718 1.766 7.155 7.127 5.435 11.976l-2.448 6.908v.001c-1.719 4.846-6.939 7.349-11.66 5.583-4.718-1.766-7.155-7.127-5.436-11.976l2.449-6.909Z" clip-rule="evenodd"/></g><g filter="url(#e)"><path fill="#fff" d="M297.5 190.5c0-5.523 4.477-10 10-10h297.266c5.523 0 10 4.477 10 10v65c0 5.523-4.477 10-10 10H307.5c-5.523 0-10-4.477-10-10v-65Z"/><path fill="#8E8E8E" d="m379.367 230.5-3.469-12.727h3.516l1.992 8.602h.117l2.086-8.602h3.446l2.109 8.555h.117l1.969-8.555h3.516l-3.493 12.727h-3.656l-2.203-8.086h-.164l-2.203 8.086h-3.68Zm19.904 0-3.469-12.727h3.516l1.992 8.602h.117l2.086-8.602h3.446l2.109 8.555h.117l1.969-8.555h3.516l-3.493 12.727h-3.656l-2.203-8.086h-.164l-2.203 8.086h-3.68Zm19.904 0-3.468-12.727h3.515l1.992 8.602h.118l2.085-8.602h3.446l2.109 8.555h.117l1.969-8.555h3.516l-3.492 12.727h-3.657l-2.203-8.086h-.164l-2.203 8.086h-3.68Zm17.701.211c-1.101 0-1.992-.891-1.968-1.969-.024-1.078.867-1.945 1.968-1.945 1.032 0 1.946.867 1.946 1.945s-.914 1.969-1.946 1.969Zm8.443-17.18V230.5h-3.468v-16.969h3.468Zm2.936 16.969v-12.727h3.468V230.5h-3.468Zm1.734-14.391c-1.055 0-1.898-.797-1.898-1.757 0-.985.843-1.782 1.898-1.782 1.031 0 1.875.797 1.875 1.782 0 .96-.844 1.757-1.875 1.757Zm8.139 7.032v7.359h-3.469v-12.727h3.304V220h.141c.586-1.477 1.945-2.391 3.82-2.391 2.649 0 4.407 1.805 4.383 4.782v8.109h-3.445V223c0-1.57-.867-2.508-2.297-2.508-1.453 0-2.437.961-2.437 2.649Zm11.115 7.359v-16.969h3.468v9.117h.188l4.125-4.875h3.984l-4.734 5.508 4.992 7.219h-4.078l-3.492-5.18-.985 1.102v4.078h-3.468Zm15.661.211c-1.101 0-1.992-.891-1.968-1.969-.024-1.078.867-1.945 1.968-1.945 1.032 0 1.946.867 1.946 1.945s-.914 1.969-1.946 1.969Zm10.694.047c-3.891 0-6.235-2.696-6.235-6.586 0-3.891 2.367-6.563 6.235-6.563 3.281 0 5.507 1.922 5.648 4.829h-3.258c-.211-1.266-1.031-2.133-2.344-2.133-1.664 0-2.765 1.406-2.765 3.82 0 2.461 1.078 3.867 2.765 3.867 1.219 0 2.133-.75 2.344-2.109h3.258c-.164 2.883-2.273 4.875-5.648 4.875Zm13.763 0c-3.844 0-6.234-2.649-6.234-6.586 0-3.938 2.39-6.563 6.234-6.563s6.258 2.625 6.258 6.563c0 3.937-2.414 6.586-6.258 6.586Zm.023-2.696c1.782 0 2.696-1.664 2.696-3.89 0-2.25-.914-3.914-2.696-3.914-1.804 0-2.742 1.664-2.742 3.914 0 2.226.938 3.89 2.742 3.89Zm8.654 2.438v-12.727h3.305V220h.141c.539-1.477 1.828-2.391 3.539-2.391 1.758 0 3.047.914 3.469 2.391h.117c.539-1.453 1.968-2.391 3.843-2.391 2.368 0 4.008 1.571 4.008 4.336v8.555h-3.468v-7.875c0-1.453-.844-2.156-1.993-2.156-1.312 0-2.062.914-2.062 2.25v7.781h-3.375v-7.969c0-1.265-.797-2.062-1.969-2.062-1.172 0-2.086.937-2.086 2.39v7.641h-3.469Zm28.67-17.766-5.484 20.321h-2.977l5.461-20.321h3Zm1.81 17.766v-16.969h3.469v9.117h.188l4.125-4.875h3.984l-4.734 5.508 4.992 7.219h-4.078l-3.492-5.18-.985 1.102v4.078h-3.469Zm13.623 0v-12.727h3.352v2.204h.14c.469-1.571 1.641-2.391 3.071-2.391.351 0 .797.047 1.101.117v3.094a6.46 6.46 0 0 0-1.476-.188c-1.571 0-2.719 1.102-2.719 2.649v7.242h-3.469Zm17.051-6.961c-.821 0-1.524-.68-1.5-1.523-.024-.821.679-1.5 1.5-1.5.82 0 1.5.679 1.5 1.5 0 .843-.68 1.523-1.5 1.523Zm6.093 0c-.82 0-1.523-.68-1.5-1.523-.023-.821.68-1.5 1.5-1.5.821 0 1.5.679 1.5 1.5 0 .843-.679 1.523-1.5 1.523Zm6.094 0c-.82 0-1.523-.68-1.5-1.523-.023-.821.68-1.5 1.5-1.5s1.5.679 1.5 1.5c0 .843-.68 1.523-1.5 1.523Z"/><path fill="#F8F8F8" d="M317.5 210.5c0-5.523 4.477-10 10-10h25c5.523 0 10 4.477 10 10v25c0 5.523-4.477 10-10 10h-25c-5.523 0-10-4.477-10-10v-25Z"/><path fill="#C6C6C6" d="m353.644 226.229-3.022-6.652a9.195 9.195 0 0 0-2.712-3.459 8.99 8.99 0 0 0-6.194-1.903 8.89 8.89 0 0 0-3.177.851c-2.2 1.052-3.869 2.921-4.7 5.263a9.503 9.503 0 0 0 .304 7.133l.483 1.061a4.517 4.517 0 0 0 3.582-.801l-.822-1.811a5.756 5.756 0 0 1-.185-4.328 5.58 5.58 0 0 1 2.849-3.193 5.348 5.348 0 0 1 2.45-.526 5.511 5.511 0 0 1 4.879 3.264l3.022 6.652a5.757 5.757 0 0 1 .185 4.328 5.576 5.576 0 0 1-2.852 3.193c-2.695 1.291-5.899.144-7.24-2.557a9.694 9.694 0 0 1-3.389 1.242l.06.128c1.541 3.392 4.828 5.386 8.253 5.386 1.284 0 2.59-.281 3.827-.871 2.202-1.056 3.871-2.924 4.703-5.267a9.509 9.509 0 0 0-.304-7.133Z"/><path fill="#E4E4E4" fill-rule="evenodd" d="m332.863 214.908-2.449 6.908c-1.042 2.939.435 6.192 3.298 7.264 2.861 1.07 6.028-.447 7.072-3.387v-.001l2.448-6.908c1.043-2.939-.434-6.192-3.297-7.263-2.861-1.071-6.029.446-7.072 3.387Zm-3.363-1.259c1.719-4.846 6.939-7.349 11.66-5.583 4.718 1.766 7.155 7.127 5.435 11.976l-2.448 6.908v.001c-1.719 4.846-6.939 7.349-11.66 5.583-4.718-1.766-7.155-7.127-5.436-11.976l2.449-6.909Z" clip-rule="evenodd"/></g><defs><filter id="a" width="174" height="174" x=".5" y="17.5" color-interpolation-filters="sRGB" filterUnits="userSpaceOnUse"><feFlood flood-opacity="0" result="BackgroundImageFix"/><feColorMatrix in="SourceAlpha" result="hardAlpha" values="0 0 0 0 0 0 0 0 0 0 0 0 0 0 0 0 0 0 127 0"/><feOffset dy="4"/><feGaussianBlur stdDeviation="6"/><feComposite in2="hardAlpha" operator="out"/><feColorMatrix values="0 0 0 0 0 0 0 0 0 0 0 0 0 0 0 0 0 0 0.12 0"/><feBlend in2="BackgroundImageFix" result="effect1_dropShadow_702_18096"/><feBlend in="SourceGraphic" in2="effect1_dropShadow_702_18096" result="shape"/></filter><filter id="c" width="174" height="174" x="86.5" y="90.5" color-interpolation-filters="sRGB" filterUnits="userSpaceOnUse"><feFlood flood-opacity="0" result="BackgroundImageFix"/><feColorMatrix in="SourceAlpha" result="hardAlpha" values="0 0 0 0 0 0 0 0 0 0 0 0 0 0 0 0 0 0 127 0"/><feOffset dy="4"/><feGaussianBlur stdDeviation="6"/><feComposite in2="hardAlpha" operator="out"/><feColorMatrix values="0 0 0 0 0 0 0 0 0 0 0 0 0 0 0 0 0 0 0.12 0"/><feBlend in2="BackgroundImageFix" result="effect1_dropShadow_702_18096"/><feBlend in="SourceGraphic" in2="effect1_dropShadow_702_18096" result="shape"/></filter><filter id="d" width="356" height="109" x="292.5" y=".5" color-interpolation-filters="sRGB" filterUnits="userSpaceOnUse"><feFlood flood-opacity="0" result="BackgroundImageFix"/><feColorMatrix in="SourceAlpha" result="hardAlpha" values="0 0 0 0 0 0 0 0 0 0 0 0 0 0 0 0 0 0 127 0"/><feOffset dy="4"/><feGaussianBlur stdDeviation="6"/><feComposite in2="hardAlpha" operator="out"/><feColorMatrix values="0 0 0 0 0 0 0 0 0 0 0 0 0 0 0 0 0 0 0.12 0"/><feBlend in2="BackgroundImageFix" result="effect1_dropShadow_702_18096"/><feBlend in="SourceGraphic" in2="effect1_dropShadow_702_18096" result="shape"/></filter><filter id="e" width="341.267" height="109" x="285.5" y="172.5" color-interpolation-filters="sRGB" filterUnits="userSpaceOnUse"><feFlood flood-opacity="0" result="BackgroundImageFix"/><feColorMatrix in="SourceAlpha" result="hardAlpha" values="0 0 0 0 0 0 0 0 0 0 0 0 0 0 0 0 0 0 127 0"/><feOffset dy="4"/><feGaussianBlur stdDeviation="6"/><feComposite in2="hardAlpha" operator="out"/><feColorMatrix values="0 0 0 0 0 0 0 0 0 0 0 0 0 0 0 0 0 0 0.12 0"/><feBlend in2="BackgroundImageFix" result="effect1_dropShadow_702_18096"/><feBlend in="SourceGraphic" in2="effect1_dropShadow_702_18096" result="shape"/></filter></defs></svg>