<svg width="18" height="18" viewBox="0 0 18 18" fill="none" xmlns="http://www.w3.org/2000/svg">
<path d="M8.30169 13.1C8.37401 13.1752 8.43139 13.2646 8.47054 13.3631C8.50969 13.4615 8.52984 13.5671 8.52984 13.6737C8.52984 13.7803 8.50969 13.8859 8.47054 13.9843C8.43139 14.0828 8.37401 14.1722 8.30169 14.2474L7.97071 14.593C7.61938 14.9613 7.20161 15.2531 6.74159 15.4517C6.28156 15.6503 5.78839 15.7517 5.2906 15.75C4.54096 15.7502 3.80808 15.5183 3.18469 15.0835C2.56131 14.6488 2.07543 14.0307 1.78852 13.3075C1.50161 12.5844 1.42656 11.7886 1.57288 11.0209C1.71919 10.2532 2.08029 9.54801 2.61049 8.99464L3.73367 7.82183L4.85685 6.64903C5.33465 6.15019 5.93145 5.79377 6.58548 5.61666C7.23951 5.43956 7.92698 5.4482 8.57674 5.6417C9.22649 5.8352 9.8149 6.20653 10.2811 6.71724C10.7472 7.22795 11.0742 7.85947 11.2281 8.54644C11.2536 8.65089 11.2589 8.7596 11.2436 8.86621C11.2283 8.97281 11.1928 9.07516 11.1392 9.16726C11.0856 9.25936 11.0149 9.33936 10.9313 9.40257C10.8477 9.46578 10.7528 9.51092 10.6523 9.53536C10.5517 9.5598 10.4475 9.56303 10.3458 9.54488C10.244 9.52673 10.1468 9.48756 10.0597 9.42966C9.97262 9.37175 9.89749 9.29629 9.83871 9.20768C9.77993 9.11907 9.73868 9.0191 9.71738 8.91364C9.62605 8.50812 9.43265 8.13543 9.15717 7.83411C8.8817 7.53278 8.53415 7.31374 8.15046 7.19965C7.76676 7.08555 7.36084 7.08053 6.97467 7.18511C6.58849 7.28968 6.23607 7.50006 5.95384 7.7945L3.70749 10.1401C3.39436 10.4668 3.18105 10.8831 3.09453 11.3364C3.00801 11.7897 3.05217 12.2596 3.22142 12.6867C3.39067 13.1138 3.67741 13.4788 4.04538 13.7358C4.41335 13.9927 4.84602 14.1299 5.28866 14.13C5.58278 14.1309 5.87414 14.0709 6.14589 13.9534C6.41763 13.8359 6.66436 13.6633 6.87178 13.4455L7.20211 13.1C7.27418 13.0243 7.35986 12.9643 7.45421 12.9234C7.54856 12.8825 7.64972 12.8614 7.7519 12.8614C7.85407 12.8614 7.95524 12.8825 8.04959 12.9234C8.14394 12.9643 8.22961 13.0243 8.30169 13.1ZM15.3898 3.40906C14.6788 2.66691 13.7147 2.25 12.7094 2.25C11.7041 2.25 10.7399 2.66691 10.029 3.40906L9.69863 3.75398C9.5529 3.90615 9.47103 4.11253 9.47103 4.32773C9.47103 4.54292 9.5529 4.7493 9.69863 4.90147C9.84436 5.05364 10.042 5.13912 10.2481 5.13912C10.4542 5.13912 10.6518 5.05364 10.7976 4.90147L11.1285 4.55587C11.5486 4.11728 12.1183 3.87087 12.7123 3.87087C13.3063 3.87087 13.876 4.11728 14.2961 4.55587C14.7161 4.99447 14.9521 5.58934 14.9521 6.20961C14.9521 6.82988 14.7161 7.42475 14.2961 7.86335L12.0458 10.2056C11.8384 10.4233 11.5917 10.5959 11.3199 10.7134C11.0482 10.8309 10.7568 10.8909 10.4627 10.89C9.95817 10.8896 9.46854 10.7113 9.07323 10.3839C8.67793 10.0566 8.40013 9.59934 8.28488 9.08643C8.23825 8.87716 8.11391 8.6958 7.93922 8.58225C7.76452 8.46871 7.55379 8.43227 7.35337 8.48096C7.15295 8.52966 6.97927 8.65949 6.87052 8.8419C6.76178 9.02431 6.72689 9.24436 6.77352 9.45363C6.96817 10.3223 7.43812 11.0968 8.10717 11.6515C8.77622 12.2063 9.60514 12.5088 10.4595 12.51H10.4627C10.9607 12.5114 11.4541 12.4097 11.9142 12.2108C12.3744 12.0119 12.7922 11.7196 13.1435 11.351L15.3898 9.00544C15.7418 8.638 16.021 8.20177 16.2115 7.72165C16.402 7.24153 16.5 6.72693 16.5 6.20725C16.5 5.68756 16.402 5.17296 16.2115 4.69284C16.021 4.21273 15.7418 3.77649 15.3898 3.40906Z" fill="#2D2D2D"/>
</svg>
