<svg width="18" height="18" viewBox="0 0 18 18" fill="none" xmlns="http://www.w3.org/2000/svg">
<path d="M9.16797 1.5C11.9638 1.5 14.2302 3.61524 14.2305 6.22461V7.7998H14.9062C15.3722 7.7998 15.75 8.15297 15.75 8.58789V16.4629C15.7498 16.8976 15.3721 17.25 14.9062 17.25H3.09375C2.6279 17.25 2.25023 16.8976 2.25 16.4629V8.58789C2.25 8.15297 2.62776 7.7998 3.09375 7.7998H3.76855V6.22461C3.76878 3.61524 6.03525 1.5 8.83105 1.5H9.16797ZM3.76855 15.832H14.2314V9.21777H3.76855V15.832ZM9.00098 10.9502C9.42032 10.9502 9.76074 11.2678 9.76074 11.6592V13.3916C9.76054 13.7828 9.4202 14.0996 9.00098 14.0996C8.58171 14.0996 8.24141 13.7829 8.24121 13.3916V11.6592C8.24121 11.2677 8.58159 10.9502 9.00098 10.9502ZM8.83105 2.91797C6.87403 2.91797 5.28734 4.39811 5.28711 6.22461V7.7998H12.7119V6.22461C12.7117 4.39811 11.125 2.91797 9.16797 2.91797H8.83105Z" fill="#2D2D2D"/>
</svg>
