<svg xmlns="http://www.w3.org/2000/svg" width="72" height="72" fill="none"><path fill="#FF8400" d="M61.431 0H10.57C4.732 0 0 4.732 0 10.569V61.43C0 67.268 4.732 72 10.569 72H61.43C67.268 72 72 67.268 72 61.431V10.57C72 4.732 67.268 0 61.431 0Z"/><path fill="#FFD4A6" d="m59.592 42.574-5.285-11.47a15.875 15.875 0 0 0-4.742-5.964 15.86 15.86 0 0 0-9.688-3.322 15.723 15.723 0 0 0-6.697 1.508c-3.846 1.814-6.764 5.036-8.218 9.075a16.172 16.172 0 0 0 .531 12.298l.845 1.83a7.985 7.985 0 0 0 6.264-1.382l-1.439-3.122a9.799 9.799 0 0 1-.323-7.462 9.668 9.668 0 0 1 4.982-5.505 9.449 9.449 0 0 1 4.284-.907 9.648 9.648 0 0 1 8.531 5.627l5.285 11.469a9.8 9.8 0 0 1 .323 7.462 9.66 9.66 0 0 1-4.988 5.505c-4.71 2.225-10.313.248-12.658-4.408a17.1 17.1 0 0 1-5.925 2.14l.104.222a15.903 15.903 0 0 0 14.43 9.286 15.69 15.69 0 0 0 6.692-1.503c3.85-1.819 6.77-5.04 8.223-9.08a16.174 16.174 0 0 0-.531-12.297Z"/><path fill="#FFF4E8" fill-rule="evenodd" d="m22.34 21.985-4.4 12.365c-1.872 5.26.78 11.082 5.924 13 5.14 1.916 10.83-.799 12.704-6.062l4.399-12.364c1.872-5.26-.78-11.083-5.924-13-5.14-1.916-10.83.798-12.703 6.061Zm-6.042-2.251C19.386 11.059 28.764 6.58 37.244 9.74c8.476 3.16 12.853 12.756 9.765 21.434l-4.4 12.364c-3.088 8.675-12.465 13.154-20.945 9.993-8.477-3.16-12.854-12.756-9.765-21.433v-.001l4.399-12.364Z" clip-rule="evenodd"/></svg>