<svg width="122" height="123" viewBox="0 0 122 123" fill="none" xmlns="http://www.w3.org/2000/svg">
<rect y="0.414062" width="122" height="122" rx="20" fill="#FF8400"/>
<path d="M100.981 70.7044L92.027 51.2702C90.1284 47.151 87.338 43.7377 83.9913 41.1644C79.2934 37.5277 73.5007 35.5352 67.5754 35.5352C66.9308 35.5352 66.2862 35.562 65.6416 35.6066C62.4714 35.839 59.2836 36.6521 56.2283 38.0906C49.7114 41.1644 44.7664 46.6238 42.3027 53.4683C39.8478 60.3127 40.1657 67.7111 43.2034 74.3053L44.6339 77.4058C48.4133 78.1653 52.2458 77.245 55.2481 75.0648L52.8109 69.7751C50.9653 65.7721 50.7711 61.2866 52.2634 57.1317C53.7558 52.9857 56.7581 49.6708 60.7053 47.8033C63.0542 46.6953 65.5356 46.2039 67.964 46.2664C73.6684 46.4004 79.108 49.5635 81.9691 54.8979C82.128 55.1928 82.2781 55.4966 82.4194 55.8004L91.3735 75.2346C93.2191 79.2376 93.4134 83.732 91.921 87.878C90.4287 92.024 87.4263 95.3389 83.4703 97.2064C75.4875 100.977 65.9948 97.6264 62.0211 89.7365C58.9481 91.5415 55.5572 92.7835 51.9808 93.3643L52.1575 93.7395C56.7228 103.649 66.4628 109.475 76.609 109.475C80.4149 109.475 84.2827 108.653 87.9473 106.928C94.473 103.845 99.4181 98.3859 101.882 91.5415C104.337 84.706 104.019 77.3076 100.981 70.7044Z" fill="#FFD4A6"/>
<path fill-rule="evenodd" clip-rule="evenodd" d="M37.8542 35.8178C37.8541 35.8181 37.854 35.8185 37.8539 35.8188L30.4 56.7694C27.2272 65.6822 31.7223 75.5476 40.4379 78.7965C49.1474 82.0432 58.7877 77.4437 61.963 68.5256C61.9631 68.5252 61.9632 68.5249 61.9633 68.5246L69.4169 47.575L69.4173 47.574C72.5901 38.6612 68.095 28.7958 59.3793 25.5469C50.6699 22.3002 41.0295 26.8996 37.8542 35.8178ZM27.6171 32.0028C32.8494 17.3045 48.7391 9.71492 63.1084 15.0714C77.4716 20.4255 84.8883 36.6851 79.6545 51.3891C79.6543 51.3894 79.6542 51.3897 79.6541 51.39L72.2005 72.3397L72.2002 72.3406C66.9679 87.0389 51.0781 94.6285 36.7088 89.272C22.3457 83.9178 14.929 67.6583 20.1628 52.9543C20.1629 52.954 20.163 52.9537 20.1631 52.9534L27.6171 32.0028Z" fill="#FFF4E8"/>
</svg>
