<svg width="18" height="18" viewBox="0 0 18 18" fill="none" xmlns="http://www.w3.org/2000/svg">
<path d="M14.9512 1.57422C15.8066 1.57429 16.5 2.26762 16.5 3.12305V12.0674C16.5 12.9228 15.8066 13.6161 14.9512 13.6162H8.6416L6.42578 15.9424C5.46143 16.9544 3.75609 16.2719 3.75586 14.874V13.6162H3.04883C2.19342 13.6161 1.5 12.9228 1.5 12.0674V3.12305C1.5 2.26762 2.19342 1.57429 3.04883 1.57422H14.9512ZM3.04883 3.04102C3.00386 3.04109 2.96777 3.07807 2.96777 3.12305V12.0674C2.96777 12.1124 3.00386 12.1493 3.04883 12.1494H5.22266V14.874C5.2227 14.9028 5.23029 14.9142 5.23438 14.9199C5.24095 14.9291 5.25415 14.9411 5.27441 14.9492C5.2946 14.9573 5.31218 14.9582 5.32324 14.9561C5.33015 14.9547 5.34317 14.9508 5.36328 14.9297L7.68262 12.4951C7.68904 12.4884 7.69343 12.4828 7.69629 12.4785L7.91406 12.1494H14.9512C14.9961 12.1493 15.0322 12.1124 15.0322 12.0674V3.12305C15.0322 3.07807 14.9961 3.04109 14.9512 3.04102H3.04883ZM5.47559 6.79199C5.93083 6.79199 6.2998 7.15365 6.2998 7.59961C6.29958 8.04538 5.93069 8.40625 5.47559 8.40625C5.02051 8.40621 4.65159 8.04535 4.65137 7.59961C4.65137 7.15368 5.02037 6.79203 5.47559 6.79199ZM8.89062 6.79199C9.34587 6.792 9.71484 7.15365 9.71484 7.59961C9.71462 8.04538 9.34573 8.40625 8.89062 8.40625C8.43552 8.40625 8.06663 8.04538 8.06641 7.59961C8.06641 7.15365 8.43538 6.79199 8.89062 6.79199ZM12.3057 6.79199C12.7609 6.79204 13.1299 7.15368 13.1299 7.59961C13.1297 8.04535 12.7607 8.40621 12.3057 8.40625C11.8506 8.40625 11.4817 8.04538 11.4814 7.59961C11.4814 7.15365 11.8504 6.79199 12.3057 6.79199Z" fill="#2D2D2D"/>
</svg>
