<svg width="20" height="20" viewBox="0 0 20 20" fill="none" xmlns="http://www.w3.org/2000/svg">
<path d="M15.7611 2.79884C16.1588 2.40112 16.8038 2.40112 17.2015 2.79884C17.5992 3.19657 17.5992 3.84157 17.2015 4.23927L11.4398 10L17.2006 15.7608C17.5983 16.1585 17.5983 16.8035 17.2006 17.2012C16.8028 17.5987 16.1588 17.5988 15.7611 17.2012L9.99938 11.4404L4.23962 17.2012C3.84192 17.5989 3.19692 17.5988 2.79919 17.2012C2.40147 16.8035 2.40147 16.1585 2.79919 15.7608L8.55895 10L2.79821 4.23927C2.40054 3.8416 2.40065 3.19657 2.79821 2.79884C3.19593 2.40112 3.84092 2.40112 4.23864 2.79884L9.99938 8.55958L15.7611 2.79884Z" fill="#C6C6C6"/>
</svg>
