<svg width="18" height="18" viewBox="0 0 18 18" fill="none" xmlns="http://www.w3.org/2000/svg">
<path d="M13.2227 1.51782C13.6815 1.51805 14.0536 1.88999 14.0537 2.34888V4.50024H12.5576V3.01392H2.99609V14.9856H12.5576V13.5002H14.0537V15.6506C14.0537 16.1096 13.6816 16.4824 13.2227 16.4827H2.33105C1.87205 16.4825 1.5 16.1097 1.5 15.6506V2.34888C1.50014 1.88995 1.87214 1.51799 2.33105 1.51782H13.2227ZM12.7539 5.95435C13.0461 5.66232 13.5204 5.6622 13.8125 5.95435L16.2812 8.42407C16.4303 8.57326 16.5012 8.76967 16.498 8.96509C16.5012 9.16065 16.4305 9.35786 16.2812 9.50708L13.8125 11.9758C13.5204 12.2679 13.0461 12.2678 12.7539 11.9758C12.4617 11.6837 12.4618 11.2094 12.7539 10.9172L13.9219 9.74927H8.89941C8.48632 9.74918 8.15148 9.41333 8.15137 9.00024C8.15162 8.58728 8.48641 8.25228 8.89941 8.2522H13.9932L12.7539 7.01294C12.4617 6.72077 12.4618 6.24656 12.7539 5.95435Z" fill="#F44336"/>
</svg>
