<svg width="20" height="20" viewBox="0 0 20 20" fill="none" xmlns="http://www.w3.org/2000/svg">
<path id="Union" fill-rule="evenodd" clip-rule="evenodd" d="M9.00001 19C9.00001 19.5523 9.44773 20 10 20C10.5523 20 11 19.5523 11 19V11.0004H19C19.5523 11.0004 20 10.5527 20 10.0004C20 9.44812 19.5523 9.0004 19 9.0004H11V1C11 0.447715 10.5523 0 10 0C9.44773 0 9.00001 0.447715 9.00001 1V9.0004H1C0.447715 9.0004 0 9.44812 0 10.0004C0 10.5527 0.447715 11.0004 1 11.0004H9.00001V19Z" fill="currentColor"/>
</svg>
