<svg width="25" height="24" viewBox="0 0 25 24" fill="none" xmlns="http://www.w3.org/2000/svg">
<path fill-rule="evenodd" clip-rule="evenodd" d="M17.6634 10.5294C17.6634 14.1932 14.6932 17.1634 11.0294 17.1634C7.36555 17.1634 4.39542 14.1932 4.39542 10.5294C4.39542 6.86555 7.36555 3.89542 11.0294 3.89542C14.6932 3.89542 17.6634 6.86555 17.6634 10.5294ZM16.3533 17.1937C14.8941 18.3608 13.0433 19.0588 11.0294 19.0588C6.31874 19.0588 2.5 15.24 2.5 10.5294C2.5 5.81874 6.31874 2 11.0294 2C15.74 2 19.5588 5.81874 19.5588 10.5294C19.5588 12.5433 18.8608 14.3942 17.6935 15.8534L22.2224 20.3822C22.5925 20.7523 22.5925 21.3524 22.2224 21.7225C21.8523 22.0926 21.2522 22.0926 20.8821 21.7225L16.3533 17.1937Z" fill="#C6C6C6"/>
</svg>
