<svg width="18" height="18" viewBox="0 0 18 18" fill="none" xmlns="http://www.w3.org/2000/svg">
<path fill-rule="evenodd" clip-rule="evenodd" d="M7.20582 1.54955C7.78284 1.41897 8.38355 1.3501 8.99989 1.3501C9.61628 1.3501 10.217 1.41898 10.7941 1.54958C11.4665 1.70175 11.7938 2.28123 11.9219 2.68979C12.0212 3.00653 12.2411 3.29373 12.5716 3.47852C12.8813 3.65163 13.2302 3.70227 13.5596 3.64402C13.9836 3.56905 14.6254 3.60493 15.0597 4.11226C15.6118 4.7572 16.0576 5.49281 16.3696 6.29381C16.6577 7.03357 16.2317 7.6911 15.8774 8.02063C15.6062 8.27285 15.444 8.61997 15.444 9.00008C15.444 9.38019 15.6062 9.72731 15.8774 9.97953C16.2317 10.3091 16.6578 10.9666 16.3696 11.7063C16.0578 12.5071 15.6121 13.2425 15.0602 13.8873C14.6259 14.3948 13.9839 14.4307 13.5598 14.3556C13.2303 14.2973 12.8813 14.3479 12.5716 14.5211C12.2409 14.7059 12.021 14.9932 11.9218 15.3101C11.7938 15.7188 11.4665 16.2985 10.7938 16.4507C10.2169 16.5812 9.61619 16.6501 8.99989 16.6501C8.38356 16.6501 7.78286 16.5812 7.20583 16.4507C6.53339 16.2985 6.20605 15.719 6.078 15.3104C5.97872 14.9937 5.75883 14.7064 5.42829 14.5217C5.11863 14.3485 4.76968 14.2979 4.44025 14.3562C4.01622 14.4312 3.37438 14.3953 2.94008 13.8879C2.38801 13.243 1.94217 12.5074 1.63019 11.7065C1.34204 10.9667 1.76816 10.3091 2.12249 9.97957C2.39369 9.72735 2.5559 9.38021 2.5559 9.00008C2.5559 8.61995 2.39369 8.27281 2.12249 8.02059C1.76817 7.69106 1.34205 7.0335 1.6302 6.2937C1.94217 5.49276 2.38799 4.75721 2.94002 4.11232C3.37433 3.60496 4.01618 3.5691 4.44021 3.64409C4.76964 3.70235 5.11859 3.65172 5.42825 3.4786C5.7588 3.2938 5.9787 3.00658 6.07797 2.68982C6.20603 2.28124 6.53336 1.70172 7.20582 1.54955ZM7.53294 2.93657C7.53028 2.93906 7.52651 2.94292 7.52164 2.94862C7.49674 2.9778 7.46353 3.03371 7.43775 3.11599C7.23126 3.77481 6.77683 4.35724 6.12362 4.72242C5.51456 5.06292 4.83038 5.1602 4.19205 5.04731C4.11601 5.03386 4.05835 5.03785 4.02612 5.04557C4.02078 5.04685 4.01683 5.04803 4.01404 5.04897C3.57122 5.56845 3.21474 6.15725 2.96429 6.79489C2.96525 6.79822 2.96667 6.80265 2.96881 6.80831C2.98417 6.84907 3.02367 6.91269 3.09295 6.97711C3.63619 7.48235 3.9809 8.20038 3.9809 9.00008C3.9809 9.79978 3.63618 10.5178 3.09294 11.0231C3.02366 11.0875 2.98416 11.1511 2.96879 11.1919C2.96666 11.1975 2.96523 11.2019 2.96428 11.2053C3.21474 11.8429 3.57124 12.4318 4.01408 12.9513C4.01688 12.9522 4.02083 12.9534 4.02616 12.9547C4.0584 12.9624 4.11606 12.9664 4.1921 12.9529C4.83042 12.8401 5.5146 12.9373 6.12365 13.2778C6.77684 13.643 7.23127 14.2254 7.43776 14.8842C7.46355 14.9665 7.49675 15.0224 7.52165 15.0516C7.52652 15.0573 7.5303 15.0611 7.53295 15.0636C8.0035 15.1691 8.49447 15.2251 8.99989 15.2251C9.50529 15.2251 9.99622 15.1692 10.4667 15.0637C10.4694 15.0612 10.4732 15.0573 10.478 15.0516C10.503 15.0224 10.5362 14.9665 10.5619 14.8842C10.7684 14.2251 11.2228 13.6425 11.8762 13.2773C12.4854 12.9367 13.1697 12.8395 13.8081 12.9524C13.8841 12.9659 13.9418 12.9619 13.974 12.9542C13.9794 12.9529 13.9833 12.9517 13.9861 12.9508C14.4288 12.4314 14.7852 11.8427 15.0355 11.2052C15.0346 11.2019 15.0332 11.1974 15.031 11.1918C15.0157 11.151 14.9762 11.0874 14.9069 11.023C14.3637 10.5177 14.019 9.79974 14.019 9.00008C14.019 8.20042 14.3637 7.48242 14.9069 6.97719C14.9762 6.91277 15.0156 6.84916 15.031 6.80839C15.0331 6.80274 15.0346 6.79831 15.0355 6.79498C14.7851 6.15729 14.4286 5.56844 13.9857 5.04893C13.9829 5.04798 13.979 5.0468 13.9736 5.04552C13.9414 5.0378 13.8837 5.03381 13.8077 5.04726C13.1694 5.16011 12.4853 5.06282 11.8762 4.72234C11.2231 4.35718 10.7686 3.77479 10.5621 3.116C10.5364 3.03373 10.5031 2.97782 10.4783 2.94864C10.4734 2.94294 10.4696 2.93908 10.467 2.93659C9.99637 2.83106 9.50536 2.7751 8.99989 2.7751C8.49447 2.7751 8.00349 2.83105 7.53294 2.93657ZM15.0373 6.78684C15.0374 6.78684 15.0373 6.78712 15.0372 6.78772L15.0373 6.78684ZM2.96247 11.2134C2.96245 11.2134 2.96247 11.2131 2.96257 11.2125L2.96247 11.2134ZM6.03751 9.0001C6.03751 7.36395 7.36386 6.0376 9 6.0376C10.6361 6.0376 11.9625 7.36395 11.9625 9.0001C11.9625 10.6362 10.6361 11.9626 9 11.9626C7.36386 11.9626 6.03751 10.6362 6.03751 9.0001ZM9 7.4626C8.15086 7.4626 7.4625 8.15096 7.4625 9.0001C7.4625 9.84924 8.15086 10.5376 9 10.5376C9.84913 10.5376 10.5375 9.84924 10.5375 9.0001C10.5375 8.15096 9.84913 7.4626 9 7.4626Z" fill="#2D2D2D"/>
</svg>
