<svg width="24" height="25" viewBox="0 0 24 25" fill="none" xmlns="http://www.w3.org/2000/svg">
<rect x="2.40039" y="2.90002" width="19.2" height="19.2" rx="9.6" fill="#F44336"/>
<path fill-rule="evenodd" clip-rule="evenodd" d="M12.001 7.90039C11.4487 7.90039 11.001 8.34811 11.001 8.90039V12.9004C11.001 13.4527 11.4487 13.9004 12.001 13.9004C12.5533 13.9004 13.001 13.4527 13.001 12.9004V8.90039C13.001 8.34811 12.5533 7.90039 12.001 7.90039ZM12.001 15.1004C11.4487 15.1004 11.001 15.5481 11.001 16.1004C11.001 16.6527 11.4487 17.1004 12.001 17.1004C12.5533 17.1004 13.001 16.6527 13.001 16.1004C13.001 15.5481 12.5533 15.1004 12.001 15.1004Z" fill="white"/>
</svg>
