<svg width="28" height="29" viewBox="0 0 28 29" fill="none" xmlns="http://www.w3.org/2000/svg">
<rect x="2.7998" y="3.30078" width="22.4" height="22.4" rx="11.2" fill="#F44336"/>
<path fill-rule="evenodd" clip-rule="evenodd" d="M14.0007 9.13477C13.3563 9.13477 12.834 9.6571 12.834 10.3014V14.9681C12.834 15.6124 13.3563 16.1348 14.0007 16.1348C14.645 16.1348 15.1673 15.6124 15.1673 14.9681V10.3014C15.1673 9.6571 14.645 9.13477 14.0007 9.13477ZM14.0007 17.5348C13.3563 17.5348 12.834 18.0571 12.834 18.7014C12.834 19.3458 13.3563 19.8681 14.0007 19.8681C14.645 19.8681 15.1673 19.3458 15.1673 18.7014C15.1673 18.0571 14.645 17.5348 14.0007 17.5348Z" fill="white"/>
</svg>
