<svg xmlns="http://www.w3.org/2000/svg" width="24" height="24" fill="none"><rect width="19.2" height="19.2" x="2.4" y="2.4" fill="#4CAF50" rx="9.6"/><path fill="#fff" fill-rule="evenodd" d="M16.81 9.589a.867.867 0 0 0 0-1.178.781.781 0 0 0-1.149 0l-5.073 5.39-2.25-2.39a.781.781 0 0 0-1.147 0 .867.867 0 0 0 0 1.178l2.823 3a.782.782 0 0 0 1.148 0l5.647-6ZM16.224 8.4a.547.547 0 0 0-.39.176l-5.247 5.575 5.248-5.575a.547.547 0 0 1 .39-.176Zm-8.47 3a.547.547 0 0 0-.39.176.627.627 0 0 0 0 .848l2.824 3-2.823-3a.627.627 0 0 1 0-.848.547.547 0 0 1 .389-.176Z" clip-rule="evenodd"/></svg>