<svg xmlns="http://www.w3.org/2000/svg" width="20" height="20" fill="none"><g fill="currentColor" fill-rule="evenodd" clip-rule="evenodd"><path d="M1.3 0A1.3 1.3 0 0 0 0 1.3V7.4a1.3 1.3 0 0 0 1.3 1.3H7.4a1.3 1.3 0 0 0 1.3-1.3V1.3A1.3 1.3 0 0 0 7.4 0H1.3Zm.62 6.78V1.92h4.86v4.86H1.92ZM12.599 0a1.3 1.3 0 0 0-1.3 1.3V7.4a1.3 1.3 0 0 0 1.3 1.3H18.7A1.3 1.3 0 0 0 20 7.4V1.3A1.3 1.3 0 0 0 18.7 0H12.6Zm.621 6.78V1.92h4.86v4.86h-4.86ZM0 12.599a1.3 1.3 0 0 1 1.3-1.3H7.4a1.3 1.3 0 0 1 1.3 1.3V18.7A1.3 1.3 0 0 1 7.4 20H1.3A1.3 1.3 0 0 1 0 18.7V12.6Zm1.92.621v4.86h4.86v-4.86H1.92ZM12.599 11.3a1.3 1.3 0 0 0-1.3 1.299V18.7A1.3 1.3 0 0 0 12.6 20H18.7A1.3 1.3 0 0 0 20 18.7V12.6a1.3 1.3 0 0 0-1.3-1.3H12.6Zm.621 6.78v-4.86h4.86v4.86h-4.86Z"/></g></svg>