<svg xmlns="http://www.w3.org/2000/svg" width="20" height="21" fill="none"><path fill="currentColor" fill-rule="evenodd" d="M2.019 18.505H17.98V5.757H16V3.762h2.868c.612 0 1.108.496 1.108 1.108v14.521c0 .613-.496 1.109-1.108 1.109H1.132a1.108 1.108 0 0 1-1.109-1.108V4.87c0-.612.497-1.108 1.109-1.108H4v1.995H2.019v12.748Zm3.92-13.01a.998.998 0 0 0 1.411 0l1.652-1.652v6.791a.998.998 0 0 0 1.995 0V3.936l1.56 1.56a.998.998 0 0 0 1.41-1.412L10.675.792A.995.995 0 0 0 9.955.5a.995.995 0 0 0-.724.292L5.94 4.084a.998.998 0 0 0 0 1.411Z" clip-rule="evenodd"/></svg>