<svg width="16" height="16" viewBox="0 0 16 16" fill="none" xmlns="http://www.w3.org/2000/svg">
<path id="Union" d="M0.517578 3.77734C0.517806 3.31851 0.889789 2.94648 1.34863 2.94629H3.5V4.44238H2.01367V14.0039H13.9854V4.44238H12.5V2.94629H14.6504C15.1094 2.94629 15.4822 3.31839 15.4824 3.77734V14.6689C15.4823 15.128 15.1094 15.5 14.6504 15.5H1.34863C0.889753 15.4998 0.517747 15.1278 0.517578 14.6689V3.77734ZM4.95508 4.24609C4.66319 3.95396 4.66322 3.48063 4.95508 3.18848L7.4248 0.71875C7.57377 0.570024 7.76974 0.49898 7.96484 0.501953C8.16027 0.498721 8.35665 0.569775 8.50586 0.71875L10.9756 3.18848C11.2674 3.48063 11.2675 3.95396 10.9756 4.24609C10.6834 4.53829 10.2092 4.53829 9.91699 4.24609L8.74805 3.07715V8.10156C8.74805 8.51474 8.41315 8.85049 8 8.85059C7.58677 8.85059 7.25195 8.5148 7.25195 8.10156V3.00781L6.01367 4.24609C5.72147 4.53829 5.24728 4.53829 4.95508 4.24609Z" fill="#2D2D2D"/>
</svg>
