<svg width="18" height="18" viewBox="0 0 18 18" fill="none" xmlns="http://www.w3.org/2000/svg">
<path fill-rule="evenodd" clip-rule="evenodd" d="M6.16667 4.33333V3H11.8333V4.33333H6.16667ZM4.66667 4.33333V2.33333C4.66667 1.87309 5.03976 1.5 5.5 1.5H12.5C12.9602 1.5 13.3333 1.87309 13.3333 2.33333V4.33333H14H15.75C16.1642 4.33333 16.5 4.66913 16.5 5.08333C16.5 5.49754 16.1642 5.83333 15.75 5.83333H14.8333V15.6667C14.8333 16.1269 14.4602 16.5 14 16.5H4C3.53976 16.5 3.16667 16.1269 3.16667 15.6667V5.83333H2.25C1.83578 5.83333 1.5 5.49754 1.5 5.08333C1.5 4.66913 1.83578 4.33333 2.25 4.33333H4H4.66667ZM12.5 5.83333H5.5H4.66667V15H13.3333V5.83333H12.5ZM7.41667 7.91667C7.83088 7.91667 8.16667 8.25246 8.16667 8.66667V12.1667C8.16667 12.5809 7.83088 12.9167 7.41667 12.9167C7.00245 12.9167 6.66667 12.5809 6.66667 12.1667V8.66667C6.66667 8.25246 7.00245 7.91667 7.41667 7.91667ZM11.3333 8.66667C11.3333 8.25246 10.9975 7.91667 10.5833 7.91667C10.1691 7.91667 9.83333 8.25246 9.83333 8.66667V12.1667C9.83333 12.5809 10.1691 12.9167 10.5833 12.9167C10.9975 12.9167 11.3333 12.5809 11.3333 12.1667V8.66667Z" fill="#F44336"/>
</svg>
