<svg xmlns="http://www.w3.org/2000/svg" width="20" height="21" fill="none"><path fill="#F44336" fill-rule="evenodd" d="M1.995 2.519V18.48h12.748V16.5h1.995v2.868c0 .612-.496 1.108-1.108 1.108H1.108A1.108 1.108 0 0 1 0 19.368V1.632C0 1.02.496.523 1.108.523H15.63c.612 0 1.108.497 1.108 1.109V4.5h-1.995V2.519H1.995Zm13.01 3.92a.998.998 0 0 0 0 1.41l1.653 1.653H9.866a.998.998 0 1 0 0 1.996h6.698l-1.559 1.558a.998.998 0 0 0 1.411 1.411l3.292-3.292a.995.995 0 0 0 .292-.722.995.995 0 0 0-.292-.722l-3.292-3.292a.998.998 0 0 0-1.41 0Z" clip-rule="evenodd"/></svg>