<svg width="33" height="33" viewBox="0 0 33 33" fill="none" xmlns="http://www.w3.org/2000/svg">
<rect width="33" height="33" rx="6" fill="#FF8400"/>
<path d="M27.3142 19.013L24.8922 13.7562C24.3786 12.642 23.6239 11.7187 22.7186 11.0227C21.4479 10.039 19.881 9.5 18.2782 9.5C18.1039 9.5 17.9295 9.50725 17.7552 9.51934C16.8977 9.58218 16.0354 9.80211 15.2089 10.1912C13.4462 11.0227 12.1086 12.4994 11.4422 14.3508C10.7781 16.2021 10.8641 18.2033 11.6858 19.987L12.0728 20.8257C13.0951 21.0311 14.1317 20.7822 14.9438 20.1924L14.2846 18.7616C13.7854 17.6789 13.7328 16.4656 14.1365 15.3417C14.5401 14.2202 15.3523 13.3236 16.4199 12.8184C17.0553 12.5187 17.7265 12.3858 18.3833 12.4027C19.9264 12.439 21.3977 13.2946 22.1716 14.7375C22.2146 14.8172 22.2552 14.8994 22.2934 14.9816L24.7154 20.2384C25.2146 21.3211 25.2672 22.5369 24.8635 23.6583C24.4599 24.7798 23.6477 25.6764 22.5777 26.1816C20.4184 27.2015 17.8507 26.2952 16.7758 24.161C15.9446 24.6492 15.0274 24.9852 14.06 25.1423L14.1078 25.2438C15.3427 27.9242 17.9773 29.5 20.7218 29.5C21.7512 29.5 22.7974 29.2776 23.7887 28.8112C25.5538 27.9773 26.8914 26.5006 27.5578 24.6492C28.2219 22.8003 28.1359 20.7991 27.3142 19.013Z" fill="#FFD4A6"/>
<path fill-rule="evenodd" clip-rule="evenodd" d="M10.2394 9.57641C10.2394 9.5765 10.2393 9.57658 10.2393 9.57667L8.22307 15.2436C7.36486 17.6545 8.58074 20.323 10.9382 21.2018C13.2941 22.08 15.9017 20.8359 16.7606 18.4236C16.7606 18.4235 16.7607 18.4234 16.7607 18.4233L18.7768 12.7566L18.7769 12.7564C19.6351 10.3455 18.4193 7.67701 16.0618 6.7982C13.7059 5.92001 11.0983 7.16412 10.2394 9.57641ZM7.47032 8.54447C8.88561 4.56871 13.1837 2.51579 17.0704 3.96467C20.9556 5.41293 22.9617 9.811 21.546 13.7883C21.546 13.7884 21.5459 13.7885 21.5459 13.7886L19.5298 19.4553L19.5297 19.4555C18.1144 23.4313 13.8163 25.4842 9.92956 24.0353C6.04445 22.5871 4.03829 18.189 5.454 14.2117C5.45402 14.2116 5.45405 14.2115 5.45408 14.2114L7.47032 8.54447Z" fill="#FFF4E8"/>
</svg>
