<?xml version="1.0" encoding="UTF-8"?>
<svg xmlns="http://www.w3.org/2000/svg" xmlns:xlink="http://www.w3.org/1999/xlink" width="52px" height="52px" viewBox="0 0 52 52" version="1.1">
<g id="surface1">
<path style=" stroke:none;fill-rule:nonzero;fill:rgb(0%,0%,0%);fill-opacity:1;" d="M 31.941406 14.746094 C 30.871094 14.976562 29.992188 15.628906 29.503906 16.566406 C 29.136719 17.265625 29.007812 18.117188 29.152344 18.84375 C 29.183594 18.996094 29.210938 19.148438 29.214844 19.179688 C 29.21875 19.214844 27.808594 20.226562 26.078125 21.429688 L 22.933594 23.613281 L 22.800781 23.492188 C 22.242188 22.976562 21.265625 22.582031 20.378906 22.515625 C 18.554688 22.378906 16.808594 23.546875 16.230469 25.289062 C 15.550781 27.339844 16.542969 29.523438 18.546875 30.378906 C 19.039062 30.585938 19.484375 30.671875 20.085938 30.671875 C 21.230469 30.671875 22.085938 30.316406 22.917969 29.492188 L 23.363281 29.050781 L 29.183594 31.925781 L 29.144531 32.246094 C 29.117188 32.429688 29.117188 32.734375 29.144531 32.972656 C 29.355469 34.820312 30.8125 36.117188 32.671875 36.109375 C 34.53125 36.105469 36.050781 34.648438 36.140625 32.777344 C 36.222656 31.183594 35.226562 29.761719 33.695312 29.269531 C 33.148438 29.097656 32.464844 29.058594 31.917969 29.167969 C 31.363281 29.28125 30.683594 29.621094 30.269531 29.992188 L 29.949219 30.285156 L 29.433594 30.027344 C 29.152344 29.890625 27.828125 29.238281 26.492188 28.585938 L 24.066406 27.394531 L 24.101562 27.191406 C 24.1875 26.675781 24.105469 25.648438 23.945312 25.234375 C 23.917969 25.167969 24.609375 24.667969 27.042969 22.984375 C 28.757812 21.796875 30.179688 20.820312 30.195312 20.820312 C 30.214844 20.820312 30.335938 20.902344 30.46875 20.996094 C 31.125 21.476562 31.90625 21.707031 32.730469 21.667969 C 33.671875 21.621094 34.425781 21.289062 35.089844 20.617188 C 35.941406 19.757812 36.296875 18.496094 36.007812 17.351562 C 35.683594 16.097656 34.722656 15.121094 33.492188 14.800781 C 33.058594 14.6875 32.335938 14.664062 31.941406 14.746094 Z M 31.941406 14.746094 "/>
</g>
</svg>
