<svg width="24" height="24" viewBox="0 0 26 28" fill="none" xmlns="http://www.w3.org/2000/svg">
<path id="Union" fill-rule="evenodd" clip-rule="evenodd" d="M4.54485 10.9688C4.54485 6.28207 8.34415 2.48276 13.0308 2.48276C17.7175 2.48276 21.5168 6.28207 21.5168 10.9687L21.5168 16.2666C21.5168 16.3606 21.5275 16.4544 21.5487 16.546L22.4741 20.5517H3.54362L4.51002 16.5586C4.53316 16.463 4.54486 16.365 4.54486 16.2666V12.1217L4.54485 12.1165V10.9688ZM2.06209 12.1217L2.0621 12.1269V16.1185L0.759418 21.5011C0.669885 21.871 0.755017 22.2616 0.990385 22.5607C1.22575 22.8599 1.58534 23.0345 1.96596 23.0345H8.31852C8.31323 23.1257 8.31055 23.2177 8.31055 23.3103C8.31055 25.9003 10.4102 27.9999 13.0002 27.9999C15.5902 27.9999 17.6899 25.9003 17.6899 23.3103C17.6899 23.2177 17.6872 23.1257 17.6819 23.0345H24.0349C24.4133 23.0345 24.771 22.8619 25.0065 22.5658C25.242 22.2697 25.3296 21.8823 25.2444 21.5137L23.9996 16.1251L23.9996 10.9687C23.9996 4.91088 19.0887 0 13.0308 0C6.97296 0 2.06209 4.91088 2.06209 10.9688V12.1217ZM15.19 23.0345H10.8104C10.7991 23.1248 10.7933 23.2169 10.7933 23.3103C10.7933 24.5291 11.7814 25.5172 13.0002 25.5172C14.219 25.5172 15.2071 24.5291 15.2071 23.3103C15.2071 23.2169 15.2013 23.1248 15.19 23.0345Z" fill="black"/>
</svg>
