<svg width="14" height="4" viewBox="0 0 14 4" fill="none" xmlns="http://www.w3.org/2000/svg">
<path d="M12.5513 3.3125C11.8113 3.3125 11.2114 2.72487 11.2114 2C11.2114 1.27513 11.8113 0.6875 12.5513 0.6875C13.2912 0.6875 13.8911 1.27513 13.8911 2C13.8911 2.72487 13.2912 3.3125 12.5513 3.3125Z" fill="#C6C6C6"/>
<path d="M7.00049 3.3125C6.26051 3.3125 5.66065 2.72487 5.66065 2C5.66065 1.27513 6.26051 0.6875 7.00049 0.6875C7.74046 0.6875 8.34033 1.27513 8.34033 2C8.34033 2.72487 7.74046 3.3125 7.00049 3.3125Z" fill="#C6C6C6"/>
<path d="M0.109866 2C0.109866 2.72487 0.709736 3.3125 1.44971 3.3125C2.18968 3.3125 2.78955 2.72487 2.78955 2C2.78955 1.27513 2.18968 0.6875 1.44971 0.6875C0.709736 0.6875 0.109866 1.27513 0.109866 2Z" fill="#C6C6C6"/>
</svg>
