<svg width="22" height="21" viewBox="0 0 22 21" fill="none" xmlns="http://www.w3.org/2000/svg">
<path id="Union" fill-rule="evenodd" clip-rule="evenodd" d="M6.45641 2.94375L7.74872 5.06003H19.4V18.0562H2.6V2.94375H6.45641ZM8.11644 1.58313L8.9 2.86628H20.0616C20.856 2.86628 21.5 3.53786 21.5 4.36628V18.75C21.5 19.5784 20.856 20.25 20.0616 20.25H1.93836C1.14397 20.25 0.5 19.5784 0.5 18.75V2.25C0.5 1.42157 1.14397 0.75 1.93836 0.75H6.66057C7.25049 0.75 7.79956 1.06421 8.11644 1.58313ZM11.1869 7.5C11.7461 7.5 12.1994 7.95331 12.1994 8.5125V10.3267H14.1465C14.6869 10.3267 15.125 10.7648 15.125 11.3052C15.125 11.8456 14.6869 12.2836 14.1465 12.2836H12.1994V14.0978C12.1994 14.657 11.7461 15.1103 11.1869 15.1103C10.6277 15.1103 10.1744 14.657 10.1744 14.0978V12.2836H8.22847C7.68807 12.2836 7.25 11.8456 7.25 11.3052C7.25 10.7648 7.68807 10.3267 8.22847 10.3267H10.1744V8.5125C10.1744 7.95331 10.6277 7.5 11.1869 7.5Z" fill="#2D2D2D"/>
</svg>
