<svg width="20" height="15" viewBox="0 0 26 20" fill="none" xmlns="http://www.w3.org/2000/svg">
<g id="Union">
<path d="M0 1.27273C0 0.569819 0.573832 0 1.28169 0H24.7183C25.4262 0 26 0.569819 26 1.27273C26 1.97564 25.4262 2.54545 24.7183 2.54545H1.28169C0.573832 2.54545 0 1.97564 0 1.27273Z" fill="#2D2D2D"/>
<path d="M0 18.7273C0 18.0244 0.573832 17.4545 1.28169 17.4545H15.9296C16.6374 17.4545 17.2113 18.0244 17.2113 18.7273C17.2113 19.4302 16.6374 20 15.9296 20H1.28169C0.573832 20 0 19.4302 0 18.7273Z" fill="#2D2D2D"/>
<path d="M1.28169 8.72727C0.573832 8.72727 0 9.29709 0 10C0 10.7029 0.573832 11.2727 1.28169 11.2727H24.7183C25.4262 11.2727 26 10.7029 26 10C26 9.29709 25.4262 8.72727 24.7183 8.72727H1.28169Z" fill="#2D2D2D"/>
</g>
</svg>
