<?xml version="1.0" encoding="UTF-8"?>
<svg xmlns="http://www.w3.org/2000/svg" xmlns:xlink="http://www.w3.org/1999/xlink" width="48px" height="48px" viewBox="0 0 48 47" version="1.1">
<defs>
<filter id="alpha" filterUnits="objectBoundingBox" x="0%" y="0%" width="100%" height="100%">
  <feColorMatrix type="matrix" in="SourceGraphic" values="0 0 0 0 1 0 0 0 0 1 0 0 0 0 1 0 0 0 1 0"/>
</filter>
<mask id="mask0">
  <g filter="url(#alpha)">
<rect x="0" y="0" width="48" height="47" style="fill:rgb(0%,0%,0%);fill-opacity:0.486275;stroke:none;"/>
  </g>
</mask>
<clipPath id="clip1">
  <rect x="0" y="0" width="48" height="47"/>
</clipPath>
<g id="surface5" clip-path="url(#clip1)">
<path style="fill-rule:nonzero;fill:rgb(94.117647%,94.117647%,94.117647%);fill-opacity:1;stroke-width:1;stroke-linecap:butt;stroke-linejoin:miter;stroke:rgb(94.117647%,94.117647%,94.117647%);stroke-opacity:1;stroke-miterlimit:4;" d="M 127.516927 21.010638 L 508.510091 21.010638 L 511.521484 23.006649 L 522.476725 23.006649 C 523.515137 25.317819 526.163086 26.000665 530.524414 25.00266 L 532.497396 26.99867 L 536.49528 26.99867 L 538.520182 28.994681 L 541.479655 28.994681 L 556.484701 36.978723 L 558.976888 36.978723 C 558.25 38.817154 558.769206 39.447473 560.482585 38.974734 C 561.209473 40.865691 562.715169 41.548537 564.999674 41.023271 L 567.024577 45.015293 L 569.984049 45.015293 C 569.257161 46.801197 569.776367 47.484043 571.489746 47.011303 L 575.020345 49.007314 L 575.020345 51.003324 L 576.993327 51.003324 L 576.993327 52.999335 L 579.018229 52.999335 L 579.018229 54.995346 L 580.991211 54.995346 L 580.991211 56.991356 L 583.016113 56.991356 L 583.016113 58.987367 L 584.989095 58.987367 L 584.989095 60.983378 L 587.013997 60.983378 L 587.013997 62.979388 L 591.011882 64.975399 L 591.011882 67.023936 L 592.984863 67.023936 L 592.984863 71.015957 L 596.982747 73.011968 L 596.982747 75.480718 L 600.980632 80.523271 L 600.980632 82.992021 C 603.005534 82.204122 603.680501 83.044548 603.005534 85.513298 L 604.978516 87.509309 L 604.978516 90.503324 L 611.001302 102.479388 L 611.001302 106.996676 L 612.974284 107.521941 L 612.974284 114.507979 L 614.999186 116.503989 L 614.999186 127.482048 L 617.024089 136.516622 L 617.024089 500.525931 L 615.985677 501.523936 L 617.024089 505.515957 C 614.947266 509.087766 614.272298 514.077793 614.999186 520.486037 L 612.974284 523.480053 L 612.974284 528.522606 C 611.001302 529.152926 610.326335 531.148936 611.001302 534.510638 L 608.9764 536.506649 L 608.9764 541.023936 L 607.003418 541.023936 C 607.886068 544.543218 607.2111 546.013963 604.978516 545.488697 L 604.978516 548.482713 L 599.00765 557.517287 L 599.00765 559.986037 L 596.982747 559.986037 L 596.982747 562.980053 C 595.217448 562.244681 594.54248 562.769947 595.009766 564.503324 C 593.192546 565.238697 592.517578 566.709441 592.984863 569.020612 L 591.011882 569.020612 L 591.011882 571.016622 L 588.986979 571.016622 L 588.986979 573.012633 L 587.013997 573.012633 L 587.013997 575.008644 L 584.989095 575.008644 L 584.989095 577.004654 L 583.016113 577.004654 L 583.016113 579.000665 L 580.991211 579.000665 L 580.991211 580.996676 L 579.018229 580.996676 L 579.018229 582.992686 L 576.993327 582.992686 L 576.993327 584.988697 L 575.020345 584.988697 L 575.020345 586.984707 L 572.995443 586.984707 C 573.722331 588.823138 573.255046 589.453457 571.489746 588.980718 C 570.762858 590.871676 569.257161 591.554521 567.024577 590.976729 L 564.999674 595.021277 L 562.507487 595.021277 L 558.976888 597.017287 L 558.976888 599.013298 L 554.979004 599.013298 C 555.861654 601.009309 555.030924 601.692154 552.486816 601.009309 L 542.518066 606.99734 L 538.520182 606.99734 L 530.524414 610.989362 L 524.501628 610.989362 L 522.476725 612.985372 C 516.090495 612.25 511.10612 612.932846 507.5236 614.981383 L 131.514811 614.981383 C 128.347656 612.775266 123.674805 612.144947 117.496257 612.985372 L 114.484863 610.989362 L 109.500488 610.989362 L 100.518229 606.99734 L 96.98763 606.99734 C 97.87028 604.791223 96.676107 604.108378 93.508952 605.00133 C 92.678223 603.005319 90.861003 602.322473 88.005371 603.005319 L 88.005371 601.009309 L 84.007487 601.009309 L 84.007487 599.013298 L 80.996094 599.013298 C 81.878743 597.017287 81.048014 596.334441 78.503906 597.017287 L 75.025228 595.021277 L 75.025228 593.025266 L 72.013835 593.025266 C 72.740723 590.819149 71.754232 590.136303 69.002441 590.976729 L 69.002441 588.980718 L 66.977539 588.980718 L 66.977539 586.984707 L 65.004557 586.984707 L 65.004557 584.988697 L 62.979655 584.988697 C 63.758464 583.202793 63.239258 582.519947 61.525879 582.992686 L 58.981771 579.000665 L 53.010905 574.483378 L 46.988118 567.49734 C 45.222819 566.761968 44.547852 565.291223 45.015137 562.980053 L 41.017253 560.984043 L 41.017253 556.992021 L 38.99235 556.992021 C 39.875 554.260638 39.200033 553.262633 37.019368 553.998005 C 37.850098 550.478723 37.17513 548.955452 34.994466 549.480718 L 34.994466 546.486702 L 30.996582 540.49867 L 30.996582 536.506649 L 26.998698 528.522606 L 26.998698 523.480053 L 25.025716 521.484043 C 25.752604 515.758644 25.077637 511.451463 23.000814 508.509973 L 23.000814 125.486037 L 25.025716 122.492021 L 25.025716 113.509973 C 27.20638 112.722074 27.881348 110.358378 26.998698 106.523936 L 29.0236 104.475399 L 30.996582 95.493351 L 34.994466 89.505319 L 37.019368 81.994016 L 38.99235 81.994016 C 38.109701 79.262633 38.784668 78.264628 41.017253 79 L 41.017253 75.007979 L 45.015137 73.011968 L 45.015137 70.490691 L 46.988118 67.023936 L 49.013021 67.023936 L 49.013021 64.975399 L 50.986003 64.975399 L 50.986003 62.979388 C 52.803223 63.714761 53.47819 63.242021 53.010905 61.508644 L 54.983887 57.989362 L 62.979655 52.999335 L 62.979655 51.003324 L 65.004557 51.003324 L 65.004557 49.007314 L 69.002441 47.011303 L 69.002441 45.015293 L 71.494629 45.015293 L 75.025228 43.019282 C 74.246419 41.180851 74.765625 40.550532 76.479004 41.023271 C 77.257812 39.18484 78.711589 38.554521 80.996094 38.974734 C 80.217285 36.978723 81.048014 36.348404 83.488281 36.978723 L 97.506836 28.994681 L 101.50472 28.994681 L 109.500488 25.00266 L 114.484863 25.00266 L 116.509766 23.006649 L 124.505534 23.006649 Z M 122.999837 24.004654 L 122.999837 26.000665 C 118.326986 24.6875 115.004069 25.317819 112.979167 27.996676 C 108.358236 26.683511 106.333333 27.31383 107.008301 29.992686 C 103.685384 29.30984 101.660482 29.992686 100.985514 31.988697 C 96.98763 30.675532 95.326172 31.358378 96.001139 33.984707 L 92.989746 33.984707 L 87.01888 37.976729 C 84.31901 37.34641 83.33252 37.976729 84.007487 40.025266 L 80.996094 42.021277 C 78.348145 41.338431 77.309733 42.021277 77.984701 44.017287 L 72.013835 48.009309 C 69.988932 47.326463 69.313965 48.009309 69.988932 50.005319 L 66.977539 52.00133 C 65.004557 51.318484 64.32959 52.00133 65.004557 53.99734 L 57.99528 57.989362 L 56.022298 61.981383 C 56.645345 63.347074 56.022298 63.662234 53.997396 62.979388 L 49.999512 69.019947 C 50.674479 70.333112 49.999512 70.648271 47.974609 70.017952 L 42.003743 79.998005 C 42.678711 81.994016 42.003743 82.676862 39.978841 81.994016 L 39.978841 84.988032 L 38.005859 84.988032 L 38.005859 88.980053 L 34.007975 95.020612 C 35.35791 98.329787 34.682943 99.642952 31.983073 99.012633 C 32.65804 102.321809 31.983073 104.685505 30.010091 105.99867 C 31.308105 109.990691 30.685059 111.671543 27.985189 110.988697 L 27.985189 120.023271 L 26.012207 122.019282 L 26.012207 515.023271 L 27.985189 515.023271 L 27.985189 524.005319 L 30.010091 526.00133 L 30.010091 530.991356 L 31.983073 530.991356 L 31.983073 536.979388 L 34.007975 536.979388 L 34.007975 542.021941 L 38.005859 548.009973 L 38.005859 551.003989 C 39.978841 550.321144 40.653809 551.319149 39.978841 553.998005 L 42.003743 553.998005 C 41.328776 555.994016 42.003743 557.674867 43.976725 558.988032 C 43.353678 560.353723 43.976725 560.668883 46.001628 559.986037 L 46.001628 562.980053 L 47.974609 562.980053 L 47.974609 565.974069 L 49.999512 565.974069 L 53.997396 572.014628 C 53.322428 573.327793 53.997396 573.642952 56.022298 573.012633 L 64.018066 581.994681 C 65.316081 581.311835 65.679525 581.994681 65.004557 583.990691 L 70.975423 587.982713 C 72.325358 587.352394 72.688802 587.982713 72.013835 589.978723 L 75.025228 589.978723 L 75.025228 591.974734 L 77.984701 591.974734 L 77.984701 594.023271 L 80.996094 594.023271 L 80.996094 596.019282 L 84.007487 596.019282 L 84.007487 598.015293 L 87.01888 598.015293 L 87.01888 600.011303 L 91.016764 600.011303 L 96.98763 604.003324 C 100.310547 603.320479 102.023926 604.003324 102.023926 605.999335 L 107.008301 605.999335 L 107.994792 607.995346 L 112.979167 607.995346 L 112.979167 609.991356 L 122.999837 609.991356 L 125.02474 611.987367 L 515.986654 611.987367 C 516.661621 609.308511 519.673014 608.678191 525.020833 609.991356 L 526.993815 607.995346 C 531.666667 609.308511 533.691569 608.678191 533.016602 605.999335 L 538.000977 605.999335 L 545.010254 602.007314 L 548.021647 602.007314 L 560.015299 594.023271 C 561.988281 594.65359 562.663249 594.023271 561.988281 591.974734 L 568.997559 587.982713 C 570.347493 588.665559 570.659017 587.982713 569.984049 585.986702 L 573.981934 583.990691 C 575.331868 584.673537 575.643392 583.990691 575.020345 581.994681 L 576.993327 581.994681 L 576.993327 579.99867 L 581.977702 577.004654 C 581.354655 575.008644 581.977702 574.325798 584.002604 575.008644 L 584.002604 573.012633 L 585.975586 573.012633 L 588.000488 570.018617 C 587.325521 568.022606 588.000488 567.339761 590.025391 568.022606 L 590.025391 565.974069 L 591.998372 565.974069 C 591.323405 563.978059 591.998372 562.664894 594.023275 561.982048 C 593.348307 559.986037 594.023275 559.355718 595.996257 559.986037 L 595.996257 557.990027 L 602.019043 550.005984 L 603.992025 543.019947 L 606.016927 541.023936 L 606.016927 537.977394 L 607.989909 535.981383 C 606.691895 531.989362 607.314941 530.308511 610.014811 530.991356 C 609.339844 526.999335 610.014811 524.320479 611.987793 523.007314 L 611.987793 516.021277 L 614.012695 514.025266 L 614.012695 126.011303 L 611.987793 123.017287 L 611.987793 114.980718 C 610.014811 113.667553 609.339844 110.988697 610.014811 106.996676 L 606.016927 100.010638 L 606.016927 95.020612 C 603.317057 95.650931 602.64209 94.337766 603.992025 90.976064 L 602.019043 90.976064 C 602.64209 88.349734 602.019043 86.668883 599.994141 85.986037 C 600.669108 83.307181 599.994141 82.309176 598.021159 82.992021 C 598.644206 80.996011 598.021159 79.682846 595.996257 79 C 596.671224 76.321144 595.996257 75.323138 594.023275 76.005984 L 590.025391 70.017952 C 590.648438 68.021941 590.025391 67.339096 588.000488 68.021941 L 588.000488 66.025931 L 585.975586 66.025931 L 579.018229 55.993351 C 576.993327 56.676197 576.318359 55.993351 576.993327 53.99734 L 572.008952 50.005319 C 569.984049 50.688165 569.309082 50.005319 569.984049 48.009309 L 567.024577 48.009309 L 567.024577 46.013298 L 564.013184 44.017287 C 561.988281 44.647606 561.313314 44.017287 561.988281 42.021277 L 560.015299 42.021277 L 550.98112 35.980718 L 548.021647 35.980718 L 548.021647 33.984707 L 542.985352 33.984707 L 542.985352 31.988697 L 538.987467 31.988697 L 538.987467 29.992686 L 533.016602 29.992686 L 533.016602 27.996676 C 529.018717 29.30984 526.682292 28.679521 526.007324 26.000665 L 515.986654 26.000665 L 514.013672 24.004654 Z M 122.999837 24.004654 " transform="matrix(0.0752351,0,0,0.0743671,0,0)"/>
</g>
<mask id="mask1">
  <g filter="url(#alpha)">
<rect x="0" y="0" width="48" height="47" style="fill:rgb(0%,0%,0%);fill-opacity:0.996078;stroke:none;"/>
  </g>
</mask>
<clipPath id="clip2">
  <rect x="0" y="0" width="48" height="47"/>
</clipPath>
<g id="surface8" clip-path="url(#clip2)">
<path style="fill-rule:nonzero;fill:rgb(96.078432%,96.078432%,96.078432%);fill-opacity:1;stroke-width:1;stroke-linecap:butt;stroke-linejoin:miter;stroke:rgb(96.078432%,96.078432%,96.078432%);stroke-opacity:1;stroke-miterlimit:4;" d="M 123.519043 24.004654 C 125.02474 23.531915 125.543945 24.057181 125.02474 25.475399 Z M 113.498372 26.99867 L 115.004069 27.523936 L 112.511882 28.994681 Z M 532.497396 28.994681 L 534.989583 30.517952 L 533.483887 30.990691 Z M 561.520996 42.021277 L 561.988281 44.017287 L 560.015299 43.492021 Z M 563.493978 44.017287 L 564.480469 46.013298 Z M 73.519531 46.013298 L 72.48112 48.009309 Z M 569.516764 48.009309 L 568.478353 50.005319 Z M 35.513672 93.024601 L 35.980957 94.495346 L 34.007975 95.493351 Z M 606.484212 100.010638 L 607.522624 102.006649 C 605.653483 102.479388 605.290039 101.796543 606.484212 100.010638 Z M 608.509115 105.000665 L 609.495605 106.996676 Z M 408.511068 148.019947 L 414.481934 148.019947 L 416.506836 150.015957 L 427.981283 150.015957 L 427.981283 152.011968 C 431.459961 150.856383 432.809896 151.539229 431.979167 154.007979 L 437.482747 154.007979 L 438.001953 156.003989 L 444.02474 156.003989 L 444.02474 158 C 445.997721 157.317154 446.672689 158 445.997721 159.996011 L 449.009115 159.996011 L 449.009115 161.519282 L 449.995605 163.988032 L 452.020508 163.988032 L 453.99349 167.980053 L 457.991374 167.980053 L 457.991374 170.50133 L 461.989258 172.49734 L 461.989258 174.493351 L 469.985026 190.513963 L 470.504232 201.019282 L 472.996419 200.021277 L 472.996419 218.510638 L 469.985026 219.508644 L 469.985026 229.488697 C 467.856283 230.486702 467.181315 232.692819 468.012044 236.001995 C 465.77946 235.109043 465.156413 236.317154 465.987142 239.521277 C 462.819987 241.149601 461.158529 243.986037 461.002767 247.978059 L 456.018392 249.974069 C 456.641439 252.022606 456.018392 252.652926 453.99349 252.022606 L 453.99349 256.014628 L 449.995605 256.014628 C 450.982096 258.535904 450.514811 259.53391 448.489909 259.008644 L 444.02474 260.006649 C 444.803548 262.475399 443.453613 263.158245 439.974935 262.00266 L 438.001953 265.994681 L 431.979167 265.994681 L 431.979167 267.990691 L 426.008301 267.990691 L 425.489095 269.986702 L 392.986816 269.986702 C 393.869466 267.990691 393.038737 267.307846 390.494629 267.990691 C 389.352376 265.679521 386.860189 264.996676 383.018066 265.994681 L 380.993164 262.00266 L 376.99528 262.00266 L 375.022298 258.010638 L 366.974609 258.010638 L 365.001628 262.00266 L 361.003743 262.00266 L 358.978841 265.994681 L 354.980957 265.994681 L 354.980957 267.517952 L 353.994466 269.986702 L 349.477376 269.986702 C 350.048503 272.192819 348.542806 272.875665 345.012207 271.982713 L 342.987305 275.974734 L 338.989421 275.974734 L 338.989421 278.023271 L 335.978027 278.023271 L 335.978027 280.019282 L 333.018555 280.019282 L 333.018555 282.015293 L 329.020671 282.015293 C 329.747559 283.801197 329.228353 284.484043 327.514974 284.011303 L 321.492188 288.003324 L 319 288.003324 C 319.88265 289.999335 319.051921 290.682181 316.507812 289.999335 L 312.977214 291.995346 C 313.756022 293.78125 313.236816 294.464096 311.523438 293.991356 C 310.744629 295.777261 309.290853 296.460106 307.006348 295.987367 L 307.006348 297.983378 L 303.008464 297.983378 L 303.008464 299.979388 L 299.010579 299.979388 C 299.737467 301.817819 299.218262 302.448138 297.504883 301.975399 L 293.506999 306.019947 L 287.484212 308.015957 L 284.992025 310.484707 L 284.52474 312.007979 L 279.021159 312.007979 L 276.996257 316 L 272.998372 316 C 273.67334 317.996011 272.998372 318.678856 271.025391 317.996011 L 271.025391 321.988032 L 272.998372 322.513298 L 272.998372 353.976729 L 275.023275 353.976729 L 276.996257 358.021277 L 281.980632 358.021277 L 281.980632 360.017287 C 284.732422 359.124335 285.718913 359.807181 284.992025 362.013298 L 288.989909 362.013298 L 291.014811 366.005319 L 295.012695 366.005319 L 296.985677 369.99734 L 299.477865 369.99734 L 303.008464 371.993351 C 302.177734 373.989362 303.008464 374.672207 305.500651 373.989362 L 312.977214 377.981383 L 315.002116 382.025931 L 319.519206 382.025931 L 322.997884 384.494681 L 323.984375 386.490691 L 323.51709 389.011968 L 178.50293 389.011968 C 179.177897 386.858378 177.516439 386.175532 173.518555 387.015957 C 172.012858 384.179521 170.559082 383.391622 169.001465 384.494681 L 169.520671 383.023936 C 167.288086 383.759309 166.457357 383.234043 166.976562 381.500665 L 165.990072 378.979388 C 163.549805 379.977394 162.511393 379.504654 162.978678 377.508644 C 160.486491 375.617686 159.448079 372.78125 160.019206 368.999335 C 157.475098 369.99734 156.488607 369.524601 157.007812 367.476064 L 156.021322 366.478059 L 156.021322 359.019282 C 153.996419 359.859707 153.321452 359.019282 153.996419 356.498005 L 152.023438 354.501995 L 152.023438 321.988032 C 154.463704 322.933511 155.138672 321.410239 153.996419 317.523271 L 156.021322 315.474734 C 155.190592 312.007979 155.709798 309.854388 157.475098 309.013963 L 160.019206 307.490691 L 161.992188 301.50266 L 168.014974 295.514628 L 168.014974 292.993351 C 171.337891 292.625665 173.830078 290.944814 175.491536 288.003324 L 180.008626 287.005319 C 179.281738 285.219415 179.749023 284.536569 181.514323 285.009309 L 195.480957 278.023271 L 228.502441 278.023271 C 229.437012 280.176862 231.617676 280.859707 234.992513 280.019282 L 234.992513 282.015293 L 238.990397 282.015293 L 238.990397 284.011303 L 242.988281 284.011303 C 242.209473 286.007314 243.040202 286.69016 245.480469 286.007314 L 248.491862 284.011303 L 250.516764 284.011303 L 264.483398 275.974734 L 266.975586 275.974734 L 268.481283 272.980718 L 275.023275 270.984707 C 274.192546 268.988697 275.023275 268.358378 277.515462 268.988697 L 283.019043 264.523936 C 282.395996 262.475399 283.590169 262.00266 286.497721 263.000665 C 287.224609 261.214761 288.730306 260.531915 291.014811 261.004654 C 290.287923 259.21875 290.755208 258.535904 292.520508 259.008644 C 293.351237 257.222739 295.220378 256.382314 298.024089 256.487367 L 297.504883 255.016622 L 299.010579 255.016622 L 299.477865 253.020612 L 304.981445 253.020612 L 304.981445 251.024601 L 307.006348 251.024601 C 306.27946 249.18617 306.746745 248.555851 308.512044 248.976064 L 316.507812 242.988032 L 321.024902 242.988032 L 321.024902 240.992021 L 322.997884 240.992021 C 322.270996 239.206117 322.790202 238.523271 324.503581 238.996011 L 332.499349 233.007979 L 334.991536 233.007979 C 334.264648 231.222074 334.783854 230.539229 336.497233 231.011968 C 337.224121 229.121011 338.729818 228.490691 341.014323 229.015957 L 341.014323 227.019947 L 345.012207 227.019947 C 344.285319 225.181516 344.752604 224.551197 346.517904 225.023936 L 349.010091 222.50266 L 349.010091 205.484043 L 349.996582 204.486037 L 349.010091 199.496011 L 350.983073 197.5 L 350.983073 193.507979 L 353.007975 191.511968 C 352.592611 187.362367 353.267578 184.525931 354.980957 183.00266 L 357.005859 183.00266 L 357.005859 177.487367 L 358.511556 177.014628 L 364.482422 167.980053 L 368.999512 165.984043 L 368.999512 163.988032 L 372.997396 163.988032 L 372.997396 162.517287 L 376.476074 158 L 379.020182 158 L 379.487467 156.003989 L 384.991048 156.003989 L 385.510254 154.007979 L 391.013835 154.007979 L 391.013835 152.011968 C 394.544434 152.852394 396.05013 152.222074 395.479004 150.015957 L 406.486165 150.015957 Z M 404.980469 151.013963 L 388.988932 155.005984 L 380.993164 158.998005 L 373.983887 164.986037 L 368.999512 168.978059 L 364.015137 175.018617 C 364.690104 176.331782 364.015137 176.646941 361.990234 176.016622 L 360.017253 181.006649 C 360.69222 182.319814 360.017253 182.6875 357.99235 182.004654 L 357.99235 185.996676 L 353.994466 192.982713 C 354.669434 196.974734 353.994466 199.65359 352.021484 201.019282 L 352.021484 219.981383 L 353.007975 220.979388 L 352.021484 225.023936 L 327.982259 239.994016 C 326.009277 239.31117 325.33431 239.994016 326.009277 241.990027 C 323.984375 241.307181 322.686361 241.990027 322.011393 243.986037 C 319.986491 243.355718 319.311523 243.986037 319.986491 245.982048 L 315.988607 245.982048 L 315.988607 247.978059 L 312.977214 249.974069 C 310.329264 249.34375 309.342773 249.974069 310.017741 252.022606 L 304.981445 254.018617 L 272.011882 275.974734 L 262.977702 280.019282 L 250.984049 289.00133 L 246.986165 289.00133 C 244.338216 289.684176 243.351725 289.00133 243.974772 287.005319 L 241.015299 287.005319 L 235.979004 283.013298 C 231.98112 283.643617 229.644694 283.013298 229.021647 281.017287 L 222.998861 281.017287 L 219.987467 279.021277 L 206.020833 279.021277 C 203.995931 281.017287 201.347982 281.647606 198.025065 281.017287 C 196.67513 283.013298 194.338704 283.643617 191.015788 283.013298 L 180.995117 289.00133 C 179.022135 288.318484 178.347168 289.00133 179.022135 290.99734 L 176.997233 290.99734 L 175.024251 293.991356 L 169.001465 298.981383 C 169.676432 300.347074 169.001465 300.662234 166.976562 299.979388 L 165.003581 304.023936 C 165.678548 305.337101 165.003581 305.652261 162.978678 305.021941 L 157.007812 316.998005 L 157.007812 322.986037 L 154.98291 324.982048 C 155.657878 328.974069 154.98291 332.020612 153.009928 334.016622 L 153.009928 343.996676 C 154.98291 345.30984 155.657878 348.356383 154.98291 352.978723 L 157.007812 356.025266 L 157.007812 361.015293 L 161.005697 366.005319 L 161.005697 368.999335 L 165.003581 372.991356 L 165.003581 374.987367 C 166.976562 374.357048 167.65153 374.987367 166.976562 376.983378 L 176.010742 384.021941 C 177.308757 383.339096 177.672201 384.021941 176.997233 386.017952 C 179.022135 385.335106 180.683594 386.017952 181.981608 388.013963 L 245.013184 388.013963 L 246.986165 386.017952 C 251.659017 384.652261 254.981934 385.335106 257.006836 388.013963 L 318.013509 388.013963 L 318.013509 386.017952 L 311.990723 380.975399 C 310.017741 381.658245 309.342773 380.975399 310.017741 378.979388 L 299.99707 372.991356 C 298.024089 373.674202 297.349121 372.991356 298.024089 370.995346 L 288.003418 365.007314 C 285.978516 365.69016 285.355469 365.007314 285.978516 363.011303 L 284.005534 363.011303 L 269.986979 354.974734 L 269.986979 345.992686 L 272.011882 342.99867 L 272.011882 334.016622 L 269.986979 332.020612 C 271.336914 325.980053 270.661947 322.355718 268.013997 320.990027 L 269.986979 317.996011 L 269.986979 315.001995 C 273.309896 316.31516 274.659831 315.68484 273.984863 313.005984 L 276.996257 313.005984 L 281.980632 309.013963 C 284.005534 309.644282 284.680501 309.013963 284.005534 307.017952 L 288.989909 305.021941 C 290.339844 305.652261 290.651367 305.021941 289.9764 303.025931 L 293.974284 303.025931 L 293.974284 300.977394 C 295.999186 301.660239 297.660645 300.977394 299.010579 298.981383 C 300.308594 299.664229 300.672038 298.981383 299.99707 296.985372 C 302.021973 297.668218 303.683431 296.985372 304.981445 294.989362 C 306.33138 295.672207 306.642904 294.989362 306.019857 292.993351 L 310.017741 292.993351 L 310.017741 290.99734 L 314.015625 290.99734 L 314.015625 289.00133 L 319 287.005319 C 320.349935 287.688165 320.661458 287.005319 319.986491 285.009309 L 325.022786 283.013298 C 326.320801 283.643617 326.684245 283.013298 326.009277 281.017287 L 333.018555 279.021277 L 371.024414 255.016622 L 376.008789 256.014628 L 380.993164 261.004654 L 388.988932 264.996676 L 408.978353 268.988697 L 422.010417 267.990691 L 430.006185 264.996676 L 434.004069 264.996676 L 448.022624 256.014628 C 449.320638 256.644947 449.684082 256.014628 449.009115 254.018617 L 453.006999 253.020612 L 457.004883 247.978059 C 456.329915 245.982048 457.004883 245.351729 458.977865 245.982048 L 465.000651 236.001995 L 467.025553 227.019947 L 468.998535 224.025931 C 467.6486 219.351064 468.012044 216.672207 469.985026 215.989362 L 468.998535 195.976729 L 465.000651 187.992686 C 465.675618 184.683511 465.000651 183.317819 462.975749 184.000665 L 462.975749 182.004654 L 458.977865 176.016622 L 457.004883 173.022606 C 451.657064 165.668883 445.01123 160.31117 437.015462 157.001995 C 434.99056 157.68484 434.315592 157.001995 434.99056 155.005984 L 418.999023 151.013963 Z M 84.993978 393.003989 L 558.509603 393.003989 C 559.18457 393.003989 559.340332 394.474734 558.976888 397.521277 L 557.990397 397.521277 L 557.523112 395.998005 L 85.980469 395.998005 L 85.513184 397.994016 Z M 85.513184 401.986037 L 87.01888 403.509309 L 87.01888 411.020612 L 84.993978 410.495346 Z M 87.01888 414.014628 C 88.78418 413.279255 89.459147 413.751995 88.991862 415.485372 L 89.978353 418.006649 L 294.49349 418.006649 L 295.47998 419.004654 L 309.498535 419.004654 L 311.523438 418.006649 L 312.509928 419.004654 L 338.522135 419.004654 L 343.50651 418.006649 L 344.493001 419.004654 L 368.480306 419.004654 L 369.518717 418.006649 L 417.493327 418.006649 L 418.479818 419.004654 L 419.518229 418.006649 L 557.990397 418.006649 L 558.509603 416.010638 L 558.976888 421.000665 L 329.487956 421.000665 L 322.997884 424.519947 C 323.776693 427.566489 322.478678 428.406915 319 426.988697 L 320.505697 423.994681 L 322.011393 423.521941 C 318.11735 424.047207 315.625163 423.206782 314.48291 421.000665 L 88.991862 421.000665 L 88.991862 417.481383 Z M 87.01888 414.014628 " transform="matrix(0.0752351,0,0,0.0743671,0,0)"/>
</g>
<mask id="mask2">
  <g filter="url(#alpha)">
<rect x="0" y="0" width="48" height="47" style="fill:rgb(0%,0%,0%);fill-opacity:0.996078;stroke:none;"/>
  </g>
</mask>
<clipPath id="clip3">
  <rect x="0" y="0" width="48" height="47"/>
</clipPath>
<g id="surface11" clip-path="url(#clip3)">
<path style="fill-rule:nonzero;fill:rgb(96.078432%,96.078432%,96.078432%);fill-opacity:1;stroke-width:1;stroke-linecap:butt;stroke-linejoin:miter;stroke:rgb(96.078432%,96.078432%,96.078432%);stroke-opacity:1;stroke-miterlimit:4;" d="M 412.508952 422.996676 L 427.981283 422.996676 L 427.981283 428.984707 L 415.520345 428.984707 L 415.001139 426.988697 L 412.508952 426.988697 L 411.003255 424.519947 Z M 418.012533 425.990691 L 418.999023 427.986702 L 425.02181 427.986702 L 425.02181 425.990691 Z M 29.490885 523.007314 L 30.996582 526.474069 L 30.010091 526.474069 Z M 36.500163 545.015957 C 38.05778 544.543218 38.525065 545.015957 38.005859 546.486702 Z M 595.477051 557.990027 L 595.996257 559.986037 L 594.023275 559.513298 Z M 593.504069 560.984043 L 592.517578 562.980053 Z M 581.510417 576.006649 L 579.485514 579.000665 Z M 568.478353 586.984707 L 567.491862 588.980718 Z M 72.013835 587.982713 L 73.986816 588.507979 L 72.013835 589.505984 Z M 84.474772 596.019282 L 85.513184 598.015293 C 83.644043 598.488032 83.280599 597.805186 84.474772 596.019282 Z M 95.481934 602.007314 L 97.974121 603.478059 L 96.520345 604.003324 Z M 538.520182 604.003324 L 537.481771 605.999335 Z M 112.511882 606.99734 L 115.004069 607.995346 C 115.679036 609.991356 115.004069 610.674202 112.979167 609.991356 Z M 524.501628 607.995346 L 525.020833 609.991356 L 522.995931 609.518617 Z M 524.501628 607.995346 " transform="matrix(0.0752351,0,0,0.0743671,0,0)"/>
</g>
<mask id="mask3">
  <g filter="url(#alpha)">
<rect x="0" y="0" width="48" height="47" style="fill:rgb(0%,0%,0%);fill-opacity:0.996078;stroke:none;"/>
  </g>
</mask>
<clipPath id="clip4">
  <rect x="0" y="0" width="48" height="47"/>
</clipPath>
<g id="surface14" clip-path="url(#clip4)">
<path style="fill-rule:nonzero;fill:rgb(0.392157%,0.392157%,0.392157%);fill-opacity:1;stroke-width:1;stroke-linecap:butt;stroke-linejoin:miter;stroke:rgb(0.392157%,0.392157%,0.392157%);stroke-opacity:1;stroke-miterlimit:4;" d="M 405.499674 154.007979 L 417.493327 154.007979 L 423.516113 156.003989 L 428.500488 156.003989 L 445.01123 163.988032 C 444.284342 165.773936 444.751628 166.456782 446.516927 165.984043 L 453.006999 170.974069 L 461.002767 182.477394 L 461.002767 185.996676 C 463.183431 185.15625 463.858398 186.311835 462.975749 189.515957 C 465.000651 190.829122 465.675618 193.507979 465.000651 197.5 L 467.025553 199.496011 L 467.025553 220.506649 L 465.000651 222.50266 L 462.975749 234.005984 C 461.002767 233.218085 460.327799 234.058511 461.002767 236.474734 L 453.006999 248.976064 L 449.009115 251.49734 C 449.52832 253.020612 449.009115 253.545878 447.503418 253.020612 L 445.01123 254.018617 C 445.738118 255.804521 445.218913 256.487367 443.505534 256.014628 L 431.511882 263.000665 L 420.50472 263.99867 L 412.508952 266.992686 C 411.522461 265.311835 409.186035 264.996676 405.499674 265.994681 L 401.50179 263.99867 L 390.494629 263.000665 C 388.885091 260.111702 386.08138 258.798537 381.979655 259.008644 C 382.758464 257.222739 382.239258 256.539894 380.525879 257.012633 C 378.656738 254.176197 375.645345 252.547872 371.491699 252.022606 L 353.994466 261.004654 C 354.721354 262.790559 354.254069 263.473404 352.48877 263.000665 L 342.000814 269.513963 C 342.623861 271.509973 341.429688 271.982713 338.522135 270.984707 L 335.978027 271.982713 L 334.524251 274.976729 C 331.097493 275.291888 328.761068 276.605053 327.514974 279.021277 L 323.984375 279.021277 L 322.011393 283.013298 L 319.519206 283.013298 L 311.990723 287.005319 L 311.990723 289.00133 L 307.992839 289.00133 C 308.719727 290.787234 308.252441 291.47008 306.487142 290.99734 L 291.482096 300.977394 L 285.978516 303.025931 C 286.809245 305.442154 285.45931 306.125 281.980632 305.021941 L 280.00765 309.013963 L 276.477051 309.013963 L 273.984863 313.005984 C 269.727376 312.218085 267.079427 313.37367 265.989095 316.525266 C 265.210286 323.301197 266.196777 328.291223 269.000488 331.495346 L 269.000488 342.525931 L 265.989095 353.503989 L 274.504069 361.015293 L 277.982747 361.015293 L 279.488444 364.009309 L 284.005534 365.007314 C 283.278646 366.793218 283.745931 367.476064 285.51123 367.003324 L 289.9764 368.999335 C 289.249512 370.785239 289.768717 371.468085 291.482096 370.995346 L 302.021973 376.983378 C 301.243164 378.821809 301.76237 379.452128 303.475749 378.979388 L 311.990723 383.023936 C 312.873372 385.177527 311.679199 385.860372 308.512044 385.019947 C 307.525553 386.648271 305.189128 387.015957 301.502767 386.017952 L 298.491374 385.019947 L 297.504883 386.017952 L 286.497721 386.017952 L 285.51123 385.019947 L 261.523926 385.019947 L 259.499023 386.017952 L 252.489746 382.025931 L 247.505371 382.025931 L 243.507487 385.019947 L 181.514323 385.019947 L 179.022135 384.021941 C 179.749023 382.183511 179.229818 381.553191 177.516439 382.025931 L 169.001465 374.514628 C 169.46875 372.78125 168.793783 372.255984 166.976562 372.991356 L 166.976562 370.522606 L 165.003581 367.003324 C 162.822917 367.84375 162.147949 366.688165 162.978678 363.484043 L 161.005697 359.019282 L 158.980794 358.494016 L 158.980794 350.509973 L 157.007812 346.517952 L 157.007812 329.499335 C 159.396159 327.450798 160.071126 323.931516 158.980794 318.994016 L 161.005697 318.994016 C 160.174967 315.474734 160.849935 313.951463 162.978678 314.476729 L 162.978678 311.482713 L 172.999349 296.985372 L 184.525716 289.00133 L 193.507975 285.009309 L 198.49235 285.009309 L 201.503743 283.013298 L 206.488118 283.013298 L 213.497396 281.017287 L 226.477539 285.009309 L 232.500326 285.009309 L 243.507487 291.995346 L 248.491862 292.993351 L 266.508301 281.017287 L 272.011882 279.021277 C 271.129232 276.81516 272.323405 276.132314 275.49056 277.025266 L 307.525553 255.016622 L 314.015625 253.020612 C 313.288737 251.182181 313.756022 250.551862 315.521322 251.024601 L 318.013509 249.974069 L 318.013509 247.978059 L 322.011393 247.978059 C 321.284505 246.192154 321.75179 245.509309 323.51709 245.982048 L 331.512858 239.994016 L 335.978027 238.996011 L 337.483724 236.001995 L 348.0236 230.486702 L 349.477376 228.017952 L 354.980957 225.496676 L 356.019368 223.500665 L 356.019368 194.505984 L 360.017253 188.517952 L 360.017253 184.525931 L 368.013021 174.493351 L 368.013021 172.024601 L 372.010905 170.974069 C 371.284017 169.188165 371.751302 168.557846 373.516602 168.978059 L 377.981771 165.984043 C 377.254883 164.198138 377.774089 163.515293 379.487467 163.988032 L 381.979655 162.990027 C 381.200846 160.994016 382.031576 160.31117 384.523763 160.994016 L 391.48112 157.001995 L 400.515299 156.003989 Z M 85.980469 397.994016 L 557.523112 397.994016 L 557.990397 398.519282 L 557.990397 416.010638 L 90.497559 416.010638 L 89.978353 414.487367 L 88.005371 411.493351 L 88.005371 402.511303 C 86.188151 401.775931 85.513184 400.25266 85.980469 397.994016 Z M 85.980469 397.994016 " transform="matrix(0.0752351,0,0,0.0743671,0,0)"/>
</g>
<mask id="mask4">
  <g filter="url(#alpha)">
<rect x="0" y="0" width="48" height="47" style="fill:rgb(0%,0%,0%);fill-opacity:0.996078;stroke:none;"/>
  </g>
</mask>
<clipPath id="clip5">
  <rect x="0" y="0" width="48" height="47"/>
</clipPath>
<g id="surface17" clip-path="url(#clip5)">
<path style="fill-rule:nonzero;fill:rgb(32.549021%,32.549021%,32.549021%);fill-opacity:1;stroke-width:1;stroke-linecap:butt;stroke-linejoin:miter;stroke:rgb(32.549021%,32.549021%,32.549021%);stroke-opacity:1;stroke-miterlimit:4;" d="M 404.513184 151.013963 L 418.479818 151.013963 L 434.99056 155.005984 C 434.263672 156.791888 434.782878 157.474734 436.496257 157.001995 C 445.115072 160.416223 451.916667 165.56383 457.004883 172.49734 L 458.977865 175.491356 L 462.975749 181.479388 L 462.975749 184.000665 C 465.208333 183.107713 465.883301 184.315824 465.000651 187.519947 L 468.998535 195.503989 L 469.985026 215.516622 C 468.115885 216.724734 467.804362 219.351064 468.998535 223.500665 L 467.025553 226.494681 L 465.000651 235.476729 L 458.977865 245.982048 C 457.212565 245.246676 456.537598 245.771941 457.004883 247.505319 L 453.006999 253.020612 L 449.009115 254.018617 C 449.736003 255.804521 449.216797 256.487367 447.503418 256.014628 L 433.484863 264.996676 L 429.486979 264.996676 L 421.491211 267.990691 L 408.511068 268.988697 L 388.521647 264.996676 L 380.525879 261.004654 L 375.489583 256.014628 L 370.505208 255.016622 L 332.499349 279.021277 L 326.009277 281.017287 C 326.736165 282.803191 326.21696 283.486037 324.503581 283.013298 L 319.986491 285.009309 C 320.713379 286.795213 320.246094 287.478059 318.480794 287.005319 L 314.015625 289.00133 L 314.015625 290.99734 L 310.017741 290.99734 L 310.017741 292.993351 L 306.019857 292.993351 C 306.746745 294.779255 306.227539 295.462101 304.51416 294.989362 C 303.787272 296.880319 302.281576 297.510638 299.99707 296.985372 C 300.723958 298.823803 300.256673 299.454122 298.491374 298.981383 C 297.764486 300.87234 296.258789 301.555186 293.974284 300.977394 L 293.974284 303.025931 L 289.9764 303.025931 C 290.755208 304.811835 290.236003 305.442154 288.522624 305.021941 L 284.005534 307.017952 C 284.888184 309.013963 284.057454 309.644282 281.513346 309.013963 L 276.477051 313.005984 L 273.984863 313.005984 C 274.815592 315.474734 273.465658 316.15758 269.986979 315.001995 L 269.986979 317.523271 L 268.013997 320.517287 C 270.402344 322.408245 271.077311 326.085106 269.986979 331.495346 L 272.011882 333.491356 L 272.011882 342.525931 L 269.986979 345.519947 L 269.986979 354.974734 L 283.486328 363.011303 L 285.978516 363.011303 C 285.251628 364.797207 285.770833 365.480053 287.484212 365.007314 L 298.024089 370.995346 C 297.24528 372.78125 297.764486 373.464096 299.477865 372.991356 L 310.017741 378.979388 C 309.290853 380.817819 309.758138 381.448138 311.523438 380.975399 L 318.013509 385.492686 L 317.494303 388.013963 L 256.48763 388.013963 C 255.189616 385.335106 251.814779 384.652261 246.51888 386.017952 L 244.493978 388.013963 L 181.514323 388.013963 C 180.787435 386.175532 179.281738 385.545213 176.997233 386.017952 C 177.724121 384.179521 177.256836 383.549202 175.491536 384.021941 L 166.976562 376.510638 C 167.443848 374.777261 166.820801 374.251995 165.003581 374.987367 L 165.003581 372.518617 L 161.005697 368.474069 L 161.005697 365.480053 L 157.007812 360.490027 L 157.007812 355.5 L 154.98291 352.505984 C 155.398275 348.40891 154.723307 345.414894 153.009928 343.523936 L 153.009928 333.491356 C 154.723307 331.547872 155.398275 328.553856 154.98291 324.509309 L 157.007812 322.513298 L 157.007812 316.525266 L 162.978678 305.021941 C 164.795898 305.757314 165.470866 305.232048 165.003581 303.49867 L 166.976562 299.979388 C 168.793783 300.714761 169.46875 300.242021 169.001465 298.508644 L 175.024251 293.991356 L 176.478027 290.99734 L 179.022135 290.99734 C 178.243327 289.211436 178.762533 288.52859 180.475911 289.00133 L 190.496582 283.013298 C 194.027181 283.538564 196.363607 282.855718 197.505859 281.017287 C 201.296061 281.490027 203.94401 280.807181 205.501628 279.021277 L 219.520182 279.021277 L 222.479655 281.017287 L 228.502441 281.017287 C 229.385091 283.223404 231.721517 283.853723 235.511719 283.013298 L 240.496094 287.005319 L 243.974772 287.005319 C 243.195964 289.00133 244.026693 289.684176 246.51888 289.00133 L 250.516764 289.00133 L 262.510417 280.019282 L 271.492676 275.974734 L 304.51416 254.018617 L 310.017741 252.022606 C 309.187012 249.974069 310.017741 249.34375 312.509928 249.974069 L 315.988607 247.978059 L 315.988607 245.982048 L 319.986491 245.982048 C 319.259603 244.196144 319.778809 243.513298 321.492188 243.986037 C 322.219076 242.200133 323.724772 241.517287 326.009277 241.990027 C 325.282389 240.204122 325.749674 239.521277 327.514974 239.994016 L 352.021484 225.023936 L 353.007975 220.506649 L 352.021484 219.508644 L 352.021484 200.494016 C 353.994466 199.180851 354.669434 196.501995 353.994466 192.509973 L 357.99235 185.523936 L 357.99235 182.004654 C 359.80957 182.740027 360.484538 182.214761 360.017253 180.481383 L 361.990234 176.016622 C 363.807454 176.751995 364.482422 176.226729 364.015137 174.493351 L 368.480306 168.978059 L 373.516602 164.986037 L 380.525879 158.998005 L 388.521647 155.005984 Z M 406.01888 154.007979 L 400.982585 156.003989 L 392.000326 157.001995 L 384.991048 160.994016 C 382.343099 160.31117 381.356608 160.994016 381.979655 162.990027 L 380.006673 163.988032 C 377.981771 163.357713 377.358724 163.988032 377.981771 165.984043 L 373.983887 168.978059 C 372.010905 168.347739 371.335938 168.978059 372.010905 170.974069 L 368.013021 172.024601 L 368.013021 175.018617 L 360.017253 184.99867 L 360.017253 188.990691 L 356.019368 194.978723 L 356.019368 224.025931 L 354.980957 226.021941 L 349.996582 228.017952 L 348.0236 231.011968 L 338.00293 236.001995 L 335.978027 238.996011 L 331.980143 239.994016 L 323.984375 245.982048 C 322.011393 245.351729 321.336426 245.982048 322.011393 247.978059 L 318.013509 247.978059 L 318.013509 249.974069 L 315.988607 251.024601 C 314.015625 250.341755 313.340658 251.024601 314.015625 253.020612 L 307.992839 255.016622 L 276.009766 277.025266 C 272.686849 276.34242 271.336914 277.025266 272.011882 279.021277 L 266.975586 281.017287 L 249.011068 292.993351 L 243.974772 291.995346 L 233.019531 285.009309 L 226.996745 285.009309 L 214.016602 281.017287 L 207.007324 283.013298 L 202.022949 283.013298 L 199.011556 285.009309 L 193.97526 285.009309 L 184.993001 289.00133 L 172.999349 296.985372 L 162.978678 312.007979 L 162.978678 315.001995 C 161.005697 314.319149 160.330729 315.68484 161.005697 318.994016 L 158.980794 318.994016 C 160.330729 323.668883 159.655762 327.345745 157.007812 330.024601 L 157.007812 346.990691 L 158.980794 350.982713 L 158.980794 359.019282 L 161.005697 359.019282 L 162.978678 364.009309 C 162.355632 366.688165 162.978678 367.68617 165.003581 367.003324 L 166.976562 370.995346 L 166.976562 372.991356 C 169.001465 372.308511 169.676432 372.991356 169.001465 374.987367 L 177.983724 382.025931 C 179.333659 381.343085 179.645182 382.025931 179.022135 384.021941 L 181.981608 385.019947 L 243.974772 385.019947 L 248.024577 382.025931 L 253.008952 382.025931 L 260.018229 386.017952 L 261.991211 385.019947 L 285.978516 385.019947 L 287.016927 386.017952 L 298.024089 386.017952 L 299.010579 385.019947 L 302.021973 386.017952 C 305.344889 387.331117 307.681315 387.015957 308.979329 385.019947 C 311.679199 385.650266 312.66569 385.019947 311.990723 383.023936 L 303.994954 378.979388 C 302.021973 379.662234 301.347005 378.979388 302.021973 376.983378 L 292.001302 370.995346 C 289.9764 371.678191 289.353353 370.995346 289.9764 368.999335 L 285.978516 367.003324 C 284.005534 367.68617 283.330566 367.003324 284.005534 365.007314 L 280.00765 364.009309 L 277.982747 361.015293 L 275.023275 361.015293 L 265.989095 353.976729 L 269.000488 342.99867 L 269.000488 332.020612 C 266.352539 328.65891 265.314128 323.668883 265.989095 316.998005 C 267.33903 313.68883 269.986979 312.323138 273.984863 313.005984 L 276.996257 309.013963 L 280.00765 309.013963 L 281.980632 305.021941 C 285.355469 306.335106 286.653483 305.652261 285.978516 303.025931 L 292.001302 300.977394 L 307.006348 290.99734 C 308.356283 291.680186 308.667806 290.99734 307.992839 289.00133 L 311.990723 289.00133 L 311.990723 287.005319 L 319.986491 283.013298 L 322.011393 283.013298 L 323.984375 279.021277 L 327.982259 279.021277 C 328.657227 276.34242 330.993652 274.976729 334.991536 274.976729 L 335.978027 271.982713 L 338.989421 270.984707 C 341.68929 271.667553 342.675781 271.352394 342.000814 269.986702 L 353.007975 263.000665 C 354.35791 263.683511 354.669434 263.000665 353.994466 261.004654 L 372.010905 252.022606 C 376.008789 252.652926 379.020182 254.333777 380.993164 257.012633 C 382.343099 256.329787 382.654622 257.012633 381.979655 259.008644 C 385.977539 259.008644 388.988932 260.321809 391.013835 263.000665 L 402.020996 263.99867 L 406.01888 265.994681 C 409.341797 265.311835 411.678223 265.679521 412.976237 266.992686 L 421.023926 263.99867 L 431.979167 263.000665 L 444.02474 256.014628 C 445.322754 256.644947 445.686198 256.014628 445.01123 254.018617 L 448.022624 253.020612 C 449.320638 253.650931 449.684082 253.335771 449.009115 252.022606 L 453.006999 248.976064 L 461.002767 237 C 460.327799 234.321144 461.002767 233.323138 462.975749 234.005984 L 465.000651 222.975399 L 467.025553 220.979388 L 467.025553 200.021277 L 465.000651 198.025266 C 465.675618 193.980718 465.000651 191.354388 462.975749 189.988697 C 463.650716 186.679521 462.975749 185.31383 461.002767 185.996676 L 461.002767 183.00266 L 453.006999 170.974069 L 446.984212 165.984043 C 445.01123 166.666888 444.336263 165.984043 445.01123 163.988032 L 429.019694 156.003989 L 423.983398 156.003989 L 418.012533 154.007979 Z M 85.980469 395.998005 L 557.523112 395.998005 L 557.990397 397.521277 L 558.976888 398.519282 L 558.976888 415.485372 L 557.990397 418.006649 L 419.518229 418.006649 L 418.479818 419.004654 L 417.493327 418.006649 L 379.487467 418.006649 L 344.493001 419.004654 L 339.508626 418.006649 L 338.522135 419.004654 L 312.509928 419.004654 L 310.485026 418.006649 L 309.498535 419.004654 L 295.47998 419.004654 L 294.49349 418.006649 L 89.978353 418.006649 L 88.991862 414.014628 L 87.01888 413.489362 L 87.01888 403.509309 C 85.20166 403.036569 84.526693 401.355718 84.993978 398.519282 Z M 85.980469 397.994016 C 85.357422 399.990027 85.980469 401.670878 88.005371 402.984043 L 88.005371 412.018617 L 89.978353 415.012633 L 91.016764 416.010638 L 557.990397 416.010638 L 557.990397 397.994016 Z M 418.012533 425.990691 L 424.502604 425.990691 L 425.02181 427.986702 L 418.479818 427.986702 Z M 418.012533 425.990691 " transform="matrix(0.0752351,0,0,0.0743671,0,0)"/>
</g>
</defs>
<g id="surface1">
<use xlink:href="#surface5" mask="url(#mask0)"/>
<use xlink:href="#surface8" mask="url(#mask1)"/>
<use xlink:href="#surface11" mask="url(#mask2)"/>
<path style="fill-rule:nonzero;fill:rgb(96.470588%,96.470588%,96.470588%);fill-opacity:1;stroke-width:1;stroke-linecap:butt;stroke-linejoin:miter;stroke:rgb(96.470588%,96.470588%,96.470588%);stroke-opacity:1;stroke-miterlimit:4;" d="M 125.02474 24.004654 L 135.512695 24.004654 L 136.499186 25.00266 L 141.483561 24.004654 L 143.508464 25.00266 L 144.494954 24.004654 L 513.494466 24.004654 L 514.013672 26.000665 L 525.488118 26.000665 C 526.630371 28.206782 529.122559 29.047207 533.016602 28.521941 C 531.510905 29.362367 531.718587 30.202793 533.483887 30.990691 L 538.987467 29.992686 L 538.987467 31.988697 L 542.985352 31.988697 C 542.258464 33.774601 542.777669 34.457447 544.491048 33.984707 L 546.983236 34.509973 C 546.412109 36.505984 547.554362 36.978723 550.513835 35.980718 L 561.00179 42.494016 L 560.482585 44.017287 L 567.024577 46.013298 C 566.245768 47.799202 566.764974 48.482048 568.478353 48.009309 L 572.008952 50.005319 C 571.282064 51.791223 571.749349 52.474069 573.514648 52.00133 L 576.993327 53.99734 C 576.266439 55.783245 576.785645 56.46609 578.499023 55.993351 L 584.002604 63.977394 C 585.819824 63.242021 586.442871 63.767287 585.975586 65.500665 L 588.986979 70.017952 L 591.998372 71.488697 L 594.023275 76.005984 C 595.996257 75.218085 596.671224 76.058511 595.996257 78.474734 L 602.019043 87.509309 L 602.019043 90.976064 L 603.992025 90.976064 C 602.849772 94.442819 603.52474 95.808511 606.016927 95.020612 L 606.016927 101.481383 C 607.989909 100.851064 608.664876 102.164229 607.989909 105.525931 C 609.859049 106.051197 610.534017 107.679521 610.014811 110.515957 L 610.014811 112.511968 L 610.482096 114.980718 L 611.987793 114.507979 C 612.974284 118.18484 612.66276 120.496011 611.001302 121.494016 L 611.987793 125.013298 L 614.012695 125.486037 L 614.012695 513.5 L 611.001302 515.023271 L 611.987793 523.007314 L 610.014811 523.007314 L 610.014811 530.518617 C 607.886068 529.835771 607.2111 531.516622 607.989909 535.508644 L 604.978516 539.500665 C 606.691895 540.49867 606.328451 541.496676 603.992025 542.494681 L 603.992025 545.488697 L 602.019043 549.007979 L 599.994141 549.480718 L 599.994141 551.476729 L 591.998372 562.507314 L 591.998372 565.974069 L 588.000488 568.495346 L 585.508301 573.012633 L 584.002604 572.487367 C 584.729492 574.693484 584.210286 575.53391 582.496908 575.008644 L 579.018229 579.99867 L 576.993327 579.99867 C 577.720215 581.784574 577.25293 582.46742 575.48763 581.994681 L 569.984049 585.986702 L 569.516764 587.982713 C 568.686035 586.511968 567.855306 586.722074 567.024577 588.507979 C 567.543783 590.03125 567.024577 590.556516 565.51888 589.978723 L 561.988281 592.5 C 562.507487 594.233378 561.676758 594.758644 559.496094 594.023271 L 554.511719 598.015293 L 552.019531 598.015293 C 552.85026 600.011303 552.019531 600.641622 549.475423 600.011303 L 547.502441 602.007314 L 544.491048 602.007314 L 542.518066 604.003324 C 538.987467 603.478059 536.651042 604.108378 535.508789 605.999335 L 533.016602 605.00133 L 531.510905 607.995346 L 527.513021 606.99734 L 522.476725 609.991356 L 518.478841 608.993351 L 515.986654 609.991356 L 515.519368 611.987367 L 124.505534 611.987367 L 122.999837 608.993351 L 115.004069 609.991356 C 115.730957 608.205452 115.211751 607.522606 113.498372 607.995346 L 111.525391 607.995346 L 107.008301 607.522606 L 107.475586 605.999335 L 101.50472 605.999335 L 100.985514 604.003324 L 98.493327 604.003324 L 96.520345 602.007314 L 92.522461 602.007314 C 91.691732 600.011303 89.874512 599.328457 87.01888 600.011303 L 84.474772 596.019282 L 80.996094 595.494016 L 81.515299 594.023271 L 79.490397 593.025266 L 77.984701 593.498005 L 77.984701 591.974734 L 75.025228 591.974734 C 75.752116 590.18883 75.23291 589.558511 73.519531 589.978723 L 73.519531 587.982713 L 70.508138 587.982713 L 65.991048 583.517952 C 66.510254 581.784574 65.679525 581.259309 63.498861 581.994681 L 59.500977 576.006649 C 58.306803 577.792553 57.11263 577.319814 56.022298 574.483378 L 53.997396 571.489362 L 49.480306 565.974069 C 47.507324 566.446809 46.988118 565.448803 47.974609 562.980053 L 46.001628 562.980053 L 46.001628 560.511303 L 43.976725 556.992021 L 42.003743 556.992021 L 42.003743 553.998005 L 39.978841 553.998005 L 39.978841 551.003989 C 38.213542 551.739362 37.538574 551.214096 38.005859 549.480718 L 38.005859 545.015957 C 36.188639 545.75133 35.513672 545.226064 35.980957 543.492686 L 31.983073 535.508644 L 31.983073 530.991356 C 29.802409 531.884309 29.127441 530.676197 30.010091 527.524601 L 30.996582 525.476064 L 29.490885 523.007314 L 27.985189 523.480053 C 27.20638 520.380984 27.517904 518.384973 29.0236 517.492021 L 27.985189 515.023271 L 26.012207 514.498005 L 26.012207 479.515293 L 26.998698 478.517287 L 26.012207 455.510638 L 26.012207 380.50266 L 26.998698 379.504654 L 26.012207 354.501995 L 26.012207 281.490027 L 26.998698 280.492021 L 26.012207 255.489362 L 26.012207 180.481383 L 26.998698 179.483378 L 26.012207 156.476729 L 26.012207 136.516622 L 26.998698 135.518617 L 26.012207 134.520612 L 26.012207 122.492021 C 28.556315 120.285904 29.179362 116.451463 27.985189 110.988697 C 30.477376 111.986702 31.463867 111.513963 30.996582 109.517952 L 30.010091 105.000665 C 31.775391 105.736037 32.450358 105.210771 31.983073 103.477394 L 31.983073 99.012633 C 34.007975 99.853059 34.682943 99.012633 34.007975 96.491356 C 36.188639 95.493351 36.863607 93.339761 35.980957 89.978059 L 38.005859 89.978059 L 38.005859 84.988032 L 42.003743 82.992021 L 42.003743 79.525266 L 46.001628 73.011968 L 49.999512 71.015957 L 49.999512 68.021941 C 51.816732 68.757314 52.491699 68.232048 52.024414 66.49867 L 53.997396 62.979388 C 55.814616 63.714761 56.489583 63.242021 56.022298 61.508644 L 57.99528 57.989362 L 65.004557 53.99734 C 64.277669 52.211436 64.744954 51.52859 66.510254 52.00133 L 77.984701 44.017287 C 77.205892 42.021277 78.036621 41.338431 80.476888 42.021277 C 81.255697 40.182846 82.709473 39.552527 84.993978 40.025266 C 84.26709 38.186835 84.786296 37.556516 86.499674 37.976729 L 88.991862 37.503989 C 88.524577 36.033245 89.043783 35.507979 90.497559 35.980718 C 91.484049 33.879654 93.664714 33.196809 96.98763 33.984707 L 96.98763 31.988697 L 102.023926 31.988697 L 102.023926 29.992686 C 106.177572 30.990691 108.046712 30.307846 107.475586 27.996676 L 113.498372 27.996676 C 115.211751 28.469415 115.730957 27.786569 115.004069 26.000665 L 119.521159 26.000665 L 121.494141 26.99867 C 122.636393 24.950133 123.778646 24.424867 125.02474 25.475399 Z M 407.991862 149.017952 L 407.005371 150.015957 L 395.99821 150.015957 C 395.99821 152.011968 394.336751 152.642287 391.013835 152.011968 L 391.013835 154.007979 L 385.977539 154.007979 L 384.991048 156.003989 L 380.006673 156.003989 L 379.020182 158 L 376.99528 158 L 372.997396 162.990027 L 372.997396 163.988032 L 368.999512 163.988032 L 368.999512 165.984043 L 365.001628 167.980053 L 358.978841 177.014628 L 357.005859 178.012633 L 357.005859 183.00266 L 354.980957 183.00266 C 353.007975 184.315824 352.333008 187.30984 353.007975 191.984707 L 350.983073 193.980718 L 350.983073 198.025266 L 349.010091 200.021277 L 349.996582 205.011303 L 349.010091 206.009309 L 349.010091 222.975399 L 346.985189 225.023936 C 345.012207 224.34109 344.33724 225.023936 345.012207 227.019947 L 341.014323 227.019947 L 341.014323 229.015957 C 338.989421 228.333112 337.691406 229.015957 337.016439 231.011968 C 334.991536 230.329122 334.316569 231.011968 334.991536 233.007979 L 333.018555 233.007979 L 325.022786 238.996011 C 322.997884 238.313165 322.322917 238.996011 322.997884 240.992021 L 321.024902 240.992021 L 321.024902 242.988032 L 316.975098 242.988032 L 308.979329 248.976064 C 307.006348 248.345745 306.33138 248.976064 307.006348 251.024601 L 304.981445 251.024601 L 304.981445 253.020612 L 299.99707 253.020612 L 299.010579 255.016622 L 298.024089 255.016622 L 298.024089 257.012633 C 295.324219 256.329787 293.66276 257.012633 292.987793 259.008644 C 291.014811 258.325798 290.339844 259.008644 291.014811 261.004654 C 288.989909 260.321809 287.691895 261.004654 287.016927 263.000665 C 283.64209 261.6875 282.344076 262.317819 283.019043 264.996676 L 277.982747 268.988697 C 275.334798 268.358378 274.348307 268.988697 275.023275 270.984707 L 269.000488 272.980718 L 266.975586 275.974734 L 265.002604 275.974734 L 250.984049 284.011303 L 249.011068 284.011303 L 245.999674 286.007314 C 243.351725 286.69016 242.313314 286.007314 242.988281 284.011303 L 238.990397 284.011303 L 238.990397 282.015293 L 234.992513 282.015293 L 234.992513 280.019282 C 231.669596 280.649601 229.644694 280.019282 229.021647 278.023271 L 196.000163 278.023271 L 181.981608 285.009309 C 180.008626 284.326463 179.333659 285.009309 180.008626 287.005319 L 176.010742 288.003324 C 173.98584 290.682181 171.337891 292.310505 168.014974 292.993351 L 168.014974 295.987367 L 161.992188 301.975399 L 160.019206 308.015957 L 157.994303 309.013963 C 156.021322 309.644282 155.346354 312.007979 156.021322 316 L 153.996419 317.996011 C 155.346354 321.357713 154.671387 322.670878 152.023438 321.988032 L 152.023438 354.974734 L 153.996419 357.023271 C 153.321452 359.019282 153.996419 359.649601 156.021322 359.019282 L 156.021322 367.003324 L 157.007812 368.00133 C 156.332845 369.99734 157.319336 370.3125 160.019206 368.999335 C 159.344238 372.991356 160.330729 375.985372 162.978678 377.981383 C 162.355632 379.977394 163.342122 380.34508 165.990072 378.979388 L 166.976562 383.023936 C 170.3514 382.34109 172.687826 383.654255 173.98584 387.015957 C 177.308757 386.333112 179.022135 387.015957 179.022135 389.011968 L 323.984375 389.011968 L 323.984375 387.015957 L 322.997884 385.019947 L 319.986491 382.025931 L 315.002116 382.025931 L 312.977214 377.981383 L 306.019857 373.989362 C 303.319987 374.672207 302.333496 373.989362 303.008464 371.993351 L 299.99707 369.99734 L 296.985677 369.99734 L 295.012695 366.005319 L 291.014811 366.005319 L 288.989909 362.013298 L 284.992025 362.013298 C 285.666992 360.017287 284.680501 359.334441 281.980632 360.017287 L 281.980632 358.021277 L 276.996257 358.021277 L 275.023275 353.976729 L 272.998372 353.976729 L 272.998372 322.986037 L 271.025391 321.988032 L 271.025391 317.996011 C 272.998372 318.678856 273.67334 317.996011 272.998372 316 L 276.996257 316 L 279.021159 312.007979 L 284.992025 312.007979 L 284.992025 311.009973 L 288.003418 308.015957 L 293.974284 306.019947 L 298.024089 301.975399 C 299.322103 302.658245 299.685547 301.975399 299.010579 299.979388 L 303.008464 299.979388 L 303.008464 297.983378 L 307.006348 297.983378 L 307.006348 295.987367 C 308.979329 296.670213 310.640788 295.987367 311.990723 293.991356 C 313.340658 294.674202 313.652181 293.991356 312.977214 291.995346 L 316.975098 289.999335 C 319 290.682181 319.674967 289.999335 319 288.003324 L 322.011393 288.003324 L 327.982259 284.011303 C 329.332194 284.641622 329.643717 284.011303 329.020671 282.015293 L 333.018555 282.015293 L 333.018555 280.019282 L 335.978027 280.019282 L 335.978027 278.023271 L 338.989421 278.023271 L 338.989421 275.974734 L 342.987305 275.974734 L 345.012207 271.982713 C 348.335124 272.665559 349.996582 271.982713 349.996582 269.986702 L 353.994466 269.986702 L 354.980957 267.990691 L 354.980957 265.994681 L 358.978841 265.994681 L 361.003743 262.00266 L 365.001628 262.00266 L 366.974609 258.010638 L 375.022298 258.010638 L 376.99528 262.00266 L 380.993164 262.00266 L 383.018066 265.994681 C 387.015951 265.311835 389.6639 265.994681 391.013835 267.990691 C 392.986816 267.307846 393.661784 267.990691 392.986816 269.986702 L 426.008301 269.986702 L 426.008301 267.990691 L 431.979167 267.990691 L 431.979167 265.994681 L 438.001953 265.994681 L 439.974935 262.00266 C 443.349772 263.315824 444.647786 262.685505 444.02474 260.006649 L 449.009115 259.008644 C 450.982096 259.691489 451.34554 258.640957 449.995605 256.014628 L 453.99349 256.014628 L 453.99349 252.022606 C 456.018392 252.652926 456.641439 252.022606 456.018392 249.974069 L 461.002767 247.978059 C 461.002767 243.986037 462.664225 241.307181 465.987142 239.994016 C 465.312174 236.68484 465.987142 235.319149 468.012044 236.001995 C 467.337077 232.692819 468.012044 230.644282 469.985026 230.013963 L 469.985026 219.981383 L 472.996419 218.983378 L 472.996419 200.021277 L 471.023438 201.019282 L 469.985026 190.986702 L 461.989258 175.018617 L 461.989258 173.022606 L 457.991374 170.974069 L 457.991374 167.980053 L 453.99349 167.980053 L 452.020508 163.988032 L 449.995605 163.988032 L 449.009115 161.992021 L 449.009115 159.996011 L 445.997721 159.996011 C 446.672689 158 445.997721 157.317154 444.02474 158 L 444.02474 156.003989 L 438.001953 156.003989 L 438.001953 154.007979 L 431.979167 154.007979 C 432.654134 151.329122 431.35612 150.646277 427.981283 152.011968 L 427.981283 150.015957 L 416.974121 150.015957 Z M 84.993978 393.003989 L 84.993978 411.020612 L 87.01888 411.020612 L 87.01888 416.010638 C 88.991862 416.640957 89.666829 418.321809 88.991862 421.000665 L 315.002116 421.000665 C 315.677083 422.996676 318.013509 423.994681 322.011393 423.994681 L 321.024902 423.994681 L 319 426.988697 C 322.322917 428.354388 323.672852 427.671543 322.997884 424.992686 L 330.007161 421.000665 L 558.976888 421.000665 L 558.976888 393.003989 Z M 412.976237 422.996676 L 411.003255 424.992686 L 412.976237 426.988697 L 415.001139 426.988697 L 415.98763 428.984707 L 427.981283 428.984707 L 427.981283 422.996676 Z M 412.976237 422.996676 " transform="matrix(0.0752351,0,0,0.0743671,0,0)"/>
<use xlink:href="#surface14" mask="url(#mask3)"/>
<use xlink:href="#surface17" mask="url(#mask4)"/>
</g>
</svg>
