<svg width="20" height="21" viewBox="0 0 20 21" fill="none" xmlns="http://www.w3.org/2000/svg">
<path fill-rule="evenodd" clip-rule="evenodd" d="M7.03723 6.84267C7.03723 5.18071 8.38452 3.83341 10.0465 3.83341C11.7085 3.83341 13.0557 5.18071 13.0557 6.84267C13.0557 8.50464 11.7085 9.85193 10.0465 9.85193C8.38452 9.85193 7.03723 8.50464 7.03723 6.84267ZM10.0465 2.16675C7.46405 2.16675 5.37056 4.26023 5.37056 6.84267C5.37056 8.36739 6.10033 9.72165 7.22963 10.5752C3.98936 11.6539 1.66675 14.5711 1.66675 18.0001C1.66675 18.4603 2.06179 18.8334 2.5491 18.8334C3.03641 18.8334 3.43145 18.4603 3.43145 18.0001C3.43145 14.5743 6.3728 11.7964 10.0001 11.7964C13.6274 11.7964 16.5687 14.5743 16.5687 18.0001C16.5687 18.4603 16.9638 18.8334 17.4511 18.8334C17.9384 18.8334 18.3334 18.4603 18.3334 18.0001C18.3334 14.5938 16.0414 11.6924 12.8346 10.5968C13.9802 9.74459 14.7224 8.38031 14.7224 6.84267C14.7224 4.26023 12.6289 2.16675 10.0465 2.16675Z" fill="#555555"/>
</svg>
