<svg width="20" height="20" viewBox="0 0 20 20" fill="none" xmlns="http://www.w3.org/2000/svg">
<path fill-rule="evenodd" clip-rule="evenodd" d="M7.03723 6.34243C7.03723 4.68046 8.38452 3.33317 10.0465 3.33317C11.7085 3.33317 13.0557 4.68046 13.0557 6.34243C13.0557 8.0044 11.7085 9.35169 10.0465 9.35169C8.38452 9.35169 7.03723 8.0044 7.03723 6.34243ZM10.0465 1.6665C7.46405 1.6665 5.37056 3.75999 5.37056 6.34243C5.37056 7.86714 6.10033 9.22141 7.22963 10.075C3.98936 11.1536 1.66675 14.0709 1.66675 17.4999C1.66675 17.9601 2.06179 18.3332 2.5491 18.3332C3.03641 18.3332 3.43145 17.9601 3.43145 17.4999C3.43145 14.0741 6.3728 11.2962 10.0001 11.2962C13.6274 11.2962 16.5687 14.0741 16.5687 17.4999C16.5687 17.9601 16.9638 18.3332 17.4511 18.3332C17.9384 18.3332 18.3334 17.9601 18.3334 17.4999C18.3334 14.0935 16.0414 11.1921 12.8346 10.0966C13.9802 9.24435 14.7224 7.88006 14.7224 6.34243C14.7224 3.75999 12.6289 1.6665 10.0465 1.6665Z" fill="#1D1D1D"/>
</svg>
