<svg width="20" height="20" viewBox="0 0 20 20" fill="none" xmlns="http://www.w3.org/2000/svg">
  <path d="M6.5 9C8.15685 9 9.5 7.65685 9.5 6C9.5 4.34315 8.15685 3 6.5 3C4.84315 3 3.5 4.34315 3.5 6C3.5 7.65685 4.84315 9 6.5 9Z" fill="#2D2D2D"/>
  <path d="M13 8.5C14.6569 8.5 16 7.15685 16 5.5C16 3.84315 14.6569 2.5 13 2.5C11.3431 2.5 10 3.84315 10 5.5C10 7.15685 11.3431 8.5 13 8.5Z" fill="#2D2D2D"/>
  <path d="M2 15.75C2 13.6789 3.6789 12 5.75 12H7.25C9.3211 12 11 13.6789 11 15.75V16.25C11 17.2165 10.2165 18 9.25 18H3.75C2.7835 18 2 17.2165 2 16.25V15.75Z" fill="#2D2D2D"/>
  <path d="M12.75 11.5H13.25C15.3211 11.5 17 13.1789 17 15.25V15.75C17 16.7165 16.2165 17.5 15.25 17.5H11.5V15.75C11.5 14.1606 11.0132 12.7015 10.1818 11.5H12.75Z" fill="#2D2D2D"/>
</svg>
