<svg width="24" height="24" viewBox="0 0 20 20" fill="none" xmlns="http://www.w3.org/2000/svg">
<path id="Union" fill-rule="evenodd" clip-rule="evenodd" d="M7.89114 0.0530179C9.03598 0.181217 10.0654 0.783979 10.7912 1.74997L10.7901 1.74885C11.1166 2.18293 11.0553 2.82055 10.6539 3.17254C10.2526 3.52565 9.66299 3.4593 9.33753 3.02522C8.92784 2.47868 8.34554 2.13794 7.69774 2.06485C7.05098 1.99175 6.41565 2.19642 5.9103 2.64062C5.40495 3.08482 5.08989 3.71457 5.0223 4.41517C4.99526 4.69968 5.00878 4.98869 5.06701 5.26758C5.12524 5.54647 5.22506 5.81412 5.36336 6.05702C5.43199 6.17735 5.50789 6.29993 5.59732 6.40339C5.64638 6.46053 5.70244 6.51133 5.75823 6.56189C5.81004 6.60884 5.86162 6.65558 5.90718 6.70702C6.05483 6.87457 6.1505 7.09161 6.1505 7.32665C6.1505 7.35701 6.14842 7.38737 6.1453 7.41773C6.13386 7.63815 6.1089 8.2128 6.1505 8.5929L6.14634 8.58952C6.18897 9.04272 5.94253 9.48579 5.52765 9.64435C3.34092 10.4788 1.87166 12.6368 1.87166 15.0152C1.87166 15.5741 1.45262 16.0273 0.935832 16.0273C0.419045 16.0273 0 15.5741 0 15.0152C0 11.9654 1.75313 9.19003 4.41193 7.94515C4.33394 7.8923 4.26116 7.8282 4.19773 7.74948C3.41579 6.77899 3.0373 5.488 3.15999 4.20713C3.27957 2.96899 3.83691 1.85568 4.73011 1.07074C5.62331 0.285801 6.74631 -0.076306 7.89114 0.0530179ZM7.57031 8.612C7.57031 9.9735 8.17053 11.1973 9.12005 12.033C6.28254 13.1567 4.25586 15.8239 4.25586 18.9906C4.25586 19.533 4.69556 19.9727 5.23796 19.9727C5.78035 19.9727 6.22005 19.533 6.22005 18.9906C6.22005 15.9645 8.81726 13.4264 12.1279 13.4264C15.4385 13.4264 18.0358 15.9645 18.0358 18.9906C18.0358 19.533 18.4755 19.9727 19.0179 19.9727C19.5602 19.9727 19.9999 19.533 19.9999 18.9906C19.9999 15.8237 17.973 13.1563 15.1351 12.0327C16.0844 11.197 16.6842 9.97337 16.6842 8.612C16.6842 6.09893 14.6403 4.05508 12.1272 4.05508C9.61416 4.05508 7.57031 6.09893 7.57031 8.612ZM12.1272 6.01927C10.6977 6.01927 9.5345 7.1825 9.5345 8.612C9.5345 10.0415 10.6977 11.2047 12.1272 11.2047C13.5567 11.2047 14.72 10.0415 14.72 8.612C14.72 7.1825 13.5567 6.01927 12.1272 6.01927Z" fill="currentColor"/>
</svg>
