<svg width="24" height="24" viewBox="0 0 24 24" fill="none" xmlns="http://www.w3.org/2000/svg">
<path fill-rule="evenodd" clip-rule="evenodd" d="M12.3635 6.13991C12.012 5.78844 12.012 5.21859 12.3635 4.86712C12.715 4.51565 13.2848 4.51565 13.6363 4.86712L20.1363 11.3671C20.3051 11.5359 20.3999 11.7648 20.3999 12.0035C20.3999 12.2422 20.3051 12.4711 20.1363 12.6399L13.6363 19.1399C13.2848 19.4914 12.715 19.4914 12.3635 19.1399C12.012 18.7884 12.012 18.2186 12.3635 17.8671L18.2271 12.0035L12.3635 6.13991ZM4.3633 6.13991C4.01183 5.78844 4.01183 5.21859 4.3633 4.86712C4.71477 4.51565 5.28462 4.51565 5.63609 4.86712L12.1361 11.3671C12.3049 11.5359 12.3997 11.7648 12.3997 12.0035C12.3997 12.2422 12.3049 12.4711 12.1361 12.6399L5.63609 19.1399C5.28462 19.4914 4.71477 19.4914 4.3633 19.1399C4.01183 18.7884 4.01183 18.2186 4.3633 17.8671L10.2269 12.0035L4.3633 6.13991Z" fill="#C6C6C6"/>
</svg>
