<svg width="20" height="21" viewBox="0 0 20 21" fill="none" xmlns="http://www.w3.org/2000/svg">
<path id="Union" fill-rule="evenodd" clip-rule="evenodd" d="M2 18.5V2.5H18V18.5H2ZM0 1.61111C0 0.997462 0.497461 0.5 1.11111 0.5H18.8889C19.5025 0.5 20 0.997461 20 1.61111V19.3889C20 20.0025 19.5025 20.5 18.8889 20.5H1.11111C0.497462 20.5 0 20.0025 0 19.3889V1.61111ZM9.99982 6.61112C10.5521 6.61112 10.9998 7.05884 10.9998 7.61112V9.50001H12.8889C13.4412 9.50001 13.8889 9.94772 13.8889 10.5C13.8889 11.0523 13.4412 11.5 12.8889 11.5H10.9998V13.3889C10.9998 13.9412 10.5521 14.3889 9.99982 14.3889C9.44754 14.3889 8.99982 13.9412 8.99982 13.3889V11.5H7.11109C6.55881 11.5 6.11109 11.0523 6.11109 10.5C6.11109 9.94772 6.55881 9.50001 7.11109 9.50001H8.99982V7.61112C8.99982 7.05884 9.44754 6.61112 9.99982 6.61112Z" fill="#2D2D2D"/>
</svg>
