<svg width="24" height="24" viewBox="0 0 24 24" fill="none" xmlns="http://www.w3.org/2000/svg">
<g id="Icon/Link">
<path id="Vector" d="M11.0689 17.4666C11.1653 17.5669 11.2418 17.6862 11.2941 17.8174C11.3463 17.9487 11.3731 18.0895 11.3731 18.2316C11.3731 18.3737 11.3463 18.5145 11.2941 18.6458C11.2418 18.777 11.1653 18.8963 11.0689 18.9966L10.6276 19.4574C10.1592 19.9484 9.60215 20.3375 8.98878 20.6022C8.37541 20.867 7.71785 21.0022 7.05414 21C6.05461 21.0003 5.07744 20.6911 4.24626 20.1114C3.41508 19.5317 2.76723 18.7076 2.38469 17.7434C2.00214 16.7792 1.90208 15.7181 2.09717 14.6945C2.29225 13.6709 2.77372 12.7307 3.48066 11.9928L4.97823 10.4291L6.4758 8.86537C7.11286 8.20026 7.90861 7.72503 8.78064 7.48888C9.65268 7.25274 10.5693 7.26427 11.4356 7.52227C12.302 7.78027 13.0865 8.27537 13.7081 8.95632C14.3296 9.63726 14.7656 10.4793 14.9708 11.3953C15.0048 11.5345 15.0118 11.6795 14.9915 11.8216C14.9711 11.9637 14.9238 12.1002 14.8523 12.223C14.7808 12.3458 14.6865 12.4525 14.575 12.5368C14.4635 12.621 14.3371 12.6812 14.203 12.7138C14.069 12.7464 13.93 12.7507 13.7944 12.7265C13.6587 12.7023 13.529 12.6501 13.4129 12.5729C13.2968 12.4957 13.1967 12.3951 13.1183 12.2769C13.0399 12.1588 12.9849 12.0255 12.9565 11.8848C12.8347 11.3442 12.5769 10.8472 12.2096 10.4455C11.8423 10.0437 11.3789 9.75166 10.8673 9.59953C10.3557 9.4474 9.81446 9.4407 9.29956 9.58014C8.78465 9.71958 8.31476 10.0001 7.93846 10.3927L4.94332 13.5201C4.52582 13.9557 4.2414 14.5108 4.12604 15.1152C4.01068 15.7196 4.06956 16.3461 4.29523 16.9156C4.52089 17.485 4.90322 17.9718 5.39384 18.3143C5.88447 18.6569 6.46136 18.8398 7.05155 18.84C7.44371 18.8412 7.83219 18.7612 8.19452 18.6045C8.55685 18.4479 8.88581 18.2177 9.16237 17.9274L9.60281 17.4666C9.69891 17.3658 9.81314 17.2858 9.93894 17.2312C10.0647 17.1766 10.1996 17.1485 10.3359 17.1485C10.4721 17.1485 10.607 17.1766 10.7328 17.2312C10.8586 17.2858 10.9728 17.3658 11.0689 17.4666ZM20.5198 4.54541C19.5718 3.55588 18.2863 3 16.9459 3C15.6054 3 14.3199 3.55588 13.3719 4.54541L12.9315 5.00531C12.7372 5.2082 12.628 5.48337 12.628 5.7703C12.628 6.05723 12.7372 6.33241 12.9315 6.53529C13.1258 6.73818 13.3893 6.85216 13.6641 6.85216C13.9389 6.85216 14.2024 6.73818 14.3968 6.53529L14.8381 6.0745C15.3981 5.4897 16.1577 5.16116 16.9497 5.16116C17.7418 5.16116 18.5014 5.4897 19.0614 6.0745C19.6215 6.6593 19.9361 7.45245 19.9361 8.27948C19.9361 9.10651 19.6215 9.89966 19.0614 10.4845L16.0611 13.6074C15.7845 13.8978 15.4556 14.1279 15.0933 14.2845C14.7309 14.4412 14.3424 14.5212 13.9503 14.52C13.2776 14.5195 12.6247 14.2818 12.0976 13.8452C11.5706 13.4087 11.2002 12.7991 11.0465 12.1152C10.9843 11.8362 10.8185 11.5944 10.5856 11.443C10.3527 11.2916 10.0717 11.243 9.80449 11.308C9.53727 11.3729 9.30569 11.546 9.1607 11.7892C9.01571 12.0324 8.96918 12.3258 9.03136 12.6048C9.29089 13.763 9.91749 14.7957 10.8096 15.5354C11.7016 16.2751 12.8068 16.6784 13.946 16.68H13.9503C14.6143 16.6819 15.2721 16.5463 15.8856 16.2811C16.4992 16.0158 17.0562 15.6262 17.5246 15.1347L20.5198 12.0072C20.9891 11.5173 21.3613 10.9357 21.6153 10.2955C21.8693 9.65538 22 8.96925 22 8.27633C22 7.58341 21.8693 6.89728 21.6153 6.25713C21.3613 5.61697 20.9891 5.03532 20.5198 4.54541Z" fill="#2D2D2D"/>
</g>
</svg>
