<svg width="142" height="32" viewBox="0 0 142 32" fill="none" xmlns="http://www.w3.org/2000/svg">
<path d="M27.9195 18.7289L24.811 12.0767C24.1519 10.6667 23.1832 9.49838 22.0214 8.61753C20.3905 7.37272 18.3795 6.69067 16.3225 6.69067C16.0987 6.69067 15.8749 6.69985 15.6512 6.71514C14.5506 6.79466 13.444 7.07299 12.3833 7.56541C10.1209 8.61753 8.40422 10.4863 7.54894 12.8291C6.69672 15.1719 6.80708 17.7043 7.86162 19.9615L8.35824 21.0228C9.67029 21.2828 11.0007 20.9678 12.043 20.2215L11.1969 18.4108C10.5562 17.0406 10.4888 15.5053 11.0069 14.0831C11.5249 12.6639 12.5672 11.5292 13.9375 10.89C14.753 10.5107 15.6144 10.3425 16.4574 10.3639C18.4377 10.4098 20.3261 11.4925 21.3193 13.3184C21.3745 13.4194 21.4266 13.5234 21.4757 13.6274L24.5841 20.2796C25.2248 21.6498 25.2923 23.1882 24.7742 24.6074C24.2561 26.0265 23.2138 27.1612 21.8405 27.8004C19.0692 29.0911 15.7738 27.9442 14.3943 25.2435C13.3275 25.8614 12.1503 26.2865 10.9088 26.4853L10.9701 26.6137C12.555 30.0056 15.9363 31.9998 19.4586 31.9998C20.7798 31.9998 22.1225 31.7184 23.3947 31.1281C25.6601 30.0729 27.3768 28.2042 28.2321 25.8614C29.0844 23.5216 28.974 20.9892 27.9195 18.7289Z" fill="#FF8400"/>
<path fill-rule="evenodd" clip-rule="evenodd" d="M6.54504 7.40744C6.545 7.40754 6.54496 7.40764 6.54493 7.40774L4.02625 14.316C2.95417 17.255 4.47305 20.508 7.41805 21.5793C10.361 22.6499 13.6184 21.1333 14.6913 18.1926C14.6914 18.1925 14.6914 18.1924 14.6914 18.1923L17.21 11.2843L17.2101 11.284C18.2822 8.34502 16.7633 5.09198 13.8183 4.02066C10.8754 2.95011 7.61795 4.46673 6.54504 7.40744ZM3.08591 6.14944C4.8539 1.30281 10.223 -1.1998 15.0784 0.566453C19.9316 2.33195 22.4377 7.69341 20.6692 12.5419C20.6692 12.542 20.6692 12.5422 20.6691 12.5423L18.1506 19.4502L18.1504 19.4506C16.3825 24.2972 11.0134 26.7998 6.158 25.0335C1.30472 23.2681 -1.20136 17.9066 0.56713 13.0581C0.567167 13.058 0.567204 13.0578 0.567241 13.0577L3.08591 6.14944Z" fill="#FFA94C"/>
<path fill-rule="evenodd" clip-rule="evenodd" d="M54.2118 6.11353C55.24 6.11353 56.0736 6.94709 56.0736 7.97534C56.0736 9.0036 55.24 9.83716 54.2118 9.83716C53.1835 9.83716 52.35 9.0036 52.35 7.97534C52.35 6.94709 53.1835 6.11353 54.2118 6.11353ZM48.483 22.6154C49.3716 22.6154 50.0921 23.3358 50.0921 24.2244C50.0921 25.1131 49.3716 25.8335 48.483 25.8335H40.0179H38.7998C37.6952 25.8335 36.7998 24.9381 36.7998 23.8335V22.6154V8.96431C36.7998 8.07565 37.5202 7.35524 38.4089 7.35524C39.2975 7.35524 40.0179 8.07565 40.0179 8.96431V22.6154H48.483ZM83.1541 11.3046C84.611 11.3046 85.3174 13.0865 84.2562 14.0847L79.8118 18.2655L84.1252 23.3061C84.9918 24.3188 84.2752 25.882 82.9423 25.8864C82.4839 25.8879 82.0479 25.6882 81.7497 25.3401L77.5291 20.4139L77.115 20.8032V24.2515C77.115 25.1402 76.3946 25.8606 75.5059 25.8606C74.6173 25.8606 73.8969 25.1402 73.8969 24.2515V8.96431C73.8969 8.07565 74.6173 7.35524 75.5059 7.35524C76.3946 7.35524 77.115 8.07565 77.115 8.96431V16.3845L82.0521 11.7413C82.3504 11.4608 82.7445 11.3046 83.1541 11.3046ZM55.8211 24.2736V12.9357C55.8211 12.047 55.1007 11.3266 54.212 11.3266C53.3233 11.3266 52.6029 12.047 52.6029 12.9357V24.2736C52.6029 25.1622 53.3233 25.8826 54.212 25.8826C55.1007 25.8826 55.8211 25.1622 55.8211 24.2736ZM66.0529 11.3044C64.2024 11.3044 62.5629 12.2049 61.5462 13.5916V12.9135C61.5462 12.0248 60.8258 11.3044 59.9371 11.3044C59.0485 11.3044 58.3281 12.0248 58.3281 12.9135V24.2266C58.3281 25.1289 59.0596 25.8604 59.962 25.8604C60.8643 25.8604 61.5959 25.1289 61.5959 24.2266V17.849C61.5959 15.9793 63.1113 14.4639 64.981 14.4639C66.8507 14.4639 68.3661 15.9793 68.3661 17.849V24.2243C68.3661 25.1279 69.0986 25.8604 70.0022 25.8604C70.9059 25.8604 71.6384 25.1279 71.6384 24.2243V16.8899C71.6384 13.8049 69.1379 11.3044 66.0529 11.3044ZM98.8032 14.1671C99.6256 12.4726 101.363 11.3049 103.372 11.3044C106.175 11.3051 108.448 13.5785 108.448 16.3821V24.2243C108.448 25.1279 107.716 25.8605 106.812 25.8605C105.909 25.8605 105.176 25.1279 105.176 24.2243V17.392C105.176 15.7751 103.865 14.4639 102.248 14.4639C100.631 14.4639 99.3199 15.7751 99.3199 17.392V24.2192C99.3199 25.1257 98.5851 25.8605 97.6787 25.8605C96.7723 25.8605 96.0375 25.1257 96.0375 24.2192V17.392C96.0375 15.7751 94.7263 14.4639 93.1094 14.4639C91.4924 14.4639 90.1812 15.7751 90.1812 17.392V24.2215C90.1812 25.1267 89.4475 25.8605 88.5423 25.8605C87.6371 25.8605 86.9033 25.1267 86.9033 24.2215V12.9135C86.9033 12.0248 87.6237 11.3044 88.5124 11.3044C89.401 11.3044 90.1214 12.0248 90.1214 12.9135V13.4043C91.0445 12.1327 92.5418 11.3044 94.2332 11.3044C96.2429 11.3044 97.9806 12.4723 98.8032 14.1671ZM117.588 25.86C113.482 25.86 110.141 22.5189 110.141 18.4127C110.141 14.3066 113.482 10.9655 117.588 10.9655C121.694 10.9655 125.035 14.3066 125.035 18.4127C125.035 22.5189 121.694 25.86 117.588 25.86ZM117.588 14.1249C115.224 14.1249 113.3 16.0488 113.3 18.4127C113.3 20.7767 115.224 22.7005 117.588 22.7005C119.952 22.7005 121.876 20.7767 121.876 18.4127C121.876 16.0488 119.952 14.1249 117.588 14.1249ZM138.582 12.9135C138.582 12.0248 139.302 11.3044 140.191 11.3044C141.08 11.3044 141.8 12.0248 141.8 12.9135V24.2514C141.8 25.1401 141.08 25.8605 140.191 25.8605C139.302 25.8605 138.582 25.1401 138.582 24.2514V24.0618C137.327 25.1135 135.712 25.7476 133.951 25.7476C129.969 25.7476 126.729 22.5081 126.729 18.526C126.729 14.544 129.969 11.3044 133.951 11.3044C135.712 11.3044 137.327 11.9386 138.582 12.9902V12.9135ZM130.227 18.6479C130.227 20.9453 132.096 22.8139 134.393 22.8139C136.691 22.8139 138.559 20.9453 138.559 18.6479C138.559 16.3505 136.691 14.4819 134.393 14.4819C132.096 14.4819 130.227 16.3505 130.227 18.6479Z" fill="#FF8400"/>
</svg>
