<svg width="129" height="32" viewBox="0 0 129 32" fill="none" xmlns="http://www.w3.org/2000/svg">
<path d="M27.9195 18.7291L24.811 12.0768C24.1519 10.6668 23.1832 9.4985 22.0214 8.61765C20.3905 7.37284 18.3795 6.6908 16.3225 6.6908C16.0987 6.6908 15.8749 6.69997 15.6512 6.71526C14.5506 6.79478 13.444 7.07311 12.3833 7.56553C10.1209 8.61765 8.40422 10.4864 7.54894 12.8292C6.69672 15.172 6.80708 17.7045 7.86162 19.9616L8.35824 21.0229C9.67029 21.2829 11.0007 20.9679 12.043 20.2216L11.1969 18.411C10.5562 17.0408 10.4888 15.5054 11.0069 14.0832C11.5249 12.664 12.5672 11.5293 13.9375 10.8901C14.753 10.5109 15.6144 10.3426 16.4574 10.3641C18.4377 10.4099 20.3261 11.4926 21.3193 13.3186C21.3745 13.4195 21.4266 13.5235 21.4757 13.6275L24.5841 20.2797C25.2248 21.6499 25.2923 23.1883 24.7742 24.6075C24.2561 26.0266 23.2138 27.1613 21.8405 27.8006C19.0692 29.0913 15.7738 27.9443 14.3943 25.2437C13.3275 25.8615 12.1503 26.2866 10.9088 26.4854L10.9701 26.6139C12.555 30.0057 15.9363 31.9999 19.4586 31.9999C20.7798 31.9999 22.1225 31.7185 23.3947 31.1282C25.6601 30.073 27.3768 28.2043 28.2321 25.8615C29.0844 23.5217 28.974 20.9893 27.9195 18.7291Z" fill="#FF8400"/>
<path fill-rule="evenodd" clip-rule="evenodd" d="M6.54504 7.40756C6.545 7.40766 6.54496 7.40776 6.54493 7.40787L4.02625 14.3162C2.95417 17.2551 4.47305 20.5081 7.41805 21.5795C10.361 22.65 13.6184 21.1334 14.6913 18.1927C14.6914 18.1926 14.6914 18.1925 14.6914 18.1924L17.21 11.2844L17.2101 11.2841C18.2822 8.34515 16.7633 5.0921 13.8183 4.02078C10.8754 2.95023 7.61795 4.46686 6.54504 7.40756ZM3.08591 6.14957C4.8539 1.30293 10.223 -1.19968 15.0784 0.566576C19.9316 2.33207 22.4377 7.69354 20.6692 12.5421C20.6692 12.5422 20.6692 12.5423 20.6691 12.5424L18.1506 19.4504L18.1504 19.4507C16.3825 24.2973 11.0134 26.7999 6.158 25.0337C1.30472 23.2682 -1.20136 17.9067 0.56713 13.0582C0.567167 13.0581 0.567204 13.058 0.567241 13.0579L3.08591 6.14957Z" fill="#FFA94C"/>
<path fill-rule="evenodd" clip-rule="evenodd" d="M53.8625 5.953C54.9018 5.953 55.7442 6.79546 55.7442 7.83468C55.7442 8.8739 54.9018 9.71636 53.8625 9.71636C52.8233 9.71636 51.9808 8.8739 51.9808 7.83468C51.9808 6.79546 52.8233 5.953 53.8625 5.953ZM40.0523 8.85651C40.0523 7.95837 39.3242 7.23029 38.426 7.23029C37.5279 7.23029 36.7998 7.95837 36.7998 8.85651V22.6532V23.6248C36.7998 24.8845 37.821 25.9056 39.0806 25.9056H40.0523H48.6076C49.5058 25.9056 50.2338 25.1776 50.2338 24.2794C50.2338 23.3813 49.5058 22.6532 48.6076 22.6532H40.0523V8.85651ZM94.7418 18.5101C94.7418 14.3624 98.1163 10.988 102.264 10.988C106.412 10.988 109.786 14.3624 109.786 18.5101C109.786 19.0773 109.297 19.4988 108.73 19.4988H98.0467C98.496 21.4124 100.216 22.8413 102.264 22.8413C103.286 22.8413 104.226 22.485 104.968 21.8901C105.524 21.4445 106.242 21.1654 106.925 21.3684C107.967 21.6782 108.431 22.8915 107.656 23.6542C106.239 25.0503 104.282 26.0322 102.264 26.0322C98.1163 26.0322 94.7418 22.6577 94.7418 18.5101ZM102.263 14.1788C100.47 14.1788 98.9283 15.2736 98.2714 16.8303H106.254C105.597 15.2736 104.056 14.1788 102.263 14.1788ZM125.806 12.4792C125.978 11.8064 126.584 11.3358 127.279 11.3358C128.271 11.3358 128.998 12.2713 128.752 13.2328L125.897 24.3898C125.648 25.365 124.769 26.047 123.763 26.047H123.704C122.697 26.047 121.818 25.365 121.569 24.3898L119.799 17.47L118.057 24.2793C117.791 25.3195 116.854 26.047 115.78 26.047H115.721C114.781 26.047 113.961 25.4105 113.728 24.5003L110.846 13.2328C110.6 12.2713 111.326 11.3358 112.319 11.3358C113.013 11.3358 113.62 11.8064 113.792 12.4792L115.864 20.5811L117.841 12.856C118.069 11.9615 118.876 11.3358 119.799 11.3358C120.722 11.3358 121.528 11.9615 121.757 12.856L123.733 20.5811L125.806 12.4792ZM81.4211 11.6632C81.7226 11.3796 82.121 11.2217 82.5348 11.2217C84.0073 11.2217 84.7212 13.0227 83.6488 14.0315L79.1569 18.2569L83.5163 23.3513C84.3922 24.3749 83.668 25.9547 82.3208 25.9591C81.8576 25.9606 81.4169 25.7589 81.1155 25.407L76.8499 20.4282L76.4314 20.8217V24.3068C76.4314 25.205 75.7033 25.933 74.8051 25.933C73.9069 25.933 73.1789 25.205 73.1789 24.3068V8.85651C73.1789 7.95837 73.9069 7.23029 74.8051 7.23029C75.7033 7.23029 76.4314 7.95837 76.4314 8.85651V16.3559L81.4211 11.6632ZM55.4887 24.3068V12.8479C55.4887 11.9498 54.7607 11.2217 53.8625 11.2217C52.9644 11.2217 52.2363 11.9498 52.2363 12.8479V24.3068C52.2363 25.205 52.9644 25.933 53.8625 25.933C54.7607 25.933 55.4887 25.205 55.4887 24.3068ZM65.481 11.2217C63.6108 11.2217 61.9537 12.1318 60.9262 13.5333V12.8479C60.9262 11.9498 60.1982 11.2217 59.3 11.2217C58.4018 11.2217 57.6738 11.9498 57.6738 12.8479V24.2817C57.6738 25.1937 58.4131 25.933 59.3251 25.933C60.2371 25.933 60.9764 25.1937 60.9764 24.2817V17.8361C60.9764 15.9464 62.508 14.4149 64.3976 14.4149C66.2873 14.4149 67.8189 15.9464 67.8189 17.8361V24.2794C67.8189 25.1926 68.5592 25.933 69.4725 25.933C70.3857 25.933 71.1261 25.1926 71.1261 24.2794V16.8668C71.1261 13.7489 68.5989 11.2217 65.481 11.2217ZM93.2714 11.1414C93.7899 11.2345 94.236 11.5545 94.4629 12.0304H94.4625C94.5624 12.2401 94.6184 12.4746 94.6184 12.7219C94.6184 12.9692 94.5624 13.2036 94.4625 13.4133C94.2073 13.9501 93.6639 14.3248 93.0304 14.3417C93.0157 14.3425 93.001 14.3425 92.9859 14.3425C92.8835 14.3425 92.7834 14.3332 92.686 14.315C91.9488 14.2887 91.2017 14.4639 90.6034 14.8906C89.8168 15.4518 89.3405 16.3717 89.3405 17.3332V24.3297C89.3405 25.2656 88.5819 26.0242 87.6461 26.0242C86.7101 26.0242 85.9515 25.2656 85.9515 24.3297V12.7484C85.9515 11.8297 86.6963 11.0849 87.6151 11.0849C88.5339 11.0849 89.2787 11.8297 89.2787 12.7484V13.2402C89.8778 12.4203 90.7081 11.7697 91.6623 11.4061C92.1679 11.2133 92.7259 11.0435 93.2714 11.1414Z" fill="#2D2D2D"/>
</svg>
