<svg width="108" height="24" viewBox="0 0 108 24" fill="none" xmlns="http://www.w3.org/2000/svg">
<path d="M20.3574 14.0468L18.0908 9.05762C17.6102 8.00013 16.9038 7.12386 16.0567 6.46322C14.8675 5.52961 13.4011 5.01807 11.9012 5.01807C11.738 5.01807 11.5748 5.02495 11.4116 5.03642C10.6092 5.09606 9.80219 5.3048 9.02877 5.67412C7.37909 6.46322 6.12731 7.86479 5.50365 9.62192C4.88222 11.379 4.9627 13.2784 5.73165 14.9713L6.09378 15.7673C7.0505 15.9622 8.02063 15.726 8.78065 15.1663L8.16369 13.8083C7.69651 12.7806 7.64733 11.6291 8.0251 10.5624C8.40288 9.49804 9.16289 8.64701 10.1621 8.16759C10.7567 7.88314 11.3848 7.75698 11.9995 7.77304C13.4436 7.80744 14.8205 8.61948 15.5448 9.98894C15.585 10.0646 15.623 10.1426 15.6588 10.2206L17.9254 15.2098C18.3926 16.2375 18.4418 17.3913 18.064 18.4557C17.6862 19.5201 16.9262 20.3711 15.9248 20.8505C13.904 21.8186 11.501 20.9583 10.4951 18.9328C9.71725 19.3962 8.85888 19.7151 7.95357 19.8642L7.99828 19.9605C9.15395 22.5044 11.6195 24.0001 14.1879 24.0001C15.1513 24.0001 16.1304 23.789 17.0581 23.3463C18.71 22.5549 19.9618 21.1533 20.5854 19.3962C21.2069 17.6414 21.1264 15.742 20.3574 14.0468Z" fill="#FF8400"/>
<path fill-rule="evenodd" clip-rule="evenodd" d="M4.77252 5.55563C4.77249 5.55571 4.77246 5.55578 4.77244 5.55586L2.93587 10.7371C2.15413 12.9413 3.26166 15.3812 5.4091 16.1846C7.55502 16.9876 9.93028 15.8501 10.7126 13.6445C10.7127 13.6445 10.7127 13.6444 10.7127 13.6443L12.5492 8.46327L12.5493 8.46304C13.331 6.25882 12.2235 3.81902 10.0761 3.01552C7.93014 2.2126 5.55487 3.35008 4.77252 5.55563ZM2.25019 4.61212C3.53937 0.977115 7.45443 -0.899858 10.9949 0.424844C14.5338 1.74898 16.3612 5.77011 15.0716 9.40654C15.0716 9.40662 15.0716 9.4067 15.0715 9.40677L13.235 14.5878L13.235 14.588C11.9458 18.2231 8.03073 20.1 4.49029 18.7753C0.951379 17.4512 -0.876011 13.4301 0.41354 9.79363C0.413567 9.79355 0.413594 9.79347 0.413621 9.7934L2.25019 4.61212Z" fill="#FFA94C"/>
<path fill-rule="evenodd" clip-rule="evenodd" d="M43.6517 3.5C44.5441 3.5 45.2675 4.21274 45.2675 5.09194C45.2675 5.97115 44.5441 6.68388 43.6517 6.68388C42.7593 6.68388 42.0359 5.97115 42.0359 5.09194C42.0359 4.21274 42.7593 3.5 43.6517 3.5ZM31.7929 5.95643C31.7929 5.19658 31.1677 4.58061 30.3964 4.58061C29.6252 4.58061 29 5.19658 29 5.95643V17.6287V18.4507C29 19.5165 29.8769 20.3804 30.9585 20.3804H31.7929H39.1393C39.9106 20.3804 40.5358 19.7644 40.5358 19.0045C40.5358 18.2448 39.9106 17.6287 39.1393 17.6287H31.7929V5.95643ZM78.7545 14.1236C78.7545 10.6146 81.6522 7.75969 85.2138 7.75969C88.7754 7.75969 91.673 10.6146 91.673 14.1236C91.673 14.6035 91.2528 14.96 90.7657 14.96H81.5925C81.9783 16.579 83.455 17.7879 85.2138 17.7879C86.0912 17.7879 86.8989 17.4864 87.5358 16.9832C88.013 16.6061 88.63 16.37 89.2161 16.5418C90.1108 16.8039 90.509 17.8304 89.844 18.4756C88.6267 19.6568 86.9467 20.4875 85.2138 20.4875C81.6522 20.4875 78.7545 17.6326 78.7545 14.1236ZM85.2128 10.4592C83.6734 10.4592 82.3494 11.3855 81.7854 12.7024H88.6402C88.0762 11.3855 86.7522 10.4592 85.2128 10.4592ZM105.429 9.02133C105.577 8.45211 106.098 8.05394 106.694 8.05394C107.546 8.05394 108.17 8.84541 107.959 9.65886L105.508 19.0979C105.294 19.9229 104.539 20.5 103.675 20.5H103.624C102.76 20.5 102.005 19.9229 101.791 19.0979L100.271 13.2436L98.775 19.0044C98.5466 19.8845 97.7419 20.5 96.8199 20.5H96.769C95.9623 20.5 95.2582 19.9614 95.0582 19.1914L92.5831 9.65886C92.372 8.84541 92.9957 8.05394 93.8479 8.05394C94.4442 8.05394 94.9648 8.4521 95.1126 9.02133L96.8924 15.8757L98.5895 9.3401C98.7859 8.58331 99.4781 8.05394 100.271 8.05394C101.064 8.05394 101.756 8.58331 101.952 9.3401L103.649 15.8757L105.429 9.02133ZM67.3161 8.33092C67.575 8.09102 67.9171 7.95745 68.2725 7.95745C69.5369 7.95745 70.1499 9.48111 69.229 10.3346L65.3719 13.9094L69.1152 18.2194C69.8674 19.0853 69.2455 20.4219 68.0887 20.4256C67.6909 20.4269 67.3125 20.2562 67.0537 19.9585L63.3908 15.7464L63.0314 16.0792V19.0277C63.0314 19.7876 62.4063 20.4035 61.635 20.4035C60.8637 20.4035 60.2386 19.7876 60.2386 19.0277V5.95643C60.2386 5.19658 60.8637 4.58061 61.635 4.58061C62.4063 4.58061 63.0314 5.19658 63.0314 5.95643V12.301L67.3161 8.33092ZM45.0481 19.0277V9.33328C45.0481 8.57343 44.4229 7.95745 43.6517 7.95745C42.8805 7.95745 42.2552 8.57343 42.2552 9.33328V19.0277C42.2552 19.7876 42.8805 20.4035 43.6517 20.4035C44.4229 20.4035 45.0481 19.7876 45.0481 19.0277ZM53.6284 7.95745C52.0224 7.95745 50.5996 8.72738 49.7173 9.91313V9.33328C49.7173 8.57343 49.0921 7.95745 48.3208 7.95745C47.5495 7.95745 46.9244 8.57343 46.9244 9.33328V19.0065C46.9244 19.778 47.5592 20.4035 48.3424 20.4035C49.1255 20.4035 49.7603 19.778 49.7603 19.0065V13.5533C49.7603 11.9547 51.0755 10.6589 52.6981 10.6589C54.3208 10.6589 55.6359 11.9547 55.6359 13.5533V19.0045C55.6359 19.7772 56.2717 20.4035 57.0559 20.4035C57.8401 20.4035 58.4758 19.7772 58.4758 19.0045V12.7333C58.4758 10.0955 56.3058 7.95745 53.6284 7.95745ZM77.4919 7.88948C77.9372 7.96826 78.3202 8.23898 78.515 8.64163H78.5147C78.6005 8.81905 78.6486 9.01739 78.6486 9.22662C78.6486 9.43585 78.6005 9.63418 78.5147 9.8116C78.2956 10.2657 77.8289 10.5827 77.285 10.5971C77.2723 10.5977 77.2597 10.5977 77.2468 10.5977C77.1588 10.5977 77.0729 10.5898 76.9892 10.5744C76.3562 10.5522 75.7147 10.7004 75.2009 11.0614C74.5255 11.5362 74.1165 12.3144 74.1165 13.1279V19.0471C74.1165 19.8389 73.465 20.4807 72.6615 20.4807C71.8578 20.4807 71.2064 19.8389 71.2064 19.0471V9.2491C71.2064 8.47179 71.8459 7.84166 72.6349 7.84166C73.4238 7.84166 74.0634 8.47179 74.0634 9.2491V9.66513C74.5779 8.97148 75.2908 8.42108 76.1102 8.11344C76.5443 7.95032 77.0235 7.80664 77.4919 7.88948Z" fill="#2D2D2D"/>
</svg>
