<svg width="24" height="6" viewBox="0 0 24 6" fill="none" xmlns="http://www.w3.org/2000/svg">
<g id="Vector">
<path d="M20.8816 5.0999C19.6977 5.0999 18.7379 4.1597 18.7379 2.9999C18.7379 1.8401 19.6977 0.899902 20.8816 0.899902C22.0656 0.899902 23.0254 1.8401 23.0254 2.9999C23.0254 4.1597 22.0656 5.0999 20.8816 5.0999Z" fill="#2D2D2D"/>
<path d="M12.0004 5.0999C10.8164 5.0999 9.85664 4.1597 9.85664 2.9999C9.85664 1.8401 10.8164 0.899902 12.0004 0.899902C13.1844 0.899902 14.1441 1.8401 14.1441 2.9999C14.1441 4.1597 13.1844 5.0999 12.0004 5.0999Z" fill="#2D2D2D"/>
<path d="M0.975391 2.9999C0.975391 4.1597 1.93518 5.0999 3.11914 5.0999C4.3031 5.0999 5.26289 4.1597 5.26289 2.9999C5.26289 1.8401 4.3031 0.899902 3.11914 0.899902C1.93518 0.899902 0.975391 1.8401 0.975391 2.9999Z" fill="#2D2D2D"/>
</g>
</svg>
