<svg width="20" height="20" viewBox="0 0 20 20" fill="none" xmlns="http://www.w3.org/2000/svg">
<path fill-rule="evenodd" clip-rule="evenodd" d="M6.44458 5.61111C6.44458 3.61675 8.06133 2 10.0557 2C12.0501 2 13.6668 3.61675 13.6668 5.61111C13.6668 7.60547 12.0501 9.22222 10.0557 9.22222C8.06133 9.22222 6.44458 7.60547 6.44458 5.61111ZM10.0557 0C6.95676 0 4.44458 2.51218 4.44458 5.61111C4.44458 7.44077 5.3203 9.06589 6.67546 10.0902C2.78714 11.3845 0 14.8853 0 19C0 19.5523 0.474051 20 1.05882 20C1.6436 20 2.11765 19.5523 2.11765 19C2.11765 14.8891 5.64726 11.5556 10 11.5556C14.3527 11.5556 17.8824 14.8891 17.8824 19C17.8824 19.5523 18.3564 20 18.9412 20C19.5259 20 20 19.5523 20 19C20 14.9124 17.2495 11.4308 13.4014 10.1161C14.7762 9.09341 15.6668 7.45627 15.6668 5.61111C15.6668 2.51218 13.1546 0 10.0557 0Z" fill="currentColor"/>
</svg>
