<svg width="24" height="25" viewBox="0 0 24 25" fill="none" xmlns="http://www.w3.org/2000/svg">
<path fill-rule="evenodd" clip-rule="evenodd" d="M3.35795 19.4132C2.88068 19.8904 2.88068 20.6642 3.35795 21.1415C3.83521 21.6188 4.60901 21.6188 5.08628 21.1415L11.9995 14.2283L18.9131 21.1418C19.3904 21.6191 20.1642 21.6191 20.6414 21.1418C21.1187 20.6646 21.1187 19.8908 20.6414 19.4135L13.7279 12.4999L20.6413 5.58652C21.1185 5.10926 21.1185 4.33546 20.6413 3.85819C20.164 3.38093 19.3902 3.38093 18.9129 3.85819L11.9995 10.7716L5.08646 3.85854C4.6092 3.38127 3.8354 3.38127 3.35813 3.85853C2.88087 4.3358 2.88087 5.1096 3.35814 5.58687L10.2712 12.4999L3.35795 19.4132Z" fill="#2D2D2D"/>
</svg>
