<svg width="20" height="21" viewBox="0 0 20 21" fill="none" xmlns="http://www.w3.org/2000/svg">
<path id="Union" fill-rule="evenodd" clip-rule="evenodd" d="M2 15.0556V2.5H14.5556V15.0556H2ZM0 1.61111C0 0.997462 0.497461 0.5 1.11111 0.5H15.4444C16.0581 0.5 16.5556 0.997461 16.5556 1.61111V3.94436H18.8889C19.5025 3.94436 20 4.44182 20 5.05547V19.3888C20 20.0025 19.5025 20.4999 18.8889 20.4999H4.55554C3.94189 20.4999 3.44443 20.0025 3.44443 19.3888V17.0556H5.44443V18.4999H18V5.94436H16.5556V15.9444C16.5556 16.5581 16.0581 17.0556 15.4444 17.0556H1.11111C0.497462 17.0556 0 16.5581 0 15.9444V1.61111Z" fill="currentColor"/>
</svg>
