<svg width="20" height="18" viewBox="0 0 20 18" fill="none" xmlns="http://www.w3.org/2000/svg">
<path fill-rule="evenodd" clip-rule="evenodd" d="M9.99983 0.154297C4.79527 0.154297 0.571289 3.43544 0.571289 7.47087C0.571289 9.9883 2.20243 12.1852 4.69156 13.524L3.64499 17.3614C3.62525 17.4378 3.62931 17.5183 3.65664 17.5923C3.68397 17.6662 3.73326 17.73 3.79789 17.7752C3.86253 17.8203 3.93943 17.8446 4.01827 17.8448C4.09711 17.845 4.17413 17.8211 4.23899 17.7763L8.82126 14.7309C9.20783 14.7309 9.60383 14.7969 9.99983 14.7969C15.2044 14.7969 19.4284 11.5157 19.4284 7.47087C19.4284 3.42601 15.2044 0.154297 9.99983 0.154297Z" fill="black"/>
</svg>
