<svg width="678" height="282" viewBox="0 0 678 282" fill="none" xmlns="http://www.w3.org/2000/svg">
<g filter="url(#filter0_d_702_18096)">
<mask id="path-1-inside-1_702_18096" fill="white">
<path d="M12.5 45.5C12.5 34.4543 21.4543 25.5 32.5 25.5H142.5C153.546 25.5 162.5 34.4543 162.5 45.5V155.5C162.5 166.546 153.546 175.5 142.5 175.5H32.5C21.4543 175.5 12.5 166.546 12.5 155.5V45.5Z"/>
</mask>
<path d="M12.5 45.5C12.5 34.4543 21.4543 25.5 32.5 25.5H142.5C153.546 25.5 162.5 34.4543 162.5 45.5V155.5C162.5 166.546 153.546 175.5 142.5 175.5H32.5C21.4543 175.5 12.5 166.546 12.5 155.5V45.5Z" fill="white"/>
<path d="M12.5 45.5C12.5 18.9903 33.9903 -2.5 60.5 -2.5H114.5C141.01 -2.5 162.5 18.9903 162.5 45.5V53.5C162.5 53.5 153.546 53.5 142.5 53.5H32.5C21.4543 53.5 12.5 53.5 12.5 53.5V45.5ZM162.5 175.5H12.5H162.5ZM12.5 175.5V25.5V175.5ZM162.5 25.5V175.5V25.5Z" fill="#FFBE19" mask="url(#path-1-inside-1_702_18096)"/>
</g>
<path fill-rule="evenodd" clip-rule="evenodd" d="M148 89.5H26.5V87.5H148V89.5Z" fill="#D8D8D8"/>
<path fill-rule="evenodd" clip-rule="evenodd" d="M148 115.5H26.5V113.5H148V115.5Z" fill="#D8D8D8"/>
<path fill-rule="evenodd" clip-rule="evenodd" d="M148 141.5H26.5V139.5H148V141.5Z" fill="#D8D8D8"/>
<g filter="url(#filter1_d_702_18096)">
<path d="M98.5 118.5C98.5 107.454 107.454 98.5 118.5 98.5H228.5C239.546 98.5 248.5 107.454 248.5 118.5V228.5C248.5 239.546 239.546 248.5 228.5 248.5H118.5C107.454 248.5 98.5 239.546 98.5 228.5V118.5Z" fill="#FF9320"/>
</g>
<path fill-rule="evenodd" clip-rule="evenodd" d="M173.5 210.5C202.771 210.5 226.5 193.711 226.5 173C226.5 152.289 202.771 135.5 173.5 135.5C144.229 135.5 120.5 152.289 120.5 173C120.5 183.539 126.644 193.062 136.536 199.874L131.198 210.434C130.699 211.421 130.784 212.603 131.419 213.509L131.535 213.675C132.486 215.032 134.357 215.361 135.714 214.41L147.924 205.852C155.507 208.814 164.225 210.5 173.5 210.5Z" fill="white"/>
<g filter="url(#filter2_d_702_18096)">
<path fill-rule="evenodd" clip-rule="evenodd" d="M626.5 8.5C632.023 8.5 636.5 12.9772 636.5 18.5V83.5C636.5 89.0229 632.023 93.5 626.5 93.5H329.234C323.711 93.5 319.234 89.0229 319.234 83.5V35.8605C318.998 35.7823 318.765 35.6723 318.54 35.5278L305.877 27.3857C305.019 26.8337 304.5 25.883 304.5 24.8623V24.5C304.5 22.8431 305.843 21.5 307.5 21.5H319.234V18.5C319.234 12.9772 323.711 8.5 329.234 8.5H626.5Z" fill="white"/>
<path d="M402.367 58.5L398.898 45.7734H402.414L404.406 54.375H404.523L406.609 45.7734H410.055L412.164 54.3281H412.281L414.25 45.7734H417.766L414.273 58.5H410.617L408.414 50.4141H408.25L406.047 58.5H402.367ZM422.271 58.5L418.802 45.7734H422.318L424.31 54.375H424.427L426.513 45.7734H429.959L432.068 54.3281H432.185L434.154 45.7734H437.67L434.177 58.5H430.521L428.318 50.4141H428.154L425.951 58.5H422.271ZM442.175 58.5L438.707 45.7734H442.222L444.214 54.375H444.332L446.417 45.7734H449.863L451.972 54.3281H452.089L454.058 45.7734H457.574L454.082 58.5H450.425L448.222 50.4141H448.058L445.855 58.5H442.175ZM459.876 58.7109C458.775 58.7109 457.884 57.8203 457.908 56.7422C457.884 55.6641 458.775 54.7969 459.876 54.7969C460.908 54.7969 461.822 55.6641 461.822 56.7422C461.822 57.8203 460.908 58.7109 459.876 58.7109ZM468.319 41.5312V58.5H464.851V41.5312H468.319ZM471.255 58.5V45.7734H474.723V58.5H471.255ZM472.989 44.1094C471.934 44.1094 471.091 43.3125 471.091 42.3516C471.091 41.3672 471.934 40.5703 472.989 40.5703C474.02 40.5703 474.864 41.3672 474.864 42.3516C474.864 43.3125 474.02 44.1094 472.989 44.1094ZM481.128 51.1406V58.5H477.659V45.7734H480.963V48H481.104C481.69 46.5234 483.049 45.6094 484.924 45.6094C487.573 45.6094 489.331 47.4141 489.307 50.3906V58.5H485.862V51C485.862 49.4297 484.995 48.4922 483.565 48.4922C482.112 48.4922 481.128 49.4531 481.128 51.1406ZM492.243 58.5V41.5312H495.711V50.6484H495.899L500.024 45.7734H504.008L499.274 51.2812L504.266 58.5H500.188L496.696 53.3203L495.711 54.4219V58.5H492.243ZM507.904 58.7109C506.803 58.7109 505.912 57.8203 505.936 56.7422C505.912 55.6641 506.803 54.7969 507.904 54.7969C508.936 54.7969 509.85 55.6641 509.85 56.7422C509.85 57.8203 508.936 58.7109 507.904 58.7109ZM518.598 58.7578C514.707 58.7578 512.363 56.0625 512.363 52.1719C512.363 48.2812 514.73 45.6094 518.598 45.6094C521.879 45.6094 524.105 47.5312 524.246 50.4375H520.988C520.777 49.1719 519.957 48.3047 518.644 48.3047C516.98 48.3047 515.879 49.7109 515.879 52.125C515.879 54.5859 516.957 55.9922 518.644 55.9922C519.863 55.9922 520.777 55.2422 520.988 53.8828H524.246C524.082 56.7656 521.973 58.7578 518.598 58.7578ZM532.361 58.7578C528.517 58.7578 526.127 56.1094 526.127 52.1719C526.127 48.2344 528.517 45.6094 532.361 45.6094C536.205 45.6094 538.619 48.2344 538.619 52.1719C538.619 56.1094 536.205 58.7578 532.361 58.7578ZM532.384 56.0625C534.166 56.0625 535.08 54.3984 535.08 52.1719C535.08 49.9219 534.166 48.2578 532.384 48.2578C530.58 48.2578 529.642 49.9219 529.642 52.1719C529.642 54.3984 530.58 56.0625 532.384 56.0625ZM541.038 58.5V45.7734H544.343V48H544.484C545.023 46.5234 546.312 45.6094 548.023 45.6094C549.781 45.6094 551.07 46.5234 551.492 48H551.609C552.148 46.5469 553.577 45.6094 555.452 45.6094C557.82 45.6094 559.46 47.1797 559.46 49.9453V58.5H555.992V50.625C555.992 49.1719 555.148 48.4688 553.999 48.4688C552.687 48.4688 551.937 49.3828 551.937 50.7188V58.5H548.562V50.5312C548.562 49.2656 547.765 48.4688 546.593 48.4688C545.421 48.4688 544.507 49.4062 544.507 50.8594V58.5H541.038ZM569.708 40.7344L564.224 61.0547H561.247L566.708 40.7344H569.708ZM571.518 58.5V41.5312H574.987V50.6484H575.175L579.3 45.7734H583.284L578.55 51.2812L583.542 58.5H579.464L575.972 53.3203L574.987 54.4219V58.5H571.518ZM585.141 58.5V45.7734H588.493V47.9766H588.633C589.102 46.4062 590.274 45.5859 591.704 45.5859C592.055 45.5859 592.501 45.6328 592.805 45.7031V48.7969C592.477 48.7031 591.821 48.6094 591.329 48.6094C589.758 48.6094 588.61 49.7109 588.61 51.2578V58.5H585.141ZM602.192 51.5391C601.371 51.5391 600.668 50.8594 600.692 50.0156C600.668 49.1953 601.371 48.5156 602.192 48.5156C603.012 48.5156 603.692 49.1953 603.692 50.0156C603.692 50.8594 603.012 51.5391 602.192 51.5391ZM608.285 51.5391C607.465 51.5391 606.762 50.8594 606.785 50.0156C606.762 49.1953 607.465 48.5156 608.285 48.5156C609.106 48.5156 609.785 49.1953 609.785 50.0156C609.785 50.8594 609.106 51.5391 608.285 51.5391ZM614.379 51.5391C613.559 51.5391 612.856 50.8594 612.879 50.0156C612.856 49.1953 613.559 48.5156 614.379 48.5156C615.199 48.5156 615.879 49.1953 615.879 50.0156C615.879 50.8594 615.199 51.5391 614.379 51.5391Z" fill="#8E8E8E"/>
<path d="M340.5 38.5C340.5 32.9772 344.977 28.5 350.5 28.5H375.5C381.023 28.5 385.5 32.9772 385.5 38.5V63.5C385.5 69.0228 381.023 73.5 375.5 73.5H350.5C344.977 73.5 340.5 69.0228 340.5 63.5V38.5Z" fill="#F8F8F8"/>
<path d="M376.644 54.2293L373.622 47.577C372.981 46.167 372.039 44.9986 370.91 44.1178C369.324 42.873 367.369 42.1909 365.369 42.1909C365.151 42.1909 364.934 42.2001 364.716 42.2154C363.646 42.2949 362.57 42.5732 361.539 43.0657C359.339 44.1178 357.67 45.9866 356.839 48.3294C356.01 50.6722 356.118 53.2047 357.143 55.4619L357.626 56.5232C358.901 56.7832 360.195 56.4681 361.208 55.7218L360.386 53.9112C359.763 52.541 359.697 51.0056 360.201 49.5834C360.704 48.1642 361.718 47.0295 363.05 46.3903C363.843 46.011 364.68 45.8428 365.5 45.8642C367.425 45.9101 369.261 46.9928 370.227 48.8187C370.281 48.9197 370.331 49.0237 370.379 49.1277L373.401 55.78C374.024 57.1502 374.09 58.6886 373.586 60.1078C373.082 61.5269 372.069 62.6616 370.734 63.3009C368.039 64.5916 364.835 63.4446 363.494 60.7439C362.457 61.3618 361.312 61.7869 360.105 61.9857L360.165 62.1142C361.706 65.5061 364.993 67.5002 368.418 67.5002C369.702 67.5002 371.008 67.2188 372.245 66.6286C374.447 65.5734 376.116 63.7046 376.948 61.3618C377.776 59.022 377.669 56.4895 376.644 54.2293Z" fill="#C6C6C6"/>
<path fill-rule="evenodd" clip-rule="evenodd" d="M355.863 42.9075C355.863 42.9076 355.863 42.9077 355.863 42.9078L353.414 49.8162C352.372 52.7551 353.849 56.0082 356.712 57.0795C359.573 58.1501 362.74 56.6335 363.784 53.6927C363.784 53.6926 363.784 53.6925 363.784 53.6924L366.232 46.7844L366.232 46.7841C367.275 43.8451 365.798 40.592 362.935 39.5207C360.074 38.4501 356.906 39.9668 355.863 42.9075ZM352.5 41.6495C354.219 36.8028 359.439 34.3002 364.16 36.0665C368.878 37.832 371.315 43.1935 369.595 48.0421C369.595 48.0422 369.595 48.0423 369.595 48.0424L367.147 54.9504L367.147 54.9507C365.428 59.7974 360.208 62.3 355.487 60.5338C350.769 58.7683 348.332 53.4067 350.051 48.5582C350.051 48.5581 350.051 48.558 350.051 48.5579L352.5 41.6495Z" fill="#E4E4E4"/>
</g>
<g opacity="0.8">
<path fill-rule="evenodd" clip-rule="evenodd" d="M355.5 105.5C349.977 105.5 345.5 109.977 345.5 115.5V180.5C345.5 186.023 349.977 190.5 355.5 190.5H652.766C658.289 190.5 662.766 186.023 662.766 180.5V132.861C663.002 132.782 663.235 132.672 663.46 132.528L676.123 124.386C676.981 123.834 677.5 122.883 677.5 121.862V121.5C677.5 119.843 676.157 118.5 674.5 118.5H662.766V115.5C662.766 109.977 658.289 105.5 652.766 105.5H355.5Z" fill="white"/>
<path d="M427.367 155.5L423.898 142.773H427.414L429.406 151.375H429.523L431.609 142.773H435.055L437.164 151.328H437.281L439.25 142.773H442.766L439.273 155.5H435.617L433.414 147.414H433.25L431.047 155.5H427.367ZM447.271 155.5L443.802 142.773H447.318L449.31 151.375H449.427L451.513 142.773H454.959L457.068 151.328H457.185L459.154 142.773H462.67L459.177 155.5H455.521L453.318 147.414H453.154L450.951 155.5H447.271ZM467.175 155.5L463.707 142.773H467.222L469.214 151.375H469.332L471.417 142.773H474.863L476.972 151.328H477.089L479.058 142.773H482.574L479.082 155.5H475.425L473.222 147.414H473.058L470.855 155.5H467.175ZM484.876 155.711C483.775 155.711 482.884 154.82 482.908 153.742C482.884 152.664 483.775 151.797 484.876 151.797C485.908 151.797 486.822 152.664 486.822 153.742C486.822 154.82 485.908 155.711 484.876 155.711ZM493.319 138.531V155.5H489.851V138.531H493.319ZM496.255 155.5V142.773H499.723V155.5H496.255ZM497.989 141.109C496.934 141.109 496.091 140.312 496.091 139.352C496.091 138.367 496.934 137.57 497.989 137.57C499.02 137.57 499.864 138.367 499.864 139.352C499.864 140.312 499.02 141.109 497.989 141.109ZM506.128 148.141V155.5H502.659V142.773H505.963V145H506.104C506.69 143.523 508.049 142.609 509.924 142.609C512.573 142.609 514.331 144.414 514.307 147.391V155.5H510.862V148C510.862 146.43 509.995 145.492 508.565 145.492C507.112 145.492 506.128 146.453 506.128 148.141ZM517.243 155.5V138.531H520.711V147.648H520.899L525.024 142.773H529.008L524.274 148.281L529.266 155.5H525.188L521.696 150.32L520.711 151.422V155.5H517.243ZM532.904 155.711C531.803 155.711 530.912 154.82 530.936 153.742C530.912 152.664 531.803 151.797 532.904 151.797C533.936 151.797 534.85 152.664 534.85 153.742C534.85 154.82 533.936 155.711 532.904 155.711ZM543.598 155.758C539.707 155.758 537.363 153.062 537.363 149.172C537.363 145.281 539.73 142.609 543.598 142.609C546.879 142.609 549.105 144.531 549.246 147.438H545.988C545.777 146.172 544.957 145.305 543.644 145.305C541.98 145.305 540.879 146.711 540.879 149.125C540.879 151.586 541.957 152.992 543.644 152.992C544.863 152.992 545.777 152.242 545.988 150.883H549.246C549.082 153.766 546.973 155.758 543.598 155.758ZM557.361 155.758C553.517 155.758 551.127 153.109 551.127 149.172C551.127 145.234 553.517 142.609 557.361 142.609C561.205 142.609 563.619 145.234 563.619 149.172C563.619 153.109 561.205 155.758 557.361 155.758ZM557.384 153.062C559.166 153.062 560.08 151.398 560.08 149.172C560.08 146.922 559.166 145.258 557.384 145.258C555.58 145.258 554.642 146.922 554.642 149.172C554.642 151.398 555.58 153.062 557.384 153.062ZM566.038 155.5V142.773H569.343V145H569.484C570.023 143.523 571.312 142.609 573.023 142.609C574.781 142.609 576.07 143.523 576.492 145H576.609C577.148 143.547 578.577 142.609 580.452 142.609C582.82 142.609 584.46 144.18 584.46 146.945V155.5H580.992V147.625C580.992 146.172 580.148 145.469 578.999 145.469C577.687 145.469 576.937 146.383 576.937 147.719V155.5H573.562V147.531C573.562 146.266 572.765 145.469 571.593 145.469C570.421 145.469 569.507 146.406 569.507 147.859V155.5H566.038ZM594.708 137.734L589.224 158.055H586.247L591.708 137.734H594.708ZM596.518 155.5V138.531H599.987V147.648H600.175L604.3 142.773H608.284L603.55 148.281L608.542 155.5H604.464L600.972 150.32L599.987 151.422V155.5H596.518ZM610.141 155.5V142.773H613.493V144.977H613.633C614.102 143.406 615.274 142.586 616.704 142.586C617.055 142.586 617.501 142.633 617.805 142.703V145.797C617.477 145.703 616.821 145.609 616.329 145.609C614.758 145.609 613.61 146.711 613.61 148.258V155.5H610.141ZM627.192 148.539C626.371 148.539 625.668 147.859 625.692 147.016C625.668 146.195 626.371 145.516 627.192 145.516C628.012 145.516 628.692 146.195 628.692 147.016C628.692 147.859 628.012 148.539 627.192 148.539ZM633.285 148.539C632.465 148.539 631.762 147.859 631.785 147.016C631.762 146.195 632.465 145.516 633.285 145.516C634.106 145.516 634.785 146.195 634.785 147.016C634.785 147.859 634.106 148.539 633.285 148.539ZM639.379 148.539C638.559 148.539 637.856 147.859 637.879 147.016C637.856 146.195 638.559 145.516 639.379 145.516C640.199 145.516 640.879 146.195 640.879 147.016C640.879 147.859 640.199 148.539 639.379 148.539Z" fill="#8E8E8E"/>
<path d="M365.5 135.5C365.5 129.977 369.977 125.5 375.5 125.5H400.5C406.023 125.5 410.5 129.977 410.5 135.5V160.5C410.5 166.023 406.023 170.5 400.5 170.5H375.5C369.977 170.5 365.5 166.023 365.5 160.5V135.5Z" fill="#F8F8F8"/>
<path d="M401.644 151.229L398.622 144.577C397.981 143.167 397.039 141.999 395.91 141.118C394.324 139.873 392.369 139.191 390.369 139.191C390.151 139.191 389.934 139.2 389.716 139.215C388.646 139.295 387.57 139.573 386.539 140.066C384.339 141.118 382.67 142.987 381.839 145.329C381.01 147.672 381.118 150.205 382.143 152.462L382.626 153.523C383.901 153.783 385.195 153.468 386.208 152.722L385.386 150.911C384.763 149.541 384.697 148.006 385.201 146.583C385.704 145.164 386.718 144.03 388.05 143.39C388.843 143.011 389.68 142.843 390.5 142.864C392.425 142.91 394.261 143.993 395.227 145.819C395.281 145.92 395.331 146.024 395.379 146.128L398.401 152.78C399.024 154.15 399.09 155.689 398.586 157.108C398.082 158.527 397.069 159.662 395.734 160.301C393.039 161.592 389.835 160.445 388.494 157.744C387.457 158.362 386.312 158.787 385.105 158.986L385.165 159.114C386.706 162.506 389.993 164.5 393.418 164.5C394.702 164.5 396.008 164.219 397.245 163.629C399.447 162.573 401.116 160.705 401.948 158.362C402.776 156.022 402.669 153.49 401.644 151.229Z" fill="#C6C6C6"/>
<path fill-rule="evenodd" clip-rule="evenodd" d="M380.863 139.908C380.863 139.908 380.863 139.908 380.863 139.908L378.414 146.816C377.372 149.755 378.849 153.008 381.712 154.08C384.573 155.15 387.74 153.633 388.784 150.693C388.784 150.693 388.784 150.693 388.784 150.692L391.232 143.784L391.232 143.784C392.275 140.845 390.798 137.592 387.935 136.521C385.074 135.45 381.906 136.967 380.863 139.908ZM377.5 138.649C379.219 133.803 384.439 131.3 389.16 133.066C393.878 134.832 396.315 140.193 394.595 145.042C394.595 145.042 394.595 145.042 394.595 145.042L392.147 151.95L392.147 151.951C390.428 156.797 385.208 159.3 380.487 157.534C375.769 155.768 373.332 150.407 375.051 145.558C375.051 145.558 375.051 145.558 375.051 145.558L377.5 138.649Z" fill="#E4E4E4"/>
</g>
<g filter="url(#filter3_d_702_18096)">
<path d="M297.5 190.5C297.5 184.977 301.977 180.5 307.5 180.5H604.766C610.289 180.5 614.766 184.977 614.766 190.5V255.5C614.766 261.023 610.289 265.5 604.766 265.5H307.5C301.977 265.5 297.5 261.023 297.5 255.5V190.5Z" fill="white"/>
<path d="M379.367 230.5L375.898 217.773H379.414L381.406 226.375H381.523L383.609 217.773H387.055L389.164 226.328H389.281L391.25 217.773H394.766L391.273 230.5H387.617L385.414 222.414H385.25L383.047 230.5H379.367ZM399.271 230.5L395.802 217.773H399.318L401.31 226.375H401.427L403.513 217.773H406.959L409.068 226.328H409.185L411.154 217.773H414.67L411.177 230.5H407.521L405.318 222.414H405.154L402.951 230.5H399.271ZM419.175 230.5L415.707 217.773H419.222L421.214 226.375H421.332L423.417 217.773H426.863L428.972 226.328H429.089L431.058 217.773H434.574L431.082 230.5H427.425L425.222 222.414H425.058L422.855 230.5H419.175ZM436.876 230.711C435.775 230.711 434.884 229.82 434.908 228.742C434.884 227.664 435.775 226.797 436.876 226.797C437.908 226.797 438.822 227.664 438.822 228.742C438.822 229.82 437.908 230.711 436.876 230.711ZM445.319 213.531V230.5H441.851V213.531H445.319ZM448.255 230.5V217.773H451.723V230.5H448.255ZM449.989 216.109C448.934 216.109 448.091 215.312 448.091 214.352C448.091 213.367 448.934 212.57 449.989 212.57C451.02 212.57 451.864 213.367 451.864 214.352C451.864 215.312 451.02 216.109 449.989 216.109ZM458.128 223.141V230.5H454.659V217.773H457.963V220H458.104C458.69 218.523 460.049 217.609 461.924 217.609C464.573 217.609 466.331 219.414 466.307 222.391V230.5H462.862V223C462.862 221.43 461.995 220.492 460.565 220.492C459.112 220.492 458.128 221.453 458.128 223.141ZM469.243 230.5V213.531H472.711V222.648H472.899L477.024 217.773H481.008L476.274 223.281L481.266 230.5H477.188L473.696 225.32L472.711 226.422V230.5H469.243ZM484.904 230.711C483.803 230.711 482.912 229.82 482.936 228.742C482.912 227.664 483.803 226.797 484.904 226.797C485.936 226.797 486.85 227.664 486.85 228.742C486.85 229.82 485.936 230.711 484.904 230.711ZM495.598 230.758C491.707 230.758 489.363 228.062 489.363 224.172C489.363 220.281 491.73 217.609 495.598 217.609C498.879 217.609 501.105 219.531 501.246 222.438H497.988C497.777 221.172 496.957 220.305 495.644 220.305C493.98 220.305 492.879 221.711 492.879 224.125C492.879 226.586 493.957 227.992 495.644 227.992C496.863 227.992 497.777 227.242 497.988 225.883H501.246C501.082 228.766 498.973 230.758 495.598 230.758ZM509.361 230.758C505.517 230.758 503.127 228.109 503.127 224.172C503.127 220.234 505.517 217.609 509.361 217.609C513.205 217.609 515.619 220.234 515.619 224.172C515.619 228.109 513.205 230.758 509.361 230.758ZM509.384 228.062C511.166 228.062 512.08 226.398 512.08 224.172C512.08 221.922 511.166 220.258 509.384 220.258C507.58 220.258 506.642 221.922 506.642 224.172C506.642 226.398 507.58 228.062 509.384 228.062ZM518.038 230.5V217.773H521.343V220H521.484C522.023 218.523 523.312 217.609 525.023 217.609C526.781 217.609 528.07 218.523 528.492 220H528.609C529.148 218.547 530.577 217.609 532.452 217.609C534.82 217.609 536.46 219.18 536.46 221.945V230.5H532.992V222.625C532.992 221.172 532.148 220.469 530.999 220.469C529.687 220.469 528.937 221.383 528.937 222.719V230.5H525.562V222.531C525.562 221.266 524.765 220.469 523.593 220.469C522.421 220.469 521.507 221.406 521.507 222.859V230.5H518.038ZM546.708 212.734L541.224 233.055H538.247L543.708 212.734H546.708ZM548.518 230.5V213.531H551.987V222.648H552.175L556.3 217.773H560.284L555.55 223.281L560.542 230.5H556.464L552.972 225.32L551.987 226.422V230.5H548.518ZM562.141 230.5V217.773H565.493V219.977H565.633C566.102 218.406 567.274 217.586 568.704 217.586C569.055 217.586 569.501 217.633 569.805 217.703V220.797C569.477 220.703 568.821 220.609 568.329 220.609C566.758 220.609 565.61 221.711 565.61 223.258V230.5H562.141ZM579.192 223.539C578.371 223.539 577.668 222.859 577.692 222.016C577.668 221.195 578.371 220.516 579.192 220.516C580.012 220.516 580.692 221.195 580.692 222.016C580.692 222.859 580.012 223.539 579.192 223.539ZM585.285 223.539C584.465 223.539 583.762 222.859 583.785 222.016C583.762 221.195 584.465 220.516 585.285 220.516C586.106 220.516 586.785 221.195 586.785 222.016C586.785 222.859 586.106 223.539 585.285 223.539ZM591.379 223.539C590.559 223.539 589.856 222.859 589.879 222.016C589.856 221.195 590.559 220.516 591.379 220.516C592.199 220.516 592.879 221.195 592.879 222.016C592.879 222.859 592.199 223.539 591.379 223.539Z" fill="#8E8E8E"/>
<path d="M317.5 210.5C317.5 204.977 321.977 200.5 327.5 200.5H352.5C358.023 200.5 362.5 204.977 362.5 210.5V235.5C362.5 241.023 358.023 245.5 352.5 245.5H327.5C321.977 245.5 317.5 241.023 317.5 235.5V210.5Z" fill="#F8F8F8"/>
<path d="M353.644 226.229L350.622 219.577C349.981 218.167 349.039 216.999 347.91 216.118C346.324 214.873 344.369 214.191 342.369 214.191C342.151 214.191 341.934 214.2 341.716 214.215C340.646 214.295 339.57 214.573 338.539 215.066C336.339 216.118 334.67 217.987 333.839 220.329C333.01 222.672 333.118 225.205 334.143 227.462L334.626 228.523C335.901 228.783 337.195 228.468 338.208 227.722L337.386 225.911C336.763 224.541 336.697 223.006 337.201 221.583C337.704 220.164 338.718 219.03 340.05 218.39C340.843 218.011 341.68 217.843 342.5 217.864C344.425 217.91 346.261 218.993 347.227 220.819C347.281 220.92 347.331 221.024 347.379 221.128L350.401 227.78C351.024 229.15 351.09 230.689 350.586 232.108C350.082 233.527 349.069 234.662 347.734 235.301C345.039 236.592 341.835 235.445 340.494 232.744C339.457 233.362 338.312 233.787 337.105 233.986L337.165 234.114C338.706 237.506 341.993 239.5 345.418 239.5C346.702 239.5 348.008 239.219 349.245 238.629C351.447 237.573 353.116 235.705 353.948 233.362C354.776 231.022 354.669 228.49 353.644 226.229Z" fill="#C6C6C6"/>
<path fill-rule="evenodd" clip-rule="evenodd" d="M332.863 214.908C332.863 214.908 332.863 214.908 332.863 214.908L330.414 221.816C329.372 224.755 330.849 228.008 333.712 229.08C336.573 230.15 339.74 228.633 340.784 225.693C340.784 225.693 340.784 225.693 340.784 225.692L343.232 218.784L343.232 218.784C344.275 215.845 342.798 212.592 339.935 211.521C337.074 210.45 333.906 211.967 332.863 214.908ZM329.5 213.649C331.219 208.803 336.439 206.3 341.16 208.066C345.878 209.832 348.315 215.193 346.595 220.042C346.595 220.042 346.595 220.042 346.595 220.042L344.147 226.95L344.147 226.951C342.428 231.797 337.208 234.3 332.487 232.534C327.769 230.768 325.332 225.407 327.051 220.558C327.051 220.558 327.051 220.558 327.051 220.558L329.5 213.649Z" fill="#E4E4E4"/>
</g>
<defs>
<filter id="filter0_d_702_18096" x="0.5" y="17.5" width="174" height="174" filterUnits="userSpaceOnUse" color-interpolation-filters="sRGB">
<feFlood flood-opacity="0" result="BackgroundImageFix"/>
<feColorMatrix in="SourceAlpha" type="matrix" values="0 0 0 0 0 0 0 0 0 0 0 0 0 0 0 0 0 0 127 0" result="hardAlpha"/>
<feOffset dy="4"/>
<feGaussianBlur stdDeviation="6"/>
<feComposite in2="hardAlpha" operator="out"/>
<feColorMatrix type="matrix" values="0 0 0 0 0 0 0 0 0 0 0 0 0 0 0 0 0 0 0.12 0"/>
<feBlend mode="normal" in2="BackgroundImageFix" result="effect1_dropShadow_702_18096"/>
<feBlend mode="normal" in="SourceGraphic" in2="effect1_dropShadow_702_18096" result="shape"/>
</filter>
<filter id="filter1_d_702_18096" x="86.5" y="90.5" width="174" height="174" filterUnits="userSpaceOnUse" color-interpolation-filters="sRGB">
<feFlood flood-opacity="0" result="BackgroundImageFix"/>
<feColorMatrix in="SourceAlpha" type="matrix" values="0 0 0 0 0 0 0 0 0 0 0 0 0 0 0 0 0 0 127 0" result="hardAlpha"/>
<feOffset dy="4"/>
<feGaussianBlur stdDeviation="6"/>
<feComposite in2="hardAlpha" operator="out"/>
<feColorMatrix type="matrix" values="0 0 0 0 0 0 0 0 0 0 0 0 0 0 0 0 0 0 0.12 0"/>
<feBlend mode="normal" in2="BackgroundImageFix" result="effect1_dropShadow_702_18096"/>
<feBlend mode="normal" in="SourceGraphic" in2="effect1_dropShadow_702_18096" result="shape"/>
</filter>
<filter id="filter2_d_702_18096" x="292.5" y="0.5" width="356" height="109" filterUnits="userSpaceOnUse" color-interpolation-filters="sRGB">
<feFlood flood-opacity="0" result="BackgroundImageFix"/>
<feColorMatrix in="SourceAlpha" type="matrix" values="0 0 0 0 0 0 0 0 0 0 0 0 0 0 0 0 0 0 127 0" result="hardAlpha"/>
<feOffset dy="4"/>
<feGaussianBlur stdDeviation="6"/>
<feComposite in2="hardAlpha" operator="out"/>
<feColorMatrix type="matrix" values="0 0 0 0 0 0 0 0 0 0 0 0 0 0 0 0 0 0 0.12 0"/>
<feBlend mode="normal" in2="BackgroundImageFix" result="effect1_dropShadow_702_18096"/>
<feBlend mode="normal" in="SourceGraphic" in2="effect1_dropShadow_702_18096" result="shape"/>
</filter>
<filter id="filter3_d_702_18096" x="285.5" y="172.5" width="341.267" height="109" filterUnits="userSpaceOnUse" color-interpolation-filters="sRGB">
<feFlood flood-opacity="0" result="BackgroundImageFix"/>
<feColorMatrix in="SourceAlpha" type="matrix" values="0 0 0 0 0 0 0 0 0 0 0 0 0 0 0 0 0 0 127 0" result="hardAlpha"/>
<feOffset dy="4"/>
<feGaussianBlur stdDeviation="6"/>
<feComposite in2="hardAlpha" operator="out"/>
<feColorMatrix type="matrix" values="0 0 0 0 0 0 0 0 0 0 0 0 0 0 0 0 0 0 0.12 0"/>
<feBlend mode="normal" in2="BackgroundImageFix" result="effect1_dropShadow_702_18096"/>
<feBlend mode="normal" in="SourceGraphic" in2="effect1_dropShadow_702_18096" result="shape"/>
</filter>
</defs>
</svg>
