<svg width="24" height="25" viewBox="0 0 24 25" fill="none" xmlns="http://www.w3.org/2000/svg">
<path fill-rule="evenodd" clip-rule="evenodd" d="M17.1634 11.0294C17.1634 14.6932 14.1932 17.6634 10.5294 17.6634C6.86555 17.6634 3.89542 14.6932 3.89542 11.0294C3.89542 7.36555 6.86555 4.39542 10.5294 4.39542C14.1932 4.39542 17.1634 7.36555 17.1634 11.0294ZM15.8537 17.6933C14.3945 18.8607 12.5435 19.5588 10.5294 19.5588C5.81874 19.5588 2 15.74 2 11.0294C2 6.31874 5.81874 2.5 10.5294 2.5C15.24 2.5 19.0588 6.31874 19.0588 11.0294C19.0588 13.0431 18.361 14.8938 17.1939 16.3529L21.7233 20.8823C22.0934 21.2524 22.0934 21.8524 21.7233 22.2225C21.3532 22.5926 20.7531 22.5926 20.383 22.2225L15.8537 17.6933Z" fill="#717171"/>
</svg>
