<svg width="20" height="20" viewBox="0 0 20 20" fill="none" xmlns="http://www.w3.org/2000/svg">
<rect x="2" y="2" width="16" height="16" rx="8" fill="#F44336"/>
<path fill-rule="evenodd" clip-rule="evenodd" d="M10.0003 6.16663C9.54009 6.16663 9.16699 6.53972 9.16699 6.99996V10.3333C9.16699 10.7935 9.54009 11.1666 10.0003 11.1666C10.4606 11.1666 10.8337 10.7935 10.8337 10.3333V6.99996C10.8337 6.53972 10.4606 6.16663 10.0003 6.16663ZM10.0003 12.1666C9.54009 12.1666 9.16699 12.5397 9.16699 13C9.16699 13.4602 9.54009 13.8333 10.0003 13.8333C10.4606 13.8333 10.8337 13.4602 10.8337 13C10.8337 12.5397 10.4606 12.1666 10.0003 12.1666Z" fill="white"/>
</svg>
