<svg width="18" height="18" viewBox="0 0 18 18" fill="none" xmlns="http://www.w3.org/2000/svg">
<g id="Union">
<path fill-rule="evenodd" clip-rule="evenodd" d="M1.38701 0.428711C0.759055 0.428711 0.25 0.927377 0.25 1.54251V6.77254C0.25 7.38767 0.759055 7.88634 1.38701 7.88634H6.72599C7.35394 7.88634 7.86299 7.38767 7.86299 6.77254V1.54251C7.86299 0.927377 7.35394 0.428711 6.72599 0.428711H1.38701ZM1.93079 6.23985V2.0752H6.1822V6.23985H1.93079Z" fill="#555555"/>
<path fill-rule="evenodd" clip-rule="evenodd" d="M11.274 0.428711C10.6461 0.428711 10.137 0.927377 10.137 1.54251V6.77254C10.137 7.38767 10.6461 7.88634 11.274 7.88634H16.613C17.2409 7.88634 17.75 7.38767 17.75 6.77254V1.54251C17.75 0.927377 17.2409 0.428711 16.613 0.428711H11.274ZM11.8178 6.23985V2.0752H16.0692V6.23985H11.8178Z" fill="#555555"/>
<path fill-rule="evenodd" clip-rule="evenodd" d="M0.25 11.2277C0.25 10.6126 0.759055 10.1139 1.38701 10.1139H6.72599C7.35394 10.1139 7.86299 10.6126 7.86299 11.2277V16.4578C7.86299 17.0729 7.35394 17.5716 6.72599 17.5716H1.38701C0.759055 17.5716 0.25 17.0729 0.25 16.4578V11.2277ZM1.93079 11.7604V15.9251H6.1822V11.7604H1.93079Z" fill="#555555"/>
<path fill-rule="evenodd" clip-rule="evenodd" d="M11.274 10.1139C10.6461 10.1139 10.137 10.6126 10.137 11.2277V16.4578C10.137 17.0729 10.6461 17.5716 11.274 17.5716H16.613C17.2409 17.5716 17.75 17.0729 17.75 16.4578V11.2277C17.75 10.6126 17.2409 10.1139 16.613 10.1139H11.274ZM11.8178 15.9251V11.7604H16.0692V15.9251H11.8178Z" fill="#555555"/>
</g>
</svg>
