<svg width="16" height="14" viewBox="0 0 16 14" fill="none" xmlns="http://www.w3.org/2000/svg">
<g id="Union">
<path d="M0.212891 0.999944C0.212891 0.573896 0.565466 0.228516 1.00039 0.228516H15.0004C15.4353 0.228516 15.7879 0.573896 15.7879 0.999944C15.7879 1.42599 15.4353 1.77137 15.0004 1.77137H1.00039C0.565466 1.77137 0.212891 1.42599 0.212891 0.999944Z" fill="#C6C6C6"/>
<path d="M0.212891 12.9999C0.212891 12.5739 0.565466 12.2285 1.00039 12.2285H15.0004C15.4353 12.2285 15.7879 12.5739 15.7879 12.9999C15.7879 13.426 15.4353 13.7714 15.0004 13.7714H1.00039C0.565466 13.7714 0.212891 13.426 0.212891 12.9999Z" fill="#C6C6C6"/>
<path d="M1.00039 6.22852C0.565466 6.22852 0.212891 6.5739 0.212891 6.99994C0.212891 7.42599 0.565466 7.77137 1.00039 7.77137H15.0004C15.4353 7.77137 15.7879 7.42599 15.7879 6.99994C15.7879 6.5739 15.4353 6.22852 15.0004 6.22852H1.00039Z" fill="#C6C6C6"/>
</g>
</svg>
